{"glyphs":{"0":{"ha":856,"x_min":76,"x_max":781,"o":"m 428 -17 q 259 27 331 -17 q 149 146 188 71 q 94 305 111 221 q 76 486 76 389 q 93 663 76 581 q 147 822 110 746 q 257 944 185 899 q 428 989 329 989 q 598 945 526 989 q 708 826 669 901 q 763 667 746 751 q 781 486 781 583 q 763 309 781 392 q 708 150 746 226 q 599 28 671 74 q 428 -17 526 -17 m 315 192 q 337 165 315 192 q 428 139 358 139 q 541 193 497 139 q 599 320 585 247 q 614 486 614 393 q 599 654 614 581 q 540 781 583 728 q 428 833 496 833 q 315 779 358 833 q 256 652 271 725 q 242 486 242 579 q 257 318 242 392 q 315 192 272 244 m 498 416 q 484 402 498 416 q 428 388 469 388 q 358 416 386 388 q 331 486 331 444 q 358 555 331 526 q 428 583 386 583 q 498 555 469 583 q 526 486 526 526 q 498 416 526 444 z "},"1":{"ha":856,"x_min":106,"x_max":750,"o":"m 513 158 l 750 158 l 750 0 l 106 0 l 106 158 l 347 158 l 347 763 l 136 706 l 136 861 l 513 974 l 513 158 z "},"2":{"ha":856,"x_min":101,"x_max":753,"o":"m 101 0 q 126 183 101 100 q 199 326 151 265 q 299 428 247 386 q 422 513 351 471 q 538 600 497 558 q 578 701 578 642 q 540 797 578 761 q 439 833 503 833 q 261 713 308 833 l 114 779 q 238 931 151 874 q 436 989 325 989 q 662 909 579 989 q 744 706 744 829 q 727 592 744 642 q 670 501 710 542 q 594 435 631 461 q 493 372 557 410 q 294 158 321 268 l 753 158 l 753 0 l 101 0 z "},"3":{"ha":856,"x_min":96,"x_max":761,"o":"m 428 -17 q 222 44 306 -17 q 96 211 138 106 l 244 272 q 432 139 307 139 q 549 176 503 139 q 594 281 594 214 q 552 386 594 346 q 428 426 510 426 l 340 426 l 340 583 l 424 583 q 522 617 485 583 q 560 708 560 651 q 524 799 560 764 q 429 833 488 833 q 275 729 329 833 l 126 786 q 244 933 165 878 q 429 989 322 989 q 642 914 558 989 q 725 725 725 839 q 606 515 725 585 q 718 426 675 488 q 761 282 761 365 q 669 64 761 144 q 428 -17 576 -17 z "},"4":{"ha":856,"x_min":56,"x_max":806,"o":"m 521 0 l 521 211 l 56 211 l 56 314 l 521 972 l 682 972 l 682 363 l 806 363 l 806 211 l 682 211 l 682 0 l 521 0 m 521 363 l 521 742 l 269 363 l 521 363 z "},"5":{"ha":856,"x_min":99,"x_max":757,"o":"m 396 -17 q 99 85 208 -17 l 189 213 q 396 139 288 139 q 537 189 483 139 q 590 322 590 239 q 551 441 590 396 q 440 486 511 486 q 281 413 347 486 l 129 479 l 168 972 l 699 972 l 699 815 l 318 815 l 296 599 q 451 643 367 643 q 676 552 594 643 q 757 324 757 461 q 656 78 757 174 q 396 -17 556 -17 z "},"6":{"ha":856,"x_min":79,"x_max":776,"o":"m 431 -17 q 171 88 263 -17 q 79 358 79 193 q 222 770 79 599 q 636 989 364 942 l 636 836 q 418 739 515 813 q 286 554 321 665 q 458 614 350 614 q 686 524 596 614 q 776 300 776 435 q 678 72 776 161 q 431 -17 581 -17 m 299 182 q 324 160 299 182 q 431 139 350 139 q 562 182 511 139 q 613 297 613 225 q 562 415 613 371 q 431 460 511 460 q 299 415 350 460 q 247 297 247 369 q 299 182 247 225 z "},"7":{"ha":856,"x_min":97,"x_max":758,"o":"m 97 972 l 758 972 l 758 832 q 617 628 678 743 q 525 400 557 514 q 478 187 493 286 q 463 0 463 88 l 299 0 q 363 435 299 239 q 569 817 426 632 l 97 817 l 97 972 z "},"8":{"ha":856,"x_min":75,"x_max":781,"o":"m 426 -17 q 172 68 268 -17 q 75 289 75 153 q 122 436 75 372 q 249 533 168 500 q 153 613 190 561 q 115 733 115 665 q 201 917 115 846 q 426 989 286 989 q 654 917 568 989 q 740 733 740 846 q 702 613 740 665 q 604 535 664 561 q 733 436 685 501 q 781 289 781 371 q 683 68 781 153 q 426 -17 586 -17 m 319 635 q 340 618 319 635 q 426 601 360 601 q 535 635 493 601 q 576 721 576 669 q 535 808 576 775 q 426 842 493 842 q 319 808 360 842 q 279 721 279 775 q 319 635 279 669 m 292 177 q 318 155 292 177 q 426 132 344 132 q 561 177 508 132 q 614 294 614 222 q 561 410 614 364 q 426 456 508 456 q 292 410 344 456 q 240 294 240 364 q 292 177 240 222 z "},"9":{"ha":856,"x_min":85,"x_max":769,"o":"m 243 -17 l 243 136 q 459 222 367 150 q 583 428 551 294 q 403 364 519 364 q 174 449 264 364 q 85 674 85 535 q 181 901 85 814 q 429 989 278 989 q 684 885 599 989 q 769 613 769 782 q 634 173 769 343 q 243 -17 499 3 m 297 560 q 320 538 297 560 q 426 517 344 517 q 557 560 508 517 q 606 678 606 603 q 556 792 606 747 q 428 836 507 836 q 297 792 346 836 q 249 678 249 749 q 297 560 249 603 z "},"\u0000":{"ha":856,"x_min":0,"x_max":0,"o":""}," ":{"ha":856,"x_min":0,"x_max":0,"o":""},"!":{"ha":856,"x_min":315,"x_max":540,"o":"m 382 268 l 347 678 l 347 989 l 508 989 l 508 678 l 474 268 l 382 268 m 507 15 q 490 -2 507 15 q 426 -18 474 -18 q 347 15 379 -18 q 315 93 315 47 q 347 172 315 139 q 426 204 379 204 q 507 172 474 204 q 540 93 540 139 q 507 15 540 47 z "},"\"":{"ha":856,"x_min":196,"x_max":660,"o":"m 196 972 l 388 972 l 357 576 l 226 576 l 196 972 m 467 972 l 660 972 l 629 576 l 499 576 l 467 972 z "},"#":{"ha":856,"x_min":8,"x_max":847,"o":"m 122 0 l 161 254 l 8 254 l 29 393 l 182 393 l 213 601 l 63 601 l 83 739 l 235 739 l 269 972 l 411 972 l 376 739 l 551 739 l 589 972 l 729 972 l 694 739 l 847 739 l 828 601 l 674 601 l 642 393 l 793 393 l 772 254 l 621 254 l 582 0 l 440 0 l 479 254 l 303 254 l 264 0 l 122 0 m 324 393 l 500 393 l 531 601 l 356 601 l 324 393 z "},"$":{"ha":856,"x_min":96,"x_max":760,"o":"m 351 -131 l 351 -7 q 192 77 258 15 q 96 231 126 139 l 247 286 q 328 179 276 219 q 443 139 379 139 q 551 174 511 139 q 590 272 590 208 q 543 372 590 335 q 403 444 496 408 q 325 476 354 464 q 254 515 296 489 q 190 568 213 540 q 149 640 167 596 q 132 736 132 683 q 190 894 132 826 q 351 981 249 963 l 351 1092 l 513 1092 l 513 979 q 646 909 593 961 q 721 783 699 857 l 572 733 q 421 833 531 833 q 332 808 364 833 q 300 736 300 782 q 343 656 300 686 q 474 594 386 626 q 554 561 524 575 q 628 519 585 547 q 697 460 672 490 q 741 381 722 429 q 760 274 760 332 q 691 83 760 158 q 513 -10 622 8 l 513 -131 l 351 -131 z "},"%":{"ha":856,"x_min":15,"x_max":840,"o":"m 161 -17 l 28 -17 l 690 989 l 824 989 l 161 -17 m 362 587 q 337 554 362 587 q 213 521 313 521 q 64 585 113 521 q 15 736 15 650 q 65 886 15 819 q 213 953 114 953 q 362 888 313 953 q 411 736 411 824 q 362 587 411 653 m 144 649 q 155 633 144 649 q 213 617 167 617 q 282 651 258 617 q 306 736 306 685 q 282 824 306 792 q 213 857 258 857 q 144 823 167 857 q 121 736 121 789 q 144 649 121 682 m 792 85 q 768 52 792 85 q 643 19 744 19 q 493 84 542 19 q 444 236 444 149 q 494 385 444 318 q 643 453 543 453 q 792 388 743 453 q 840 236 840 324 q 792 85 840 151 m 643 117 q 711 151 688 117 q 735 236 735 185 q 711 323 735 290 q 643 356 688 356 q 574 322 597 356 q 550 236 550 288 q 574 149 550 182 q 643 117 597 117 z "},"&":{"ha":856,"x_min":11,"x_max":846,"o":"m 846 0 l 639 0 l 574 85 q 300 -17 454 -17 q 90 58 169 -17 q 11 256 11 132 q 66 423 11 358 q 219 546 121 488 q 125 772 125 679 q 194 931 125 874 q 367 989 263 989 q 538 928 471 989 q 604 767 604 867 q 560 627 604 685 q 436 518 515 569 l 569 349 q 594 475 592 413 l 750 475 q 678 213 747 338 l 846 0 m 275 775 q 292 711 275 743 q 353 622 310 679 q 454 767 454 689 q 428 838 454 811 q 363 864 401 864 q 299 840 324 864 q 275 775 275 815 m 324 136 q 482 203 413 136 l 303 436 q 207 356 240 394 q 174 265 174 317 q 214 172 174 207 q 324 136 254 136 z "},"'":{"ha":856,"x_min":332,"x_max":524,"o":"m 332 972 l 524 972 l 493 576 l 363 576 l 332 972 z "},"(":{"ha":856,"x_min":257,"x_max":675,"o":"m 503 -181 q 326 59 396 -85 q 257 393 257 203 q 332 740 257 585 q 518 989 407 894 l 675 989 q 601 906 640 958 q 517 778 561 854 q 445 601 474 703 q 417 393 417 499 q 444 190 417 289 q 513 18 471 92 q 591 -101 556 -56 q 660 -181 626 -147 l 503 -181 z "},")":{"ha":856,"x_min":181,"x_max":599,"o":"m 196 -181 q 265 -101 231 -146 q 342 18 299 -56 q 412 190 385 92 q 439 393 439 289 q 410 601 439 499 q 339 778 382 703 q 256 906 296 854 q 181 989 215 958 l 338 989 q 524 740 449 894 q 599 393 599 585 q 529 59 599 203 q 353 -181 460 -85 l 196 -181 z "},"*":{"ha":856,"x_min":104,"x_max":753,"o":"m 306 154 l 185 239 l 272 365 l 344 424 l 250 401 l 104 401 l 104 551 l 250 551 l 344 529 l 272 588 l 185 714 l 306 799 l 408 654 l 428 569 l 447 654 l 550 799 l 671 714 l 583 588 l 511 529 l 606 551 l 753 551 l 753 401 l 606 401 l 511 424 l 583 365 l 671 239 l 550 154 l 447 299 l 428 383 l 408 299 l 306 154 z "},"+":{"ha":856,"x_min":101,"x_max":754,"o":"m 508 399 l 508 150 l 347 150 l 347 399 l 101 399 l 101 554 l 347 554 l 347 803 l 508 803 l 508 554 l 754 554 l 754 399 l 508 399 z "},",":{"ha":856,"x_min":313,"x_max":543,"o":"m 383 -258 l 313 -212 q 403 -15 392 -129 q 343 19 365 -7 q 321 86 321 46 q 353 167 321 136 q 429 197 385 197 q 511 163 479 197 q 543 63 543 128 q 494 -128 543 -40 q 383 -258 444 -217 z "},"-":{"ha":856,"x_min":101,"x_max":754,"o":"m 101 335 l 101 489 l 754 489 l 754 335 l 101 335 z "},".":{"ha":856,"x_min":318,"x_max":538,"o":"m 426 -18 q 349 13 381 -18 q 318 90 318 44 q 349 167 318 135 q 426 199 381 199 q 505 167 472 199 q 538 90 538 135 q 506 14 538 46 q 426 -18 474 -18 z "},"/":{"ha":856,"x_min":72,"x_max":782,"o":"m 72 -181 l 618 989 l 782 989 l 236 -181 l 72 -181 z "},":":{"ha":856,"x_min":318,"x_max":538,"o":"m 426 458 q 349 489 381 458 q 318 565 318 519 q 349 642 318 611 q 426 674 381 674 q 506 642 474 674 q 538 565 538 610 q 506 490 538 521 q 426 458 474 458 m 426 -18 q 349 13 381 -18 q 318 90 318 44 q 349 167 318 135 q 426 199 381 199 q 505 167 472 199 q 538 90 538 135 q 506 14 538 46 q 426 -18 474 -18 z "},";":{"ha":856,"x_min":313,"x_max":543,"o":"m 429 458 q 352 489 383 458 q 321 565 321 519 q 352 642 321 611 q 429 674 383 674 q 508 642 476 674 q 540 565 540 610 q 508 490 540 521 q 429 458 476 458 m 383 -258 l 313 -212 q 403 -15 392 -129 q 343 19 365 -7 q 321 86 321 46 q 353 167 321 136 q 429 197 385 197 q 511 163 479 197 q 543 63 543 128 q 494 -128 543 -40 q 383 -258 444 -217 z "},"<":{"ha":856,"x_min":101,"x_max":754,"o":"m 754 146 l 101 413 l 101 546 l 754 811 l 754 646 l 331 479 l 754 311 l 754 146 z "},"=":{"ha":856,"x_min":101,"x_max":754,"o":"m 101 563 l 101 722 l 754 722 l 754 563 l 101 563 m 101 231 l 101 389 l 754 389 l 754 231 l 101 231 z "},">":{"ha":856,"x_min":101,"x_max":754,"o":"m 754 417 l 101 151 l 101 317 l 525 485 l 101 653 l 101 817 l 754 550 l 754 417 z "},"?":{"ha":856,"x_min":118,"x_max":738,"o":"m 344 256 l 344 301 q 362 411 344 363 q 405 489 379 460 q 460 546 431 518 q 516 594 490 574 q 559 647 542 615 q 576 714 576 678 q 540 802 576 768 q 438 836 503 836 q 318 791 360 836 q 276 667 276 746 l 118 667 q 206 903 118 817 q 438 989 293 989 q 658 911 579 989 q 738 714 738 833 q 713 601 738 650 q 655 521 689 551 q 587 462 621 490 q 528 393 553 433 q 504 300 504 353 l 504 256 l 344 256 m 503 13 q 488 -2 503 13 q 425 -18 472 -18 q 347 13 378 -18 q 315 90 315 44 q 347 167 315 135 q 425 199 379 199 q 503 167 471 199 q 535 90 535 135 q 503 13 535 44 z "},"@":{"ha":856,"x_min":40,"x_max":814,"o":"m 433 -17 q 149 112 257 -17 q 40 468 40 240 q 158 842 40 694 q 446 989 275 989 q 713 870 611 989 q 814 572 814 751 q 751 320 814 419 q 597 221 689 221 q 539 242 565 221 q 504 301 513 263 q 389 217 467 217 q 276 283 319 217 q 232 454 232 349 q 289 653 232 565 q 433 742 346 742 q 532 667 508 742 l 540 724 l 638 724 l 599 458 q 589 368 589 381 q 614 333 589 333 q 688 399 657 333 q 719 572 719 465 q 647 802 719 714 q 450 890 575 890 q 228 771 314 890 q 142 467 142 651 q 222 189 142 290 q 438 88 301 88 q 589 114 507 88 l 561 -3 q 433 -17 501 -17 m 404 328 q 477 383 449 328 q 506 508 506 438 q 488 597 506 564 q 438 631 469 631 q 363 579 392 631 q 335 453 335 528 q 353 362 335 396 q 404 328 372 328 z "},"A":{"ha":856,"x_min":32,"x_max":824,"o":"m 646 0 l 582 214 l 274 214 l 210 0 l 32 0 l 350 972 l 506 972 l 824 0 l 646 0 m 318 364 l 538 364 l 451 653 q 428 761 438 697 q 404 653 411 676 l 318 364 z "},"B":{"ha":856,"x_min":106,"x_max":778,"o":"m 106 0 l 106 972 l 433 972 q 671 898 597 972 q 744 713 744 824 q 618 513 744 569 q 737 424 696 486 q 778 285 778 361 q 699 84 778 168 q 454 0 621 0 l 106 0 m 271 579 l 411 579 q 537 612 494 579 q 579 701 579 644 q 438 819 579 819 l 271 819 l 271 579 m 271 153 l 465 153 q 578 191 544 153 q 613 283 613 229 q 425 428 613 428 l 271 428 l 271 153 z "},"C":{"ha":856,"x_min":60,"x_max":750,"o":"m 444 -15 q 297 14 363 -15 q 187 91 231 43 q 114 205 143 139 q 72 341 85 271 q 60 486 60 411 q 81 663 60 578 q 147 823 103 749 q 268 942 192 897 q 444 988 344 988 q 635 929 558 988 q 746 785 711 871 l 599 714 q 533 801 568 772 q 444 831 497 831 q 319 775 369 831 q 250 645 269 719 q 231 486 231 571 q 286 245 231 349 q 444 142 342 142 q 600 267 542 142 l 750 210 q 444 -15 658 -15 z "},"D":{"ha":856,"x_min":106,"x_max":797,"o":"m 106 0 l 106 972 l 350 972 q 521 944 444 972 q 648 871 597 917 q 733 762 699 825 q 782 630 767 699 q 797 486 797 561 q 783 350 797 417 q 736 219 769 283 q 652 106 703 154 q 522 29 601 58 q 344 0 443 0 l 106 0 m 271 156 l 361 156 q 485 185 432 156 q 568 263 539 214 q 611 369 597 313 q 625 486 625 425 q 563 719 625 622 q 376 817 500 817 l 271 817 l 271 156 z "},"E":{"ha":856,"x_min":106,"x_max":758,"o":"m 106 0 l 106 972 l 729 972 l 729 815 l 271 815 l 271 581 l 569 581 l 569 424 l 271 424 l 271 157 l 758 157 l 758 0 l 106 0 z "},"F":{"ha":856,"x_min":106,"x_max":761,"o":"m 106 0 l 106 972 l 761 972 l 761 815 l 271 815 l 271 581 l 628 581 l 628 424 l 271 424 l 271 0 l 106 0 z "},"G":{"ha":856,"x_min":60,"x_max":767,"o":"m 443 -17 q 228 58 317 -17 q 99 242 139 132 q 60 486 60 353 q 101 724 60 613 q 231 913 142 836 q 443 989 321 989 q 624 936 556 989 q 743 793 693 883 l 597 710 q 443 832 532 832 q 320 776 369 832 q 251 645 271 719 q 232 486 232 571 q 286 242 232 343 q 443 140 340 140 q 558 190 518 140 q 597 321 597 240 l 597 342 l 428 342 l 428 497 l 767 497 l 767 363 q 676 83 767 183 q 443 -17 586 -17 z "},"H":{"ha":856,"x_min":106,"x_max":750,"o":"m 106 0 l 106 972 l 271 972 l 271 579 l 585 579 l 585 972 l 750 972 l 750 0 l 585 0 l 585 424 l 271 424 l 271 0 l 106 0 z "},"I":{"ha":856,"x_min":142,"x_max":714,"o":"m 714 826 l 510 826 l 510 146 l 714 146 l 714 0 l 142 0 l 142 146 l 344 146 l 344 826 l 142 826 l 142 972 l 714 972 l 714 826 z "},"J":{"ha":856,"x_min":114,"x_max":747,"o":"m 424 -17 q 238 36 318 -17 q 114 185 157 89 l 256 253 q 425 140 314 140 q 583 339 583 140 l 583 972 l 747 972 l 747 331 q 718 161 747 232 q 639 53 689 90 q 536 0 589 17 q 424 -17 483 -17 z "},"K":{"ha":856,"x_min":106,"x_max":815,"o":"m 622 0 l 363 488 l 271 374 l 271 0 l 106 0 l 106 972 l 271 972 l 271 606 l 560 972 l 753 972 l 474 626 l 815 0 l 622 0 z "},"L":{"ha":856,"x_min":106,"x_max":719,"o":"m 106 0 l 106 972 l 271 972 l 271 158 l 719 158 l 719 0 l 106 0 z "},"M":{"ha":856,"x_min":106,"x_max":750,"o":"m 106 0 l 106 972 l 267 972 l 407 439 q 431 343 426 367 q 454 439 436 388 l 599 972 l 750 972 l 750 0 l 607 0 l 607 528 q 610 608 607 589 l 583 528 l 435 0 l 421 0 l 272 528 l 246 608 q 249 528 249 569 l 249 0 l 106 0 z "},"N":{"ha":856,"x_min":106,"x_max":750,"o":"m 106 0 l 106 972 l 263 972 l 565 372 q 600 306 590 329 q 597 372 597 358 l 597 972 l 750 972 l 750 0 l 600 0 l 292 603 q 256 669 267 646 q 260 603 260 649 l 260 0 l 106 0 z "},"O":{"ha":856,"x_min":60,"x_max":797,"o":"m 428 -17 q 217 56 303 -17 q 96 239 132 129 q 60 486 60 349 q 96 733 60 624 q 217 916 132 843 q 428 989 303 989 q 567 962 504 989 q 672 888 629 935 q 742 776 714 840 q 784 639 771 711 q 797 486 797 567 q 784 333 797 406 q 742 197 771 261 q 672 85 714 132 q 567 10 629 38 q 428 -17 504 -17 m 428 140 q 539 192 493 140 q 605 319 585 243 q 625 486 625 394 q 576 734 625 636 q 428 832 526 832 q 281 731 331 832 q 231 486 231 631 q 280 239 231 338 q 428 140 329 140 z "},"P":{"ha":856,"x_min":106,"x_max":774,"o":"m 106 0 l 106 972 l 449 972 q 695 885 617 972 q 774 671 774 797 q 692 460 774 551 q 449 369 610 369 l 271 369 l 271 0 l 106 0 m 271 525 l 457 525 q 569 568 532 525 q 606 671 606 611 q 570 772 606 728 q 457 817 535 817 l 271 817 l 271 525 z "},"Q":{"ha":856,"x_min":60,"x_max":797,"o":"m 797 486 q 661 75 797 211 l 731 -29 l 610 -110 l 536 0 q 428 -17 489 -17 q 217 56 303 -17 q 96 239 132 129 q 60 486 60 349 q 96 733 60 624 q 217 916 132 843 q 428 989 303 989 q 567 962 504 989 q 672 888 629 935 q 742 776 714 840 q 784 639 771 711 q 797 486 797 567 m 428 140 l 442 140 l 374 242 l 497 322 l 564 222 q 625 486 625 319 q 576 734 625 636 q 428 832 526 832 q 281 731 331 832 q 231 486 231 631 q 280 239 231 338 q 428 140 329 140 z "},"R":{"ha":856,"x_min":106,"x_max":760,"o":"m 760 678 q 709 507 760 583 q 563 399 658 431 l 758 0 l 575 0 l 386 381 l 271 381 l 271 0 l 106 0 l 106 972 l 442 972 q 592 948 528 972 q 691 881 656 924 q 743 788 726 839 q 760 678 760 738 m 271 817 l 271 536 l 444 536 q 556 576 522 536 q 590 676 590 615 q 557 776 590 735 q 444 817 524 817 l 271 817 z "},"S":{"ha":856,"x_min":93,"x_max":761,"o":"m 439 -17 q 226 51 321 -17 q 93 233 132 119 l 243 289 q 331 180 275 221 q 453 139 388 139 q 556 172 517 139 q 594 268 594 206 q 542 362 594 321 q 394 444 489 403 q 299 490 335 471 q 217 544 263 510 q 150 626 172 579 q 128 732 128 674 q 210 915 128 840 q 428 989 293 989 q 615 931 535 989 q 721 782 694 872 l 572 732 q 418 833 522 833 q 329 806 364 833 q 294 729 294 778 q 297 708 294 718 q 307 688 300 697 q 320 672 314 679 q 340 655 326 664 q 362 640 353 646 q 389 626 371 635 q 417 613 407 617 q 449 598 426 608 q 481 583 471 588 q 578 534 539 557 q 664 474 617 511 q 736 385 711 436 q 761 272 761 333 q 667 61 761 139 q 439 -17 574 -17 z "},"T":{"ha":856,"x_min":63,"x_max":793,"o":"m 344 0 l 344 814 l 63 814 l 63 972 l 793 972 l 793 814 l 510 814 l 510 0 l 344 0 z "},"U":{"ha":856,"x_min":100,"x_max":757,"o":"m 428 -17 q 192 76 283 -17 q 100 371 100 168 l 100 972 l 264 972 l 264 371 q 307 192 264 244 q 428 140 350 140 q 592 371 592 140 l 592 972 l 757 972 l 757 371 q 665 77 757 171 q 428 -17 574 -17 z "},"V":{"ha":856,"x_min":32,"x_max":824,"o":"m 349 0 l 32 972 l 215 972 l 408 310 q 419 263 413 297 q 428 219 425 228 q 446 308 444 306 l 642 972 l 824 972 l 507 0 l 349 0 z "},"W":{"ha":856,"x_min":18,"x_max":838,"o":"m 161 0 l 18 972 l 167 972 l 243 393 q 247 374 244 388 q 250 348 249 360 q 253 325 251 336 q 267 394 256 343 l 383 972 l 472 972 l 590 397 q 604 329 603 336 q 610 368 606 343 q 614 396 614 393 l 681 972 l 838 972 l 693 0 l 563 0 l 439 594 q 426 665 431 638 q 420 628 425 653 q 414 596 415 604 l 292 0 l 161 0 z "},"X":{"ha":856,"x_min":50,"x_max":806,"o":"m 806 0 l 615 0 l 426 347 l 240 0 l 50 0 l 339 503 l 69 972 l 260 972 l 428 661 l 594 972 l 785 972 l 515 506 l 806 0 z "},"Y":{"ha":856,"x_min":60,"x_max":796,"o":"m 614 972 l 796 972 l 510 381 l 510 0 l 346 0 l 346 381 l 60 972 l 243 972 l 428 557 l 614 972 z "},"Z":{"ha":856,"x_min":100,"x_max":757,"o":"m 757 972 l 757 847 l 314 157 l 756 157 l 756 0 l 100 0 l 100 125 l 540 817 l 131 817 l 131 972 l 757 972 z "},"[":{"ha":856,"x_min":276,"x_max":631,"o":"m 276 -181 l 276 989 l 631 989 l 631 838 l 436 838 l 436 -29 l 631 -29 l 631 -181 l 276 -181 z "},"\\":{"ha":856,"x_min":88,"x_max":797,"o":"m 633 -181 l 88 989 l 251 989 l 797 -181 l 633 -181 z "},"]":{"ha":856,"x_min":256,"x_max":610,"o":"m 610 -181 l 256 -181 l 256 -29 l 449 -29 l 449 838 l 256 838 l 256 989 l 610 989 l 610 -181 z "},"^":{"ha":856,"x_min":96,"x_max":790,"o":"m 625 481 l 443 783 l 261 481 l 96 481 l 379 989 l 507 989 l 790 481 l 625 481 z "},"_":{"ha":856,"x_min":56,"x_max":800,"o":"m 56 -246 l 56 -115 l 800 -115 l 800 -246 l 56 -246 z "},"`":{"ha":856,"x_min":153,"x_max":556,"o":"m 400 800 l 153 1017 l 358 1017 l 556 800 l 400 800 z "},"a":{"ha":856,"x_min":111,"x_max":726,"o":"m 374 -17 q 184 44 257 -17 q 111 219 111 106 q 194 394 111 335 q 394 454 278 454 q 571 417 496 454 l 571 458 q 431 586 571 586 q 206 514 314 586 l 157 644 q 444 726 286 726 q 726 460 726 726 l 726 0 l 571 0 l 571 56 q 374 -17 496 -17 m 403 124 q 571 194 503 124 l 571 286 q 419 318 507 318 q 309 293 353 318 q 265 219 265 268 q 301 150 265 176 q 403 124 338 124 z "},"b":{"ha":856,"x_min":122,"x_max":765,"o":"m 463 -17 q 282 54 346 -17 l 282 0 l 122 0 l 122 929 l 282 1003 l 282 654 q 362 706 311 686 q 465 726 413 726 q 682 626 599 726 q 765 356 765 526 q 685 81 765 178 q 463 -17 604 -17 m 438 136 q 562 194 519 136 q 604 356 604 251 q 562 519 604 463 q 438 575 519 575 q 344 553 385 575 q 282 504 303 532 l 282 206 q 438 136 333 136 z "},"c":{"ha":856,"x_min":117,"x_max":740,"o":"m 442 -17 q 204 82 292 -17 q 117 354 117 181 q 206 626 117 526 q 444 726 296 726 q 736 533 671 726 l 585 482 q 446 575 549 575 q 323 515 367 575 q 279 354 279 456 q 323 194 279 253 q 443 136 367 136 q 589 240 554 136 l 740 193 q 442 -17 676 -17 z "},"d":{"ha":856,"x_min":90,"x_max":735,"o":"m 403 -17 q 174 81 257 -17 q 90 356 90 179 q 176 626 90 526 q 399 726 261 726 q 575 658 513 726 l 575 929 l 735 1003 l 735 0 l 575 0 l 575 54 q 506 4 553 25 q 403 -17 460 -17 m 425 136 q 575 206 529 136 l 575 506 q 422 575 525 575 q 296 518 340 575 q 251 356 251 461 q 297 196 251 256 q 425 136 342 136 z "},"e":{"ha":856,"x_min":104,"x_max":751,"o":"m 751 390 q 746 293 751 329 l 263 293 q 324 170 278 215 q 444 125 371 125 q 601 194 538 125 l 697 93 q 443 -17 597 -17 q 195 85 286 -17 q 104 356 104 186 q 196 627 104 528 q 443 726 288 726 q 665 641 579 726 q 751 390 751 556 m 261 429 l 594 429 q 545 547 588 507 q 443 586 503 586 q 320 544 367 586 q 261 429 274 503 z "},"f":{"ha":856,"x_min":165,"x_max":731,"o":"m 596 847 q 511 829 544 847 q 478 776 478 811 l 478 710 l 717 710 l 717 569 l 478 569 l 478 140 l 667 140 l 667 0 l 165 0 l 165 140 l 318 140 l 318 569 l 165 569 l 165 710 l 318 710 l 318 807 q 390 948 318 907 q 561 989 461 989 q 731 954 663 989 l 731 822 q 596 847 671 847 z "},"g":{"ha":856,"x_min":101,"x_max":721,"o":"m 386 -282 l 300 -151 q 505 -106 449 -140 q 561 7 561 -71 l 561 49 q 396 -17 504 -17 q 183 80 265 -17 q 101 356 101 176 q 183 626 101 526 q 399 726 265 726 q 561 665 500 726 l 561 710 l 721 710 l 721 75 q 645 -188 721 -107 q 386 -282 569 -269 m 424 136 q 561 208 514 136 l 561 504 q 424 575 511 575 q 303 519 344 575 q 261 356 261 463 q 303 195 261 254 q 424 136 346 136 z "},"h":{"ha":856,"x_min":117,"x_max":740,"o":"m 117 0 l 117 929 l 276 1003 l 276 640 q 478 726 346 726 q 667 656 594 726 q 740 433 740 586 l 740 0 l 581 0 l 581 400 q 540 533 581 492 q 433 575 499 575 q 320 535 364 575 q 276 403 276 494 l 276 0 l 117 0 z "},"i":{"ha":856,"x_min":158,"x_max":710,"o":"m 433 808 q 367 836 394 808 q 339 904 339 864 q 367 972 339 944 q 433 999 394 999 q 501 972 474 999 q 529 904 529 944 q 501 836 529 864 q 433 808 474 808 m 514 140 l 710 140 l 710 0 l 158 0 l 158 140 l 354 140 l 354 569 l 158 569 l 158 710 l 514 710 l 514 140 z "},"j":{"ha":856,"x_min":206,"x_max":606,"o":"m 510 808 q 443 836 471 808 q 415 904 415 864 q 442 972 415 944 q 510 999 469 999 q 578 972 550 999 q 606 904 606 944 q 578 836 606 864 q 510 808 550 808 m 590 710 l 590 18 q 519 -201 590 -131 q 286 -297 447 -271 l 206 -169 q 383 -110 335 -147 q 431 7 431 -72 l 431 569 l 235 569 l 235 710 l 590 710 z "},"k":{"ha":856,"x_min":122,"x_max":765,"o":"m 590 0 l 388 392 l 282 290 l 282 0 l 122 0 l 122 928 l 282 1003 l 282 467 l 529 710 l 719 710 l 506 504 l 765 0 l 590 0 z "},"l":{"ha":856,"x_min":108,"x_max":714,"o":"m 507 140 l 714 140 l 714 0 l 140 0 l 140 140 l 347 140 l 347 863 l 182 863 l 108 1003 l 507 1003 l 507 140 z "},"m":{"ha":856,"x_min":61,"x_max":794,"o":"m 621 726 q 752 665 710 726 q 794 457 794 603 l 794 0 l 649 0 l 649 433 q 635 541 649 508 q 583 574 621 574 q 526 536 547 574 q 504 432 504 499 l 504 0 l 358 0 l 358 438 q 292 574 358 574 q 230 536 253 574 q 207 432 207 499 l 207 0 l 61 0 l 61 710 l 197 710 l 197 615 q 338 726 236 726 q 416 696 382 726 q 464 624 450 665 q 621 726 528 726 z "},"n":{"ha":856,"x_min":117,"x_max":740,"o":"m 478 726 q 667 656 594 726 q 740 433 740 586 l 740 0 l 581 0 l 581 400 q 540 533 581 492 q 433 575 500 575 q 276 403 276 575 l 276 0 l 117 0 l 117 710 l 264 710 l 264 622 q 345 695 285 664 q 478 726 406 726 z "},"o":{"ha":856,"x_min":88,"x_max":768,"o":"m 428 -17 q 179 83 271 -17 q 88 354 88 182 q 179 626 88 525 q 428 726 271 726 q 677 626 586 726 q 768 354 768 525 q 677 83 768 183 q 428 -17 586 -17 m 428 136 q 560 194 514 136 q 607 354 607 253 q 560 515 607 456 q 428 575 514 575 q 296 515 343 575 q 249 354 249 456 q 296 195 249 254 q 428 136 343 136 z "},"p":{"ha":856,"x_min":122,"x_max":767,"o":"m 122 -279 l 122 710 l 282 710 l 282 656 q 456 726 347 726 q 683 628 599 726 q 767 354 767 529 q 680 83 767 183 q 457 -17 593 -17 q 282 57 346 -17 l 282 -206 l 122 -279 m 433 136 q 560 192 515 136 q 606 354 606 249 q 560 515 606 456 q 432 575 515 575 q 282 504 332 575 l 282 207 q 433 136 332 136 z "},"q":{"ha":856,"x_min":90,"x_max":735,"o":"m 575 -278 l 575 57 q 401 -17 514 -17 q 176 83 263 -17 q 90 354 90 182 q 176 628 90 529 q 406 726 261 726 q 575 656 513 726 l 575 710 l 735 710 l 735 -206 l 575 -278 m 422 136 q 575 207 525 136 l 575 504 q 425 575 528 575 q 297 515 343 575 q 251 354 251 454 q 295 192 251 249 q 422 136 339 136 z "},"r":{"ha":856,"x_min":71,"x_max":779,"o":"m 613 726 q 779 689 708 726 l 779 426 l 624 426 l 624 578 l 610 578 q 440 526 500 578 q 381 372 381 475 l 381 140 l 579 140 l 579 0 l 71 0 l 71 140 l 221 140 l 221 569 l 71 569 l 71 710 l 369 710 l 369 596 q 465 692 399 657 q 613 726 532 726 z "},"s":{"ha":856,"x_min":143,"x_max":707,"o":"m 432 -17 q 265 17 342 -17 q 143 110 189 51 l 247 204 q 440 119 335 119 q 525 138 492 119 q 558 192 558 156 q 538 231 558 213 q 492 263 518 250 q 414 296 465 275 q 405 300 408 299 q 396 303 401 301 q 386 307 390 306 q 310 341 335 329 q 249 374 285 353 q 198 415 214 396 q 169 465 182 435 q 157 532 157 494 q 235 674 157 622 q 431 726 313 726 q 696 614 596 726 l 589 526 q 425 590 513 590 q 338 574 371 590 q 306 529 306 558 q 317 502 306 515 q 356 474 328 489 q 401 452 383 460 q 463 428 419 444 q 632 344 590 376 q 707 193 706 286 q 633 39 707 94 q 432 -17 558 -17 z "},"t":{"ha":856,"x_min":136,"x_max":686,"o":"m 493 -17 q 285 176 285 -17 l 285 569 l 136 569 l 136 710 l 285 710 l 285 926 l 444 1003 l 444 710 l 686 710 l 686 569 l 444 569 l 444 207 q 544 125 444 125 q 667 158 603 125 l 647 15 q 493 -17 586 -17 z "},"u":{"ha":856,"x_min":117,"x_max":739,"o":"m 381 -17 q 190 53 263 -17 q 117 278 117 124 l 117 710 l 276 710 l 276 313 q 422 136 276 136 q 579 310 579 136 l 579 710 l 739 710 l 739 0 l 579 0 l 579 68 q 381 -17 511 -17 z "},"v":{"ha":856,"x_min":74,"x_max":782,"o":"m 350 0 l 74 710 l 244 710 l 408 260 q 429 183 424 213 q 450 260 436 221 l 613 710 l 782 710 l 506 0 l 350 0 z "},"w":{"ha":856,"x_min":21,"x_max":835,"o":"m 203 0 l 21 710 l 165 710 l 256 344 q 269 275 265 303 q 282 346 278 325 l 367 710 l 489 710 l 574 344 q 588 274 581 322 q 601 344 592 303 l 689 710 l 835 710 l 651 0 l 529 0 l 447 356 q 428 453 439 389 q 416 397 425 435 q 406 356 407 358 l 328 0 l 203 0 z "},"x":{"ha":856,"x_min":76,"x_max":778,"o":"m 76 0 l 336 368 l 94 710 l 278 710 l 389 553 q 426 492 422 503 q 465 553 456 540 l 576 710 l 760 710 l 519 368 l 778 0 l 594 0 l 465 182 q 426 243 456 194 q 389 182 422 232 l 261 0 l 76 0 z "},"y":{"ha":856,"x_min":81,"x_max":775,"o":"m 238 -269 l 346 13 l 81 710 l 243 710 l 406 276 q 426 210 417 249 q 433 231 429 219 q 442 256 438 243 q 449 276 446 269 l 611 710 l 775 710 l 403 -269 l 238 -269 z "},"z":{"ha":856,"x_min":136,"x_max":719,"o":"m 136 0 l 136 121 l 515 567 l 163 567 l 163 710 l 719 710 l 719 592 l 340 143 l 718 143 l 718 0 l 136 0 z "},"{":{"ha":856,"x_min":199,"x_max":657,"o":"m 608 -181 q 385 -95 467 -178 q 303 143 303 -12 l 303 231 q 285 306 303 278 q 235 333 267 333 l 199 333 l 199 476 l 235 476 q 285 504 267 476 q 303 579 303 532 l 303 664 q 385 902 303 819 q 608 989 467 985 l 657 989 l 657 844 l 608 844 q 464 689 464 839 l 464 594 q 436 464 464 507 q 354 407 408 421 l 354 401 q 464 214 464 372 l 464 119 q 608 -37 464 -33 l 657 -37 l 657 -181 l 608 -181 z "},"|":{"ha":856,"x_min":349,"x_max":508,"o":"m 349 -525 l 349 1475 l 508 1475 l 508 -525 l 349 -525 z "},"}":{"ha":856,"x_min":199,"x_max":657,"o":"m 199 -181 l 199 -37 l 247 -37 q 392 119 392 -33 l 392 214 q 501 401 392 372 l 501 407 q 392 594 392 436 l 392 689 q 247 844 392 839 l 199 844 l 199 989 l 247 989 q 472 903 390 985 q 553 664 553 821 l 553 579 q 571 504 553 532 q 621 476 589 476 l 657 476 l 657 333 l 621 333 q 571 306 589 333 q 553 231 553 278 l 553 143 q 471 -95 553 -12 q 247 -181 389 -178 l 199 -181 z "},"~":{"ha":856,"x_min":115,"x_max":769,"o":"m 579 360 q 429 399 515 360 q 311 438 343 438 q 236 360 246 438 l 115 360 q 163 526 115 460 q 307 593 210 593 q 456 554 371 593 q 574 515 540 515 q 649 593 642 515 l 769 593 q 723 426 769 492 q 579 360 676 360 z "}," ":{"ha":856,"x_min":0,"x_max":0,"o":""},"¡":{"ha":856,"x_min":315,"x_max":540,"o":"m 508 538 q 492 521 508 538 q 429 504 476 504 q 349 538 382 504 q 315 617 315 571 q 349 694 315 661 q 429 726 382 726 q 508 694 476 726 q 540 617 540 663 q 508 538 540 571 m 349 -278 l 349 32 l 388 442 l 469 442 l 508 32 l 508 -278 l 349 -278 z "},"¢":{"ha":856,"x_min":128,"x_max":726,"o":"m 351 -17 l 351 128 q 187 249 246 156 q 128 486 128 342 q 187 724 128 629 q 351 846 246 818 l 351 989 l 506 989 l 506 853 q 724 664 671 829 l 571 613 q 449 704 536 704 q 333 646 375 704 q 292 486 292 588 q 333 327 292 385 q 444 269 374 269 q 574 374 542 269 l 726 326 q 506 121 676 149 l 506 -17 l 351 -17 z "},"£":{"ha":856,"x_min":115,"x_max":771,"o":"m 121 0 l 121 157 q 233 356 215 200 q 236 385 236 375 l 115 385 l 115 529 l 199 529 q 156 706 156 624 q 237 906 156 822 q 469 989 318 989 q 763 889 625 989 l 700 738 q 642 782 664 767 q 572 815 621 797 q 469 833 522 833 q 359 796 397 833 q 321 706 321 758 q 326 665 321 686 q 338 628 332 643 q 357 581 343 613 q 378 529 371 549 l 590 529 l 590 385 l 401 385 q 400 357 401 367 q 314 156 389 243 l 771 156 l 771 0 l 121 0 z "},"¤":{"ha":856,"x_min":35,"x_max":821,"o":"m 608 167 q 428 118 529 118 q 249 165 326 118 l 154 69 l 35 189 l 133 289 q 96 463 96 361 q 136 638 96 560 l 35 739 l 150 854 l 246 760 q 428 807 326 807 q 607 760 528 807 l 701 854 l 821 735 l 722 636 q 760 463 760 558 q 719 285 760 361 l 821 185 l 706 69 l 608 167 m 428 274 q 551 326 504 274 q 597 463 597 379 q 551 598 597 544 q 428 651 504 651 q 306 598 353 651 q 260 463 260 544 q 306 326 260 379 q 428 274 353 274 z "},"¥":{"ha":856,"x_min":40,"x_max":815,"o":"m 525 465 l 701 465 l 701 343 l 508 343 l 508 253 l 701 253 l 701 129 l 508 129 l 508 0 l 349 0 l 349 129 l 150 129 l 150 253 l 349 253 l 349 343 l 150 343 l 150 465 l 331 465 l 40 972 l 224 972 l 428 600 l 632 972 l 815 972 l 525 465 z "},"¦":{"ha":856,"x_min":349,"x_max":508,"o":"m 349 508 l 349 1146 l 508 1146 l 508 508 l 349 508 m 349 -312 l 349 325 l 508 325 l 508 -312 l 349 -312 z "},"§":{"ha":856,"x_min":132,"x_max":724,"o":"m 432 -167 q 257 -131 335 -167 q 132 -35 179 -96 l 249 65 q 432 -12 326 -12 q 557 71 557 -12 q 552 97 557 85 q 535 119 547 108 q 512 139 522 131 q 477 159 501 147 q 440 177 453 171 q 394 197 426 183 q 349 217 363 210 q 272 253 299 239 q 212 293 246 267 q 163 354 178 319 q 147 436 147 389 q 238 586 147 535 q 147 761 147 653 q 225 928 147 868 q 424 989 303 989 q 696 869 599 989 l 575 772 q 424 835 513 835 q 344 815 374 835 q 314 763 314 796 q 360 701 314 728 q 501 638 406 674 q 585 601 554 617 q 653 557 617 585 q 706 490 689 529 q 724 400 724 451 q 646 249 724 300 q 724 75 724 183 q 647 -103 724 -39 q 432 -167 569 -167 m 518 324 q 557 386 557 340 q 513 453 557 426 q 379 510 468 479 q 314 449 314 499 q 317 432 314 440 q 326 416 319 424 q 340 402 333 408 q 360 389 347 396 q 385 377 374 382 q 414 365 396 372 q 445 352 432 357 q 481 338 458 347 q 518 324 503 329 z "},"¨":{"ha":856,"x_min":208,"x_max":649,"o":"m 366 842 q 352 829 366 842 q 300 815 339 815 q 235 842 261 815 q 208 908 208 868 q 235 974 208 947 q 300 1000 261 1000 q 366 974 339 1000 q 393 908 393 947 q 366 842 393 869 m 622 842 q 608 829 622 842 q 556 815 594 815 q 490 842 517 815 q 464 908 464 868 q 490 974 464 947 q 556 1000 517 1000 q 622 974 594 1000 q 649 908 649 947 q 622 842 649 869 z "},"©":{"ha":856,"x_min":22,"x_max":833,"o":"m 717 128 q 658 56 717 128 q 428 -17 600 -17 q 139 128 256 -17 q 22 486 22 272 q 139 844 22 700 q 428 989 256 989 q 717 844 600 989 q 833 486 833 700 q 717 128 833 272 m 220 205 q 261 148 220 205 q 428 92 303 92 q 635 205 553 92 q 717 486 717 318 q 635 768 717 656 q 428 881 553 881 q 220 768 303 881 q 138 486 138 656 q 220 205 138 318 m 432 196 q 260 279 318 196 q 203 488 203 363 q 263 693 203 606 q 435 781 322 781 q 624 650 568 781 l 511 597 q 432 660 485 660 q 356 610 381 660 q 331 488 331 560 q 357 365 331 415 q 433 315 383 315 q 514 382 493 315 l 625 342 q 432 196 569 196 z "},"ª":{"ha":856,"x_min":185,"x_max":669,"o":"m 536 393 l 536 435 q 389 379 483 379 q 242 430 300 379 q 185 574 185 481 q 251 718 185 668 q 406 768 317 768 q 536 739 481 768 l 536 765 q 510 846 536 821 q 429 871 483 871 q 264 814 336 871 l 224 925 q 444 989 314 989 q 523 981 489 989 q 593 953 557 974 q 649 885 629 932 q 669 768 669 838 l 669 393 l 536 393 m 415 497 q 536 549 488 497 l 536 628 q 429 651 486 651 q 318 574 318 651 q 344 518 318 539 q 415 497 369 497 z "},"«":{"ha":856,"x_min":83,"x_max":771,"o":"m 294 0 l 83 356 l 294 710 l 467 710 l 256 356 l 467 0 l 294 0 m 597 0 l 386 356 l 597 710 l 771 710 l 560 356 l 771 0 l 597 0 z "},"¬":{"ha":856,"x_min":101,"x_max":754,"o":"m 594 229 l 594 507 l 101 507 l 101 661 l 754 661 l 754 229 l 594 229 z "},"­":{"ha":856,"x_min":101,"x_max":754,"o":"m 101 335 l 101 489 l 754 489 l 754 335 l 101 335 z "},"®":{"ha":856,"x_min":22,"x_max":833,"o":"m 139 844 q 197 917 139 844 q 428 989 256 989 q 717 844 600 989 q 833 486 833 700 q 717 128 833 272 q 428 -17 600 -17 q 139 128 256 -17 q 22 486 22 272 q 139 844 22 700 m 220 205 q 261 148 220 205 q 428 92 303 92 q 635 205 553 92 q 717 486 717 318 q 635 768 717 656 q 428 881 553 881 q 220 768 303 881 q 138 486 138 656 q 220 205 138 318 m 640 586 q 531 429 640 475 l 628 228 l 489 228 l 410 410 l 365 410 l 365 228 l 242 228 l 242 751 l 454 751 q 596 702 551 751 q 640 586 640 653 m 365 643 l 365 526 l 456 526 q 500 544 485 526 q 515 586 515 561 q 501 625 515 607 q 456 643 486 643 l 365 643 z "},"¯":{"ha":856,"x_min":199,"x_max":657,"o":"m 199 824 l 199 954 l 657 954 l 657 824 l 199 824 z "},"°":{"ha":856,"x_min":181,"x_max":675,"o":"m 603 693 q 568 658 603 693 q 428 622 532 622 q 252 693 324 622 q 181 868 181 764 q 252 1041 181 971 q 428 1111 324 1111 q 603 1041 532 1111 q 675 868 675 971 q 603 693 675 764 m 428 763 q 498 792 471 763 q 525 868 525 822 q 498 941 525 913 q 428 969 471 969 q 358 940 386 969 q 331 868 331 911 q 358 793 331 824 q 428 763 386 763 z "},"±":{"ha":856,"x_min":101,"x_max":754,"o":"m 508 481 l 508 271 l 347 271 l 347 481 l 101 481 l 101 635 l 347 635 l 347 844 l 508 844 l 508 635 l 754 635 l 754 481 l 508 481 m 101 0 l 101 154 l 754 154 l 754 0 l 101 0 z "},"²":{"ha":856,"x_min":239,"x_max":613,"o":"m 239 839 q 264 944 239 900 q 324 1012 289 989 q 394 1050 358 1035 q 454 1078 429 1065 q 479 1108 479 1092 q 431 1140 479 1140 q 354 1083 371 1140 l 240 1107 q 310 1194 258 1161 q 438 1226 363 1226 q 564 1194 515 1226 q 613 1106 613 1161 q 580 1036 613 1065 q 507 993 547 1007 q 428 962 467 979 q 382 926 390 944 l 611 926 l 611 839 l 239 839 z "},"³":{"ha":856,"x_min":236,"x_max":618,"o":"m 432 826 q 236 936 285 826 l 354 961 q 435 910 374 910 q 474 922 460 910 q 489 954 489 935 q 424 992 489 992 l 386 992 l 386 1072 l 419 1072 q 469 1106 469 1072 q 458 1131 469 1121 q 426 1142 446 1142 q 361 1101 382 1142 l 253 1131 q 324 1200 276 1175 q 435 1225 372 1225 q 553 1194 508 1225 q 597 1115 597 1163 q 577 1066 597 1088 q 526 1035 557 1044 q 618 946 618 1014 q 569 860 618 893 q 432 826 519 826 z "},"´":{"ha":856,"x_min":318,"x_max":721,"o":"m 318 800 l 515 1017 l 721 1017 l 474 800 l 318 800 z "},"µ":{"ha":856,"x_min":129,"x_max":726,"o":"m 567 0 l 567 67 q 407 -17 508 -17 q 289 31 329 -17 l 289 -203 l 129 -278 l 129 710 l 289 710 l 289 289 q 422 136 289 136 q 567 286 567 136 l 567 710 l 726 710 l 726 0 l 567 0 z "},"¶":{"ha":856,"x_min":56,"x_max":800,"o":"m 639 -160 l 639 818 l 528 818 l 528 -206 l 368 -278 l 368 382 q 133 474 211 386 q 56 676 56 561 q 133 886 56 800 q 376 972 211 972 l 800 972 l 800 -86 l 639 -160 z "},"·":{"ha":856,"x_min":318,"x_max":538,"o":"m 426 378 q 349 409 381 378 q 318 485 318 440 q 349 561 318 529 q 426 593 381 593 q 505 561 472 593 q 538 485 538 529 q 506 409 538 440 q 426 378 474 378 z "},"¸":{"ha":856,"x_min":265,"x_max":590,"o":"m 410 -336 q 265 -276 313 -336 l 339 -222 q 394 -246 356 -246 q 444 -230 425 -246 q 463 -187 463 -214 q 442 -147 463 -162 q 390 -131 422 -131 q 333 -147 358 -131 l 301 -107 l 400 14 l 486 14 l 436 -67 q 551 -101 513 -67 q 590 -189 590 -135 q 542 -295 590 -254 q 410 -336 493 -336 z "},"¹":{"ha":856,"x_min":297,"x_max":497,"o":"m 367 838 l 367 1065 l 297 1065 l 297 1167 q 397 1215 375 1167 l 497 1215 l 497 838 l 367 838 z "},"º":{"ha":856,"x_min":161,"x_max":693,"o":"m 622 460 q 586 419 622 460 q 428 379 550 379 q 233 460 306 379 q 161 683 161 540 q 233 907 161 825 q 428 989 306 989 q 622 907 550 989 q 693 683 693 825 q 622 460 693 540 m 331 554 q 348 531 331 554 q 428 508 365 508 q 524 554 490 508 q 558 683 558 600 q 524 813 558 767 q 428 860 490 860 q 331 813 365 860 q 297 683 297 767 q 331 554 297 600 z "},"»":{"ha":856,"x_min":83,"x_max":771,"o":"m 83 0 l 294 356 l 83 710 l 256 710 l 467 356 l 256 0 l 83 0 m 386 0 l 597 356 l 386 710 l 560 710 l 771 356 l 560 0 l 386 0 z "},"¼":{"ha":856,"x_min":53,"x_max":804,"o":"m 367 601 l 367 829 l 297 829 l 297 931 q 397 979 375 931 l 497 979 l 497 601 l 367 601 m 53 432 l 53 551 l 804 551 l 804 432 l 53 432 m 453 0 l 453 75 l 207 75 l 207 136 l 456 378 l 574 378 l 574 156 l 649 156 l 649 75 l 574 75 l 574 0 l 453 0 m 453 156 l 453 267 l 340 156 l 453 156 z "},"½":{"ha":856,"x_min":53,"x_max":804,"o":"m 367 601 l 367 829 l 297 829 l 297 931 q 397 979 375 931 l 497 979 l 497 601 l 367 601 m 53 432 l 53 551 l 804 551 l 804 432 l 53 432 m 239 0 q 264 106 239 61 q 324 173 289 150 q 394 211 358 196 q 454 240 429 226 q 479 269 479 253 q 431 301 479 301 q 354 244 371 301 l 240 268 q 310 355 258 322 q 438 388 363 388 q 564 355 515 388 q 613 267 613 322 q 580 197 613 226 q 507 154 547 168 q 428 123 467 140 q 382 88 390 106 l 611 88 l 611 0 l 239 0 z "},"¾":{"ha":856,"x_min":53,"x_max":804,"o":"m 432 590 q 236 700 285 590 l 354 725 q 435 674 374 674 q 474 686 460 674 q 489 718 489 699 q 424 756 489 756 l 386 756 l 386 836 l 419 836 q 469 869 469 836 q 458 895 469 885 q 426 906 446 906 q 361 865 382 906 l 253 894 q 324 964 276 939 q 435 989 372 989 q 553 958 508 989 q 597 879 597 926 q 577 830 597 851 q 526 799 557 808 q 618 710 618 778 q 569 624 618 657 q 432 590 519 590 m 53 432 l 53 551 l 804 551 l 804 432 l 53 432 m 453 0 l 453 75 l 207 75 l 207 136 l 456 378 l 574 378 l 574 156 l 649 156 l 649 75 l 574 75 l 574 0 l 453 0 m 453 156 l 453 267 l 340 156 l 453 156 z "},"¿":{"ha":856,"x_min":117,"x_max":739,"o":"m 429 511 q 351 543 383 511 q 319 619 319 575 q 351 694 319 663 q 429 726 383 726 q 508 694 476 726 q 540 619 540 663 q 508 543 540 575 q 429 511 476 511 m 415 -278 q 195 -201 274 -278 q 117 0 117 -124 q 141 110 117 63 q 199 189 165 158 q 267 248 233 219 q 326 317 301 276 q 350 411 350 358 l 350 456 l 510 456 l 510 410 q 485 283 510 338 q 427 198 461 229 q 359 140 393 167 q 301 78 325 113 q 276 0 276 43 q 313 -91 276 -56 q 415 -126 350 -126 q 536 -80 494 -126 q 578 53 578 -33 l 739 53 q 650 -190 739 -101 q 415 -278 561 -278 z "},"À":{"ha":856,"x_min":32,"x_max":824,"o":"m 515 1064 l 360 1064 l 113 1281 l 318 1281 l 515 1064 m 646 0 l 582 214 l 274 214 l 210 0 l 32 0 l 350 972 l 506 972 l 824 0 l 646 0 m 318 364 l 538 364 l 451 653 q 428 761 438 697 q 404 653 411 676 l 318 364 z "},"Á":{"ha":856,"x_min":32,"x_max":824,"o":"m 708 1281 l 461 1064 l 306 1064 l 503 1281 l 708 1281 m 646 0 l 582 214 l 274 214 l 210 0 l 32 0 l 350 972 l 506 972 l 824 0 l 646 0 m 318 364 l 538 364 l 451 653 q 428 761 438 697 q 404 653 411 676 l 318 364 z "},"Â":{"ha":856,"x_min":32,"x_max":824,"o":"m 426 1171 l 299 1064 l 151 1064 l 349 1281 l 506 1281 l 701 1064 l 554 1064 l 426 1171 m 646 0 l 582 214 l 274 214 l 210 0 l 32 0 l 350 972 l 506 972 l 824 0 l 646 0 m 318 364 l 538 364 l 451 653 q 428 761 438 697 q 404 653 411 676 l 318 364 z "},"Ã":{"ha":856,"x_min":32,"x_max":824,"o":"m 308 1146 q 243 1086 244 1146 l 167 1086 q 318 1268 167 1268 q 444 1235 372 1268 q 547 1203 515 1203 q 613 1263 611 1203 l 689 1263 q 538 1081 689 1081 q 412 1113 485 1081 q 308 1146 339 1146 m 646 0 l 582 214 l 274 214 l 210 0 l 32 0 l 350 972 l 506 972 l 824 0 l 646 0 m 318 364 l 538 364 l 451 653 q 428 761 438 697 q 404 653 411 676 l 318 364 z "},"Ä":{"ha":856,"x_min":32,"x_max":824,"o":"m 299 1079 q 233 1106 260 1079 q 207 1172 207 1132 q 233 1238 207 1211 q 299 1264 260 1264 q 365 1238 338 1264 q 392 1172 392 1211 q 365 1106 392 1133 q 299 1079 339 1079 m 554 1079 q 489 1106 515 1079 q 463 1172 463 1132 q 489 1238 463 1211 q 554 1264 515 1264 q 620 1238 593 1264 q 647 1172 647 1211 q 621 1106 647 1133 q 554 1079 594 1079 m 646 0 l 582 214 l 274 214 l 210 0 l 32 0 l 350 972 l 506 972 l 824 0 l 646 0 m 318 364 l 538 364 l 451 653 q 428 761 438 697 q 404 653 411 676 l 318 364 z "},"Å":{"ha":856,"x_min":32,"x_max":824,"o":"m 646 0 l 582 214 l 274 214 l 210 0 l 32 0 l 326 900 q 253 1042 253 953 q 304 1164 253 1114 q 428 1214 356 1214 q 552 1164 501 1214 q 603 1042 603 1114 q 529 900 603 953 l 824 0 l 646 0 m 428 1104 q 385 1087 401 1104 q 368 1042 368 1069 q 385 997 368 1014 q 428 979 401 979 q 470 997 453 979 q 488 1042 488 1015 q 470 1086 488 1068 q 428 1104 453 1104 m 318 364 l 538 364 l 451 653 q 428 761 438 697 q 404 653 411 676 l 318 364 z "},"Æ":{"ha":856,"x_min":0,"x_max":850,"o":"m 618 154 l 850 154 l 850 0 l 464 0 l 464 214 l 261 214 l 176 0 l 0 0 l 406 972 l 821 972 l 821 819 l 618 819 l 618 578 l 765 578 l 765 426 l 618 426 l 618 154 m 321 364 l 464 365 l 464 740 q 456 715 463 735 q 444 679 450 696 q 435 653 439 663 l 321 364 z "},"Ç":{"ha":856,"x_min":60,"x_max":750,"o":"m 750 210 q 476 -14 667 3 l 443 -67 q 558 -101 519 -67 q 597 -189 597 -135 q 549 -295 597 -254 q 417 -336 500 -336 q 272 -276 319 -336 l 346 -222 q 401 -246 363 -246 q 451 -230 432 -246 q 469 -187 469 -214 q 449 -147 469 -162 q 397 -131 429 -131 q 340 -147 365 -131 l 308 -107 l 386 -11 q 235 49 300 1 q 133 167 171 96 q 78 317 96 238 q 60 486 60 397 q 81 663 60 578 q 147 823 103 749 q 268 942 192 897 q 444 988 344 988 q 635 929 558 988 q 746 785 711 871 l 599 714 q 533 801 568 772 q 444 831 497 831 q 319 775 369 831 q 250 645 269 719 q 231 486 231 571 q 286 245 231 349 q 444 142 342 142 q 600 267 542 142 l 750 210 z "},"È":{"ha":856,"x_min":106,"x_max":758,"o":"m 376 1064 l 129 1281 l 335 1281 l 532 1064 l 376 1064 m 106 0 l 106 972 l 729 972 l 729 815 l 271 815 l 271 581 l 569 581 l 569 424 l 271 424 l 271 157 l 758 157 l 758 0 l 106 0 z "},"É":{"ha":856,"x_min":106,"x_max":758,"o":"m 314 1065 l 511 1282 l 718 1282 l 471 1065 l 314 1065 m 106 0 l 106 972 l 729 972 l 729 815 l 271 815 l 271 581 l 569 581 l 569 424 l 271 424 l 271 157 l 758 157 l 758 0 l 106 0 z "},"Ê":{"ha":856,"x_min":106,"x_max":758,"o":"m 543 1064 l 415 1171 l 288 1064 l 140 1064 l 338 1281 l 494 1281 l 690 1064 l 543 1064 m 106 0 l 106 972 l 729 972 l 729 815 l 271 815 l 271 581 l 569 581 l 569 424 l 271 424 l 271 157 l 758 157 l 758 0 l 106 0 z "},"Ë":{"ha":856,"x_min":106,"x_max":758,"o":"m 288 1079 q 222 1106 249 1079 q 196 1172 196 1132 q 222 1238 196 1211 q 288 1264 249 1264 q 353 1238 326 1264 q 381 1172 381 1211 q 354 1106 381 1133 q 288 1079 328 1079 m 543 1079 q 478 1106 504 1079 q 451 1172 451 1132 q 478 1238 451 1211 q 543 1264 504 1264 q 609 1238 582 1264 q 636 1172 636 1211 q 610 1106 636 1133 q 543 1079 583 1079 m 106 0 l 106 972 l 729 972 l 729 815 l 271 815 l 271 581 l 569 581 l 569 424 l 271 424 l 271 157 l 758 157 l 758 0 l 106 0 z "},"Ì":{"ha":856,"x_min":111,"x_max":714,"o":"m 514 1064 l 358 1064 l 111 1281 l 317 1281 l 514 1064 m 714 826 l 510 826 l 510 146 l 714 146 l 714 0 l 142 0 l 142 146 l 344 146 l 344 826 l 142 826 l 142 972 l 714 972 l 714 826 z "},"Í":{"ha":856,"x_min":142,"x_max":731,"o":"m 731 1282 l 483 1065 l 326 1065 l 524 1282 l 731 1282 m 714 972 l 714 826 l 510 826 l 510 146 l 714 146 l 714 0 l 142 0 l 142 146 l 344 146 l 344 826 l 142 826 l 142 972 l 714 972 z "},"Î":{"ha":856,"x_min":142,"x_max":714,"o":"m 428 1171 l 300 1064 l 153 1064 l 350 1281 l 507 1281 l 703 1064 l 556 1064 l 428 1171 m 714 826 l 510 826 l 510 146 l 714 146 l 714 0 l 142 0 l 142 146 l 344 146 l 344 826 l 142 826 l 142 972 l 714 972 l 714 826 z "},"Ï":{"ha":856,"x_min":142,"x_max":714,"o":"m 366 1106 q 352 1093 366 1106 q 300 1079 339 1079 q 235 1106 261 1079 q 208 1172 208 1132 q 235 1238 208 1211 q 300 1264 261 1264 q 366 1238 339 1264 q 393 1172 393 1211 q 366 1106 393 1133 m 622 1106 q 608 1093 622 1106 q 556 1079 594 1079 q 490 1106 517 1079 q 464 1172 464 1132 q 490 1238 464 1211 q 556 1264 517 1264 q 622 1238 594 1264 q 649 1172 649 1211 q 622 1106 649 1133 m 714 826 l 510 826 l 510 146 l 714 146 l 714 0 l 142 0 l 142 146 l 344 146 l 344 826 l 142 826 l 142 972 l 714 972 l 714 826 z "},"Ð":{"ha":856,"x_min":25,"x_max":797,"o":"m 350 972 q 521 944 444 972 q 648 871 597 917 q 733 762 699 825 q 782 630 767 699 q 797 486 797 561 q 783 350 797 417 q 736 219 769 283 q 652 106 703 154 q 522 29 601 58 q 344 0 443 0 l 106 0 l 106 410 l 25 410 l 25 563 l 106 563 l 106 972 l 350 972 m 361 156 q 485 185 432 156 q 568 263 539 214 q 611 369 597 313 q 625 486 625 425 q 563 719 625 622 q 376 817 500 817 l 271 817 l 271 563 l 465 563 l 465 410 l 271 410 l 271 156 l 361 156 z "},"Ñ":{"ha":856,"x_min":106,"x_max":750,"o":"m 538 1081 q 412 1113 485 1081 q 308 1146 339 1146 q 243 1086 244 1146 l 167 1086 q 318 1268 167 1268 q 444 1235 372 1268 q 547 1203 515 1203 q 613 1263 611 1203 l 689 1263 q 538 1081 689 1081 m 106 0 l 106 972 l 263 972 l 565 372 q 600 306 590 329 q 597 372 597 358 l 597 972 l 750 972 l 750 0 l 600 0 l 292 603 q 256 669 267 646 q 260 603 260 649 l 260 0 l 106 0 z "},"Ò":{"ha":856,"x_min":60,"x_max":797,"o":"m 375 1064 l 128 1281 l 333 1281 l 531 1064 l 375 1064 m 428 -17 q 217 56 303 -17 q 96 239 132 129 q 60 486 60 349 q 96 733 60 624 q 217 916 132 843 q 428 989 303 989 q 567 962 504 989 q 672 888 629 935 q 742 776 714 840 q 784 639 771 711 q 797 486 797 567 q 784 333 797 406 q 742 197 771 261 q 672 85 714 132 q 567 10 629 38 q 428 -17 504 -17 m 428 140 q 539 192 493 140 q 605 319 585 243 q 625 486 625 394 q 576 734 625 636 q 428 832 526 832 q 281 731 331 832 q 231 486 231 631 q 280 239 231 338 q 428 140 329 140 z "},"Ó":{"ha":856,"x_min":60,"x_max":797,"o":"m 331 1064 l 528 1281 l 733 1281 l 486 1064 l 331 1064 m 428 -17 q 217 56 303 -17 q 96 239 132 129 q 60 486 60 349 q 96 733 60 624 q 217 916 132 843 q 428 989 303 989 q 567 962 504 989 q 672 888 629 935 q 742 776 714 840 q 784 639 771 711 q 797 486 797 567 q 784 333 797 406 q 742 197 771 261 q 672 85 714 132 q 567 10 629 38 q 428 -17 504 -17 m 428 140 q 539 192 493 140 q 605 319 585 243 q 625 486 625 394 q 576 734 625 636 q 428 832 526 832 q 281 731 331 832 q 231 486 231 631 q 280 239 231 338 q 428 140 329 140 z "},"Ô":{"ha":856,"x_min":60,"x_max":797,"o":"m 556 1064 l 428 1171 l 300 1064 l 153 1064 l 350 1281 l 507 1281 l 703 1064 l 556 1064 m 428 -17 q 217 56 303 -17 q 96 239 132 129 q 60 486 60 349 q 96 733 60 624 q 217 916 132 843 q 428 989 303 989 q 567 962 504 989 q 672 888 629 935 q 742 776 714 840 q 784 639 771 711 q 797 486 797 567 q 784 333 797 406 q 742 197 771 261 q 672 85 714 132 q 567 10 629 38 q 428 -17 504 -17 m 428 140 q 539 192 493 140 q 605 319 585 243 q 625 486 625 394 q 576 734 625 636 q 428 832 526 832 q 281 731 331 832 q 231 486 231 631 q 280 239 231 338 q 428 140 329 140 z "},"Õ":{"ha":856,"x_min":60,"x_max":797,"o":"m 538 1079 q 412 1112 485 1079 q 308 1144 339 1144 q 243 1085 244 1144 l 167 1085 q 318 1267 167 1267 q 444 1234 372 1267 q 547 1201 515 1201 q 613 1261 611 1201 l 689 1261 q 538 1079 689 1079 m 428 -17 q 217 56 303 -17 q 96 239 132 129 q 60 486 60 349 q 96 733 60 624 q 217 916 132 843 q 428 989 303 989 q 567 962 504 989 q 672 888 629 935 q 742 776 714 840 q 784 639 771 711 q 797 486 797 567 q 784 333 797 406 q 742 197 771 261 q 672 85 714 132 q 567 10 629 38 q 428 -17 504 -17 m 428 140 q 539 192 493 140 q 605 319 585 243 q 625 486 625 394 q 576 734 625 636 q 428 832 526 832 q 281 731 331 832 q 231 486 231 631 q 280 239 231 338 q 428 140 329 140 z "},"Ö":{"ha":856,"x_min":60,"x_max":797,"o":"m 366 1106 q 352 1093 366 1106 q 300 1079 339 1079 q 235 1106 261 1079 q 208 1172 208 1132 q 235 1238 208 1211 q 300 1264 261 1264 q 366 1238 339 1264 q 393 1172 393 1211 q 366 1106 393 1133 m 622 1106 q 608 1093 622 1106 q 556 1079 594 1079 q 490 1106 517 1079 q 464 1172 464 1132 q 490 1238 464 1211 q 556 1264 517 1264 q 622 1238 594 1264 q 649 1172 649 1211 q 622 1106 649 1133 m 428 -17 q 217 56 303 -17 q 96 239 132 129 q 60 486 60 349 q 96 733 60 624 q 217 916 132 843 q 428 989 303 989 q 567 962 504 989 q 672 888 629 935 q 742 776 714 840 q 784 639 771 711 q 797 486 797 567 q 784 333 797 406 q 742 197 771 261 q 672 85 714 132 q 567 10 629 38 q 428 -17 504 -17 m 428 140 q 539 192 493 140 q 605 319 585 243 q 625 486 625 394 q 576 734 625 636 q 428 832 526 832 q 281 731 331 832 q 231 486 231 631 q 280 239 231 338 q 428 140 329 140 z "},"×":{"ha":856,"x_min":100,"x_max":756,"o":"m 429 364 l 217 149 l 100 265 l 315 478 l 101 692 l 214 803 l 426 590 l 639 804 l 756 689 l 540 475 l 754 263 l 642 150 l 429 364 z "},"Ø":{"ha":856,"x_min":11,"x_max":846,"o":"m 846 989 l 725 810 q 797 486 797 679 q 784 333 797 406 q 742 197 771 261 q 672 85 714 132 q 567 10 629 38 q 428 -17 504 -17 q 218 54 304 -17 l 169 -17 l 11 -17 l 131 163 q 60 486 60 292 q 96 733 60 624 q 217 916 132 843 q 428 989 303 989 q 639 918 550 989 l 686 989 l 846 989 m 231 486 q 246 333 231 407 l 544 779 q 428 832 499 832 q 281 731 331 832 q 231 486 231 631 m 625 486 q 610 638 625 565 l 311 193 q 428 140 357 140 q 539 192 493 140 q 605 319 585 243 q 625 486 625 394 z "},"Ù":{"ha":856,"x_min":100,"x_max":757,"o":"m 397 1064 l 150 1281 l 356 1281 l 553 1064 l 397 1064 m 428 -17 q 192 76 283 -17 q 100 371 100 168 l 100 972 l 264 972 l 264 371 q 307 192 264 244 q 428 140 350 140 q 592 371 592 140 l 592 972 l 757 972 l 757 371 q 665 77 757 171 q 428 -17 574 -17 z "},"Ú":{"ha":856,"x_min":100,"x_max":757,"o":"m 318 1065 l 515 1282 l 722 1282 l 475 1065 l 318 1065 m 428 -17 q 192 76 283 -17 q 100 371 100 168 l 100 972 l 264 972 l 264 371 q 307 192 264 244 q 428 140 350 140 q 592 371 592 140 l 592 972 l 757 972 l 757 371 q 665 77 757 171 q 428 -17 574 -17 z "},"Û":{"ha":856,"x_min":100,"x_max":757,"o":"m 556 1064 l 428 1171 l 300 1064 l 153 1064 l 350 1281 l 507 1281 l 703 1064 l 556 1064 m 428 -17 q 192 76 283 -17 q 100 371 100 168 l 100 972 l 264 972 l 264 371 q 307 192 264 244 q 428 140 350 140 q 592 371 592 140 l 592 972 l 757 972 l 757 371 q 665 77 757 171 q 428 -17 574 -17 z "},"Ü":{"ha":856,"x_min":100,"x_max":757,"o":"m 366 1106 q 352 1093 366 1106 q 300 1079 339 1079 q 235 1106 261 1079 q 208 1172 208 1132 q 235 1238 208 1211 q 300 1264 261 1264 q 366 1238 339 1264 q 393 1172 393 1211 q 366 1106 393 1133 m 622 1106 q 608 1093 622 1106 q 556 1079 594 1079 q 490 1106 517 1079 q 464 1172 464 1132 q 490 1238 464 1211 q 556 1264 517 1264 q 622 1238 594 1264 q 649 1172 649 1211 q 622 1106 649 1133 m 428 -17 q 192 76 283 -17 q 100 371 100 168 l 100 972 l 264 972 l 264 371 q 307 192 264 244 q 428 140 350 140 q 592 371 592 140 l 592 972 l 757 972 l 757 371 q 665 77 757 171 q 428 -17 574 -17 z "},"Ý":{"ha":856,"x_min":60,"x_max":796,"o":"m 726 1282 l 479 1065 l 322 1065 l 519 1282 l 726 1282 m 614 972 l 796 972 l 510 381 l 510 0 l 346 0 l 346 381 l 60 972 l 243 972 l 428 557 l 614 972 z "},"Þ":{"ha":856,"x_min":106,"x_max":774,"o":"m 106 0 l 106 972 l 271 972 l 271 796 l 450 796 q 602 770 538 796 q 703 700 667 744 q 756 604 739 656 q 774 494 774 553 q 692 284 774 375 q 450 193 611 193 l 271 193 l 271 0 l 106 0 m 457 349 q 569 392 532 349 q 606 494 606 435 q 570 596 606 551 q 457 640 535 640 l 271 640 l 271 349 l 457 349 z "},"ß":{"ha":856,"x_min":118,"x_max":757,"o":"m 118 -279 l 118 654 q 205 906 118 824 q 418 989 292 989 q 627 919 547 989 q 707 733 707 849 q 576 535 707 588 q 710 445 663 508 q 757 293 757 382 q 675 66 757 149 q 467 -17 593 -17 q 328 13 379 -17 l 399 131 q 458 122 424 122 q 555 167 514 122 q 596 290 596 213 q 551 409 596 360 q 418 458 507 458 l 379 458 l 379 597 l 418 597 q 510 632 474 597 q 546 725 546 667 q 513 815 546 781 q 419 850 479 850 q 278 658 278 850 l 278 -203 l 118 -279 z "},"à":{"ha":856,"x_min":111,"x_max":726,"o":"m 394 800 l 147 1017 l 353 1017 l 550 800 l 394 800 m 374 -17 q 184 44 257 -17 q 111 219 111 106 q 194 394 111 335 q 394 454 278 454 q 571 417 496 454 l 571 458 q 431 586 571 586 q 206 514 314 586 l 157 644 q 444 726 286 726 q 726 460 726 726 l 726 0 l 571 0 l 571 56 q 374 -17 496 -17 m 403 124 q 571 194 503 124 l 571 286 q 419 318 507 318 q 309 293 353 318 q 265 219 265 268 q 301 150 265 176 q 403 124 338 124 z "},"á":{"ha":856,"x_min":111,"x_max":739,"o":"m 336 800 l 533 1017 l 739 1017 l 492 800 l 336 800 m 374 -17 q 184 44 257 -17 q 111 219 111 106 q 194 394 111 335 q 394 454 278 454 q 571 417 496 454 l 571 458 q 431 586 571 586 q 206 514 314 586 l 157 644 q 444 726 286 726 q 726 460 726 726 l 726 0 l 571 0 l 571 56 q 374 -17 496 -17 m 403 124 q 571 194 503 124 l 571 286 q 419 318 507 318 q 309 293 353 318 q 265 219 265 268 q 301 150 265 176 q 403 124 338 124 z "},"â":{"ha":856,"x_min":111,"x_max":726,"o":"m 558 800 l 431 907 l 303 800 l 156 800 l 353 1017 l 510 1017 l 706 800 l 558 800 m 374 -17 q 184 44 257 -17 q 111 219 111 106 q 194 394 111 335 q 394 454 278 454 q 571 417 496 454 l 571 458 q 431 586 571 586 q 206 514 314 586 l 157 644 q 444 726 286 726 q 726 460 726 726 l 726 0 l 571 0 l 571 56 q 374 -17 496 -17 m 403 124 q 571 194 503 124 l 571 286 q 419 318 507 318 q 309 293 353 318 q 265 219 265 268 q 301 150 265 176 q 403 124 338 124 z "},"ã":{"ha":856,"x_min":111,"x_max":726,"o":"m 544 817 q 419 849 492 817 q 315 882 346 882 q 250 822 251 882 l 174 822 q 325 1004 174 1004 q 451 972 379 1004 q 554 939 522 939 q 619 999 618 939 l 696 999 q 544 817 696 817 m 374 -17 q 184 44 257 -17 q 111 219 111 106 q 194 394 111 335 q 394 454 278 454 q 571 417 496 454 l 571 458 q 431 586 571 586 q 206 514 314 586 l 157 644 q 444 726 286 726 q 726 460 726 726 l 726 0 l 571 0 l 571 56 q 374 -17 496 -17 m 403 124 q 571 194 503 124 l 571 286 q 419 318 507 318 q 309 293 353 318 q 265 219 265 268 q 301 150 265 176 q 403 124 338 124 z "},"ä":{"ha":856,"x_min":111,"x_max":726,"o":"m 385 842 q 372 829 385 842 q 319 815 358 815 q 254 842 281 815 q 228 908 228 868 q 254 974 228 947 q 319 1000 281 1000 q 385 974 358 1000 q 413 908 413 947 q 385 842 413 869 m 641 842 q 627 829 641 842 q 575 815 614 815 q 510 842 536 815 q 483 908 483 868 q 510 974 483 947 q 575 1000 536 1000 q 641 974 614 1000 q 668 908 668 947 q 641 842 668 869 m 374 -17 q 184 44 257 -17 q 111 219 111 106 q 194 394 111 335 q 394 454 278 454 q 571 417 496 454 l 571 458 q 431 586 571 586 q 206 514 314 586 l 157 644 q 444 726 286 726 q 726 460 726 726 l 726 0 l 571 0 l 571 56 q 374 -17 496 -17 m 403 124 q 571 194 503 124 l 571 286 q 419 318 507 318 q 309 293 353 318 q 265 219 265 268 q 301 150 265 176 q 403 124 338 124 z "},"å":{"ha":856,"x_min":111,"x_max":726,"o":"m 572 834 q 547 809 572 834 q 449 783 521 783 q 325 834 376 783 q 274 957 274 885 q 325 1079 274 1029 q 449 1129 376 1129 q 573 1079 522 1129 q 624 957 624 1029 q 572 834 624 885 m 449 894 q 491 913 474 894 q 508 957 508 931 q 491 1001 508 983 q 449 1019 474 1019 q 406 1002 422 1019 q 389 957 389 985 q 406 912 389 929 q 449 894 422 894 m 374 -17 q 184 44 257 -17 q 111 219 111 106 q 194 394 111 335 q 394 454 278 454 q 571 417 496 454 l 571 458 q 431 586 571 586 q 206 514 314 586 l 157 644 q 444 726 286 726 q 726 460 726 726 l 726 0 l 571 0 l 571 56 q 374 -17 496 -17 m 403 124 q 571 194 503 124 l 571 286 q 419 318 507 318 q 309 293 353 318 q 265 219 265 268 q 301 150 265 176 q 403 124 338 124 z "},"æ":{"ha":856,"x_min":25,"x_max":829,"o":"m 221 -17 q 80 44 135 -17 q 25 219 25 106 q 87 397 25 336 q 236 457 149 457 q 351 422 300 457 l 351 447 q 253 599 351 599 q 99 521 176 599 l 61 644 q 272 726 161 726 q 432 619 383 726 q 611 726 492 726 q 767 639 704 726 q 829 390 829 551 q 821 293 829 339 l 479 293 q 518 165 483 218 q 606 111 553 111 q 718 190 667 111 l 786 93 q 600 -17 710 -17 q 417 104 483 -17 q 221 -17 346 -17 m 479 417 l 701 417 q 672 552 700 506 q 600 599 644 599 q 518 553 551 599 q 479 417 485 508 m 243 110 q 311 140 278 110 q 361 208 344 169 q 351 289 351 257 q 253 332 308 332 q 182 303 211 332 q 153 218 153 275 q 176 140 153 169 q 243 110 200 110 z "},"ç":{"ha":856,"x_min":117,"x_max":740,"o":"m 740 193 q 476 -15 682 -1 l 444 -67 q 560 -101 522 -67 q 599 -189 599 -135 q 550 -295 599 -254 q 418 -336 501 -336 q 274 -276 321 -336 l 347 -222 q 403 -246 364 -246 q 452 -230 433 -246 q 471 -187 471 -214 q 451 -147 471 -162 q 399 -131 431 -131 q 342 -147 367 -131 l 310 -107 l 386 -12 q 188 101 260 6 q 117 354 117 197 q 206 626 117 526 q 444 726 296 726 q 736 533 671 726 l 585 482 q 446 575 549 575 q 323 515 367 575 q 279 354 279 456 q 323 194 279 253 q 443 136 367 136 q 589 240 554 136 l 740 193 z "},"è":{"ha":856,"x_min":104,"x_max":751,"o":"m 550 800 l 394 800 l 147 1017 l 353 1017 l 550 800 m 751 390 q 746 293 751 329 l 263 293 q 324 170 278 215 q 444 125 371 125 q 601 194 538 125 l 697 93 q 443 -17 597 -17 q 195 85 286 -17 q 104 356 104 186 q 196 627 104 528 q 443 726 288 726 q 665 641 579 726 q 751 390 751 556 m 261 429 l 594 429 q 545 547 588 507 q 443 586 503 586 q 320 544 367 586 q 261 429 274 503 z "},"é":{"ha":856,"x_min":104,"x_max":751,"o":"m 731 1017 l 483 800 l 328 800 l 525 1017 l 731 1017 m 751 390 q 746 293 751 329 l 263 293 q 324 170 278 215 q 444 125 371 125 q 601 194 538 125 l 697 93 q 443 -17 597 -17 q 195 85 286 -17 q 104 356 104 186 q 196 627 104 528 q 443 726 288 726 q 665 641 579 726 q 751 390 751 556 m 261 429 l 594 429 q 545 547 588 507 q 443 586 503 586 q 320 544 367 586 q 261 429 274 503 z "},"ê":{"ha":856,"x_min":104,"x_max":751,"o":"m 432 907 l 304 800 l 157 800 l 354 1017 l 511 1017 l 707 800 l 560 800 l 432 907 m 751 390 q 746 293 751 329 l 263 293 q 324 170 278 215 q 444 125 371 125 q 601 194 538 125 l 697 93 q 443 -17 597 -17 q 195 85 286 -17 q 104 356 104 186 q 196 627 104 528 q 443 726 288 726 q 665 641 579 726 q 751 390 751 556 m 261 429 l 594 429 q 545 547 588 507 q 443 586 503 586 q 320 544 367 586 q 261 429 274 503 z "},"ë":{"ha":856,"x_min":104,"x_max":751,"o":"m 304 815 q 239 842 265 815 q 213 908 213 868 q 239 974 213 947 q 304 1000 265 1000 q 370 974 343 1000 q 397 908 397 947 q 371 842 397 869 q 304 815 344 815 m 560 815 q 494 842 521 815 q 468 908 468 868 q 494 974 468 947 q 560 1000 521 1000 q 626 974 599 1000 q 653 908 653 947 q 626 842 653 869 q 560 815 600 815 m 751 390 q 746 293 751 329 l 263 293 q 324 170 278 215 q 444 125 371 125 q 601 194 538 125 l 697 93 q 443 -17 597 -17 q 195 85 286 -17 q 104 356 104 186 q 196 627 104 528 q 443 726 288 726 q 665 641 579 726 q 751 390 751 556 m 261 429 l 594 429 q 545 547 588 507 q 443 586 503 586 q 320 544 367 586 q 261 429 274 503 z "},"ì":{"ha":856,"x_min":93,"x_max":710,"o":"m 496 800 l 340 800 l 93 1017 l 299 1017 l 496 800 m 514 140 l 710 140 l 710 0 l 158 0 l 158 140 l 354 140 l 354 575 l 158 575 l 158 715 l 514 715 l 514 140 z "},"í":{"ha":856,"x_min":158,"x_max":710,"o":"m 678 1017 l 431 800 l 275 800 l 472 1017 l 678 1017 m 514 140 l 710 140 l 710 0 l 158 0 l 158 140 l 354 140 l 354 575 l 158 575 l 158 715 l 514 715 l 514 140 z "},"î":{"ha":856,"x_min":132,"x_max":710,"o":"m 407 907 l 279 800 l 132 800 l 329 1017 l 486 1017 l 682 800 l 535 800 l 407 907 m 514 140 l 710 140 l 710 0 l 158 0 l 158 140 l 354 140 l 354 575 l 158 575 l 158 715 l 514 715 l 514 140 z "},"ï":{"ha":856,"x_min":158,"x_max":710,"o":"m 279 815 q 214 842 240 815 q 188 908 188 868 q 214 974 188 947 q 279 1000 240 1000 q 345 974 318 1000 q 372 908 372 947 q 346 842 372 869 q 279 815 319 815 m 535 815 q 469 842 496 815 q 443 908 443 868 q 469 974 443 947 q 535 1000 496 1000 q 601 974 574 1000 q 628 908 628 947 q 601 842 628 869 q 535 815 575 815 m 514 140 l 710 140 l 710 0 l 158 0 l 158 140 l 354 140 l 354 575 l 158 575 l 158 715 l 514 715 l 514 140 z "},"ð":{"ha":856,"x_min":107,"x_max":749,"o":"m 428 -17 q 197 75 288 -17 q 107 307 107 167 q 195 539 107 444 q 418 633 283 633 q 568 572 510 633 q 458 764 547 689 l 375 678 l 289 760 l 351 824 q 217 850 288 849 l 217 989 q 457 936 349 988 l 536 1019 l 622 936 l 558 869 q 749 372 749 708 q 667 91 749 199 q 428 -17 585 -17 m 428 136 q 542 185 496 136 q 588 306 588 233 q 542 433 588 383 q 426 482 497 482 q 313 433 358 482 q 268 307 268 385 q 315 185 268 233 q 428 136 361 136 z "},"ñ":{"ha":856,"x_min":117,"x_max":740,"o":"m 311 882 q 246 822 247 882 l 169 822 q 321 1004 169 1004 q 447 972 375 1004 q 550 939 518 939 q 615 999 614 939 l 692 999 q 540 817 692 817 q 415 849 488 817 q 311 882 342 882 m 478 726 q 667 656 594 726 q 740 433 740 586 l 740 0 l 581 0 l 581 400 q 540 533 581 492 q 433 575 500 575 q 276 403 276 575 l 276 0 l 117 0 l 117 710 l 264 710 l 264 622 q 345 695 285 664 q 478 726 406 726 z "},"ò":{"ha":856,"x_min":88,"x_max":768,"o":"m 407 800 l 160 1017 l 365 1017 l 563 800 l 407 800 m 428 -17 q 179 83 271 -17 q 88 354 88 182 q 179 626 88 525 q 428 726 271 726 q 677 626 586 726 q 768 354 768 525 q 677 83 768 183 q 428 -17 586 -17 m 428 136 q 560 194 514 136 q 607 354 607 253 q 560 515 607 456 q 428 575 514 575 q 296 515 343 575 q 249 354 249 456 q 296 195 249 254 q 428 136 343 136 z "},"ó":{"ha":856,"x_min":88,"x_max":768,"o":"m 308 800 l 506 1017 l 711 1017 l 464 800 l 308 800 m 428 -17 q 179 83 271 -17 q 88 354 88 182 q 179 626 88 525 q 428 726 271 726 q 677 626 586 726 q 768 354 768 525 q 677 83 768 183 q 428 -17 586 -17 m 428 136 q 560 194 514 136 q 607 354 607 253 q 560 515 607 456 q 428 575 514 575 q 296 515 343 575 q 249 354 249 456 q 296 195 249 254 q 428 136 343 136 z "},"ô":{"ha":856,"x_min":88,"x_max":768,"o":"m 556 800 l 428 907 l 300 800 l 153 800 l 350 1017 l 507 1017 l 703 800 l 556 800 m 428 -17 q 179 83 271 -17 q 88 354 88 182 q 179 626 88 525 q 428 726 271 726 q 677 626 586 726 q 768 354 768 525 q 677 83 768 183 q 428 -17 586 -17 m 428 136 q 560 194 514 136 q 607 354 607 253 q 560 515 607 456 q 428 575 514 575 q 296 515 343 575 q 249 354 249 456 q 296 195 249 254 q 428 136 343 136 z "},"õ":{"ha":856,"x_min":88,"x_max":768,"o":"m 538 817 q 412 849 485 817 q 308 882 339 882 q 243 822 244 882 l 167 822 q 318 1004 167 1004 q 444 972 372 1004 q 547 939 515 939 q 613 999 611 939 l 689 999 q 538 817 689 817 m 428 -17 q 179 83 271 -17 q 88 354 88 182 q 179 626 88 525 q 428 726 271 726 q 677 626 586 726 q 768 354 768 525 q 677 83 768 183 q 428 -17 586 -17 m 428 136 q 560 194 514 136 q 607 354 607 253 q 560 515 607 456 q 428 575 514 575 q 296 515 343 575 q 249 354 249 456 q 296 195 249 254 q 428 136 343 136 z "},"ö":{"ha":856,"x_min":88,"x_max":768,"o":"m 366 842 q 352 829 366 842 q 300 815 339 815 q 235 842 261 815 q 208 908 208 868 q 235 974 208 947 q 300 1000 261 1000 q 366 974 339 1000 q 393 908 393 947 q 366 842 393 869 m 622 842 q 608 829 622 842 q 556 815 594 815 q 490 842 517 815 q 464 908 464 868 q 490 974 464 947 q 556 1000 517 1000 q 622 974 594 1000 q 649 908 649 947 q 622 842 649 869 m 428 -17 q 179 83 271 -17 q 88 354 88 182 q 179 626 88 525 q 428 726 271 726 q 677 626 586 726 q 768 354 768 525 q 677 83 768 183 q 428 -17 586 -17 m 428 136 q 560 194 514 136 q 607 354 607 253 q 560 515 607 456 q 428 575 514 575 q 296 515 343 575 q 249 354 249 456 q 296 195 249 254 q 428 136 343 136 z "},"÷":{"ha":856,"x_min":101,"x_max":754,"o":"m 426 639 q 357 667 385 639 q 329 735 329 694 q 357 803 329 775 q 426 831 385 831 q 498 803 469 831 q 526 735 526 775 q 498 667 526 694 q 426 639 469 639 m 101 399 l 101 554 l 754 554 l 754 399 l 101 399 m 426 122 q 357 150 385 122 q 329 218 329 178 q 357 286 329 258 q 426 314 385 314 q 498 286 469 314 q 526 218 526 258 q 498 150 526 178 q 426 122 469 122 z "},"ø":{"ha":856,"x_min":88,"x_max":768,"o":"m 679 624 q 768 354 768 522 q 677 83 768 183 q 428 -17 586 -17 q 271 15 342 -17 l 250 -17 l 106 -17 l 175 88 q 88 354 88 186 q 179 626 88 525 q 428 726 271 726 q 583 694 513 726 l 604 726 l 749 726 l 679 624 m 249 354 q 272 232 249 283 l 494 564 q 428 575 464 575 q 296 515 343 575 q 249 354 249 456 m 428 136 q 560 194 514 136 q 607 354 607 253 q 583 479 607 425 l 360 147 q 428 136 393 136 z "},"ù":{"ha":856,"x_min":117,"x_max":739,"o":"m 379 800 l 132 1017 l 338 1017 l 535 800 l 379 800 m 381 -17 q 190 53 263 -17 q 117 278 117 124 l 117 710 l 276 710 l 276 313 q 422 136 276 136 q 579 310 579 136 l 579 710 l 739 710 l 739 0 l 579 0 l 579 68 q 381 -17 511 -17 z "},"ú":{"ha":856,"x_min":117,"x_max":739,"o":"m 318 800 l 515 1017 l 721 1017 l 474 800 l 318 800 m 381 -17 q 190 53 263 -17 q 117 278 117 124 l 117 710 l 276 710 l 276 313 q 422 136 276 136 q 579 310 579 136 l 579 710 l 739 710 l 739 0 l 579 0 l 579 68 q 381 -17 511 -17 z "},"û":{"ha":856,"x_min":117,"x_max":739,"o":"m 554 800 l 426 907 l 299 800 l 151 800 l 349 1017 l 506 1017 l 701 800 l 554 800 m 381 -17 q 190 53 263 -17 q 117 278 117 124 l 117 710 l 276 710 l 276 313 q 422 136 276 136 q 579 310 579 136 l 579 710 l 739 710 l 739 0 l 579 0 l 579 68 q 381 -17 511 -17 z "},"ü":{"ha":856,"x_min":117,"x_max":739,"o":"m 299 815 q 233 842 260 815 q 207 908 207 868 q 233 974 207 947 q 299 1000 260 1000 q 365 974 338 1000 q 392 908 392 947 q 365 842 392 869 q 299 815 339 815 m 554 815 q 489 842 515 815 q 463 908 463 868 q 489 974 463 947 q 554 1000 515 1000 q 620 974 593 1000 q 647 908 647 947 q 621 842 647 869 q 554 815 594 815 m 381 -17 q 190 53 263 -17 q 117 278 117 124 l 117 710 l 276 710 l 276 313 q 422 136 276 136 q 579 310 579 136 l 579 710 l 739 710 l 739 0 l 579 0 l 579 68 q 381 -17 511 -17 z "},"ý":{"ha":856,"x_min":81,"x_max":775,"o":"m 339 800 l 536 1017 l 742 1017 l 494 800 l 339 800 m 238 -269 l 346 13 l 81 710 l 243 710 l 406 276 q 426 210 417 249 q 433 231 429 219 q 442 256 438 243 q 449 276 446 269 l 611 710 l 775 710 l 403 -269 l 238 -269 z "},"þ":{"ha":856,"x_min":122,"x_max":767,"o":"m 122 -282 l 122 913 l 282 989 l 282 661 q 457 732 347 732 q 683 633 599 732 q 767 358 767 535 q 680 84 767 185 q 457 -17 593 -17 q 282 57 346 -17 l 282 -207 l 122 -282 m 433 136 q 560 194 515 136 q 606 358 606 251 q 560 519 606 460 q 433 579 515 579 q 282 508 333 579 l 282 208 q 433 136 336 136 z "},"ÿ":{"ha":856,"x_min":81,"x_max":775,"o":"m 299 815 q 233 842 260 815 q 207 908 207 868 q 233 974 207 947 q 299 1000 260 1000 q 365 974 338 1000 q 392 908 392 947 q 365 842 392 869 q 299 815 339 815 m 554 815 q 489 842 515 815 q 463 908 463 868 q 489 974 463 947 q 554 1000 515 1000 q 620 974 593 1000 q 647 908 647 947 q 621 842 647 869 q 554 815 594 815 m 238 -269 l 346 13 l 81 710 l 243 710 l 406 276 q 426 210 417 249 q 433 231 429 219 q 442 256 438 243 q 449 276 446 269 l 611 710 l 775 710 l 403 -269 l 238 -269 z "},"Ā":{"ha":856,"x_min":32,"x_max":824,"o":"m 656 1218 l 656 1088 l 197 1088 l 197 1218 l 656 1218 m 646 0 l 582 214 l 274 214 l 210 0 l 32 0 l 350 972 l 506 972 l 824 0 l 646 0 m 318 364 l 538 364 l 451 653 q 428 761 438 697 q 404 653 411 676 l 318 364 z "},"ā":{"ha":856,"x_min":111,"x_max":726,"o":"m 204 824 l 204 954 l 663 954 l 663 824 l 204 824 m 374 -17 q 184 44 257 -17 q 111 219 111 106 q 194 394 111 335 q 394 454 278 454 q 571 417 496 454 l 571 458 q 431 586 571 586 q 206 514 314 586 l 157 644 q 444 726 286 726 q 726 460 726 726 l 726 0 l 571 0 l 571 56 q 374 -17 496 -17 m 403 124 q 571 194 503 124 l 571 286 q 419 318 507 318 q 309 293 353 318 q 265 219 265 268 q 301 150 265 176 q 403 124 338 124 z "},"Ă":{"ha":856,"x_min":32,"x_max":824,"o":"m 622 1128 q 589 1094 622 1128 q 428 1061 556 1061 q 234 1127 300 1061 q 168 1294 168 1193 l 296 1294 q 331 1213 296 1246 q 428 1181 365 1181 q 526 1213 490 1181 q 561 1294 561 1246 l 689 1294 q 622 1128 689 1194 m 646 0 l 582 214 l 274 214 l 210 0 l 32 0 l 350 972 l 506 972 l 824 0 l 646 0 m 318 364 l 538 364 l 451 653 q 428 761 438 697 q 404 653 411 676 l 318 364 z "},"ă":{"ha":856,"x_min":111,"x_max":726,"o":"m 432 797 q 238 863 304 797 q 172 1031 172 929 l 300 1031 q 335 949 300 982 q 432 917 369 917 q 530 949 494 917 q 565 1031 565 982 l 693 1031 q 627 864 693 931 q 432 797 561 797 m 374 -17 q 184 44 257 -17 q 111 219 111 106 q 194 394 111 335 q 394 454 278 454 q 571 417 496 454 l 571 458 q 431 586 571 586 q 206 514 314 586 l 157 644 q 444 726 286 726 q 726 460 726 726 l 726 0 l 571 0 l 571 56 q 374 -17 496 -17 m 403 124 q 571 194 503 124 l 571 286 q 419 318 507 318 q 309 293 353 318 q 265 219 265 268 q 301 150 265 176 q 403 124 338 124 z "},"Ą":{"ha":856,"x_min":32,"x_max":824,"o":"m 624 -350 q 502 -310 549 -350 q 456 -203 456 -269 q 506 -82 456 -135 q 646 0 556 -29 l 582 214 l 274 214 l 210 0 l 32 0 l 350 972 l 506 972 l 824 0 q 658 -60 729 -6 q 588 -189 588 -115 q 604 -237 588 -221 q 646 -254 621 -254 q 706 -226 683 -254 l 782 -281 q 624 -350 722 -350 m 318 364 l 538 364 l 451 653 q 428 761 438 703 q 404 653 413 681 l 318 364 z "},"ą":{"ha":856,"x_min":135,"x_max":750,"o":"m 592 -336 q 471 -296 517 -336 q 425 -189 425 -256 q 581 1 425 -62 l 581 56 q 390 -17 506 -17 q 206 44 276 -17 q 135 219 135 106 q 216 394 135 335 q 411 454 297 454 q 581 417 506 454 l 581 458 q 446 586 581 586 q 228 514 332 586 l 179 644 q 460 726 303 726 q 736 460 736 726 l 736 0 q 608 -73 658 -26 q 557 -175 557 -119 q 573 -224 557 -208 q 615 -240 589 -240 q 675 -212 653 -240 l 750 -267 q 592 -336 690 -336 m 419 124 q 581 194 510 124 l 581 286 q 436 318 514 318 q 330 294 371 318 q 289 219 289 269 q 323 150 289 176 q 419 124 357 124 z "},"Ć":{"ha":856,"x_min":60,"x_max":750,"o":"m 336 1064 l 533 1281 l 739 1281 l 492 1064 l 336 1064 m 444 -15 q 297 14 363 -15 q 187 91 231 43 q 114 205 143 139 q 72 341 85 271 q 60 486 60 411 q 81 663 60 578 q 147 823 103 749 q 268 942 192 897 q 444 988 344 988 q 635 929 558 988 q 746 785 711 871 l 599 714 q 533 801 568 772 q 444 831 497 831 q 319 775 369 831 q 250 645 269 719 q 231 486 231 571 q 286 245 231 349 q 444 142 342 142 q 600 267 542 142 l 750 210 q 444 -15 658 -15 z "},"ć":{"ha":856,"x_min":117,"x_max":746,"o":"m 343 800 l 540 1017 l 746 1017 l 499 800 l 343 800 m 442 -17 q 204 82 292 -17 q 117 354 117 181 q 206 626 117 526 q 444 726 296 726 q 736 533 671 726 l 585 482 q 446 575 549 575 q 323 515 367 575 q 279 354 279 456 q 323 194 279 253 q 443 136 367 136 q 589 240 554 136 l 740 193 q 442 -17 676 -17 z "},"Ĉ":{"ha":856,"x_min":60,"x_max":750,"o":"m 569 1064 l 442 1171 l 314 1064 l 167 1064 l 364 1281 l 521 1281 l 717 1064 l 569 1064 m 444 -15 q 297 14 363 -15 q 187 91 231 43 q 114 205 143 139 q 72 341 85 271 q 60 486 60 411 q 81 663 60 578 q 147 823 103 749 q 268 942 192 897 q 444 988 344 988 q 635 929 558 988 q 746 785 711 871 l 599 714 q 533 801 568 772 q 444 831 497 831 q 319 775 369 831 q 250 645 269 719 q 231 486 231 571 q 286 245 231 349 q 444 142 342 142 q 600 267 542 142 l 750 210 q 444 -15 658 -15 z "},"ĉ":{"ha":856,"x_min":117,"x_max":740,"o":"m 569 800 l 442 907 l 314 800 l 167 800 l 364 1017 l 521 1017 l 717 800 l 569 800 m 442 -17 q 204 82 292 -17 q 117 354 117 181 q 206 626 117 526 q 444 726 296 726 q 736 533 671 726 l 585 482 q 446 575 549 575 q 323 515 367 575 q 279 354 279 456 q 323 194 279 253 q 443 136 367 136 q 589 240 554 136 l 740 193 q 442 -17 676 -17 z "},"Ċ":{"ha":856,"x_min":60,"x_max":750,"o":"m 438 1079 q 372 1106 399 1079 q 346 1172 346 1132 q 372 1238 346 1211 q 438 1264 399 1264 q 503 1238 476 1264 q 531 1172 531 1211 q 504 1106 531 1133 q 438 1079 478 1079 m 444 -15 q 297 14 363 -15 q 187 91 231 43 q 114 205 143 139 q 72 341 85 271 q 60 486 60 411 q 81 663 60 578 q 147 823 103 749 q 268 942 192 897 q 444 988 344 988 q 635 929 558 988 q 746 785 711 871 l 599 714 q 533 801 568 772 q 444 831 497 831 q 319 775 369 831 q 250 645 269 719 q 231 486 231 571 q 286 245 231 349 q 444 142 342 142 q 600 267 542 142 l 750 210 q 444 -15 658 -15 z "},"ċ":{"ha":856,"x_min":117,"x_max":740,"o":"m 443 815 q 378 842 404 815 q 351 908 351 868 q 378 974 351 947 q 443 1000 404 1000 q 509 974 482 1000 q 536 908 536 947 q 510 842 536 869 q 443 815 483 815 m 442 -17 q 204 82 292 -17 q 117 354 117 181 q 206 626 117 526 q 444 726 296 726 q 736 533 671 726 l 585 482 q 446 575 549 575 q 323 515 367 575 q 279 354 279 456 q 323 194 279 253 q 443 136 367 136 q 589 240 554 136 l 740 193 q 442 -17 676 -17 z "},"Č":{"ha":856,"x_min":60,"x_max":750,"o":"m 525 1064 l 367 1064 l 171 1281 l 318 1281 l 446 1174 l 574 1281 l 721 1281 l 525 1064 m 444 -15 q 297 14 363 -15 q 187 91 231 43 q 114 205 143 139 q 72 341 85 271 q 60 486 60 411 q 81 663 60 578 q 147 823 103 749 q 268 942 192 897 q 444 988 344 988 q 635 929 558 988 q 746 785 711 871 l 599 714 q 533 801 568 772 q 444 831 497 831 q 319 775 369 831 q 250 645 269 719 q 231 486 231 571 q 286 245 231 349 q 444 142 342 142 q 600 267 542 142 l 750 210 q 444 -15 658 -15 z "},"č":{"ha":856,"x_min":115,"x_max":739,"o":"m 513 800 l 354 800 l 158 1017 l 306 1017 l 433 910 l 561 1017 l 708 1017 l 513 800 m 440 -17 q 203 82 290 -17 q 115 354 115 181 q 205 626 115 526 q 443 726 294 726 q 735 533 669 726 l 583 482 q 444 575 547 575 q 322 515 365 575 q 278 354 278 456 q 322 194 278 253 q 442 136 365 136 q 588 240 553 136 l 739 193 q 440 -17 675 -17 z "},"Ď":{"ha":856,"x_min":99,"x_max":797,"o":"m 453 1064 l 294 1064 l 99 1281 l 246 1281 l 374 1174 l 501 1281 l 649 1281 l 453 1064 m 106 0 l 106 972 l 350 972 q 521 944 444 972 q 648 871 597 917 q 733 762 699 825 q 782 630 767 699 q 797 486 797 561 q 783 350 797 417 q 736 219 769 283 q 652 106 703 154 q 522 29 601 58 q 344 0 443 0 l 106 0 m 271 156 l 361 156 q 485 185 432 156 q 568 263 539 214 q 611 369 597 313 q 625 486 625 425 q 563 719 625 622 q 376 817 500 817 l 271 817 l 271 156 z "},"ď":{"ha":856,"x_min":8,"x_max":903,"o":"m 321 -17 q 92 81 175 -17 q 8 356 8 179 q 94 626 8 526 q 317 726 179 726 q 493 658 431 726 l 493 929 l 653 1003 l 653 0 l 493 0 l 493 54 q 424 4 471 25 q 321 -17 378 -17 m 760 640 l 710 678 q 751 989 751 764 l 903 989 l 903 978 q 760 640 903 776 m 343 136 q 493 206 447 136 l 493 506 q 340 575 443 575 q 214 518 258 575 q 169 356 169 461 q 215 196 169 256 q 343 136 260 136 z "},"Đ":{"ha":856,"x_min":25,"x_max":797,"o":"m 350 972 q 521 944 444 972 q 648 871 597 917 q 733 762 699 825 q 782 630 767 699 q 797 486 797 561 q 783 350 797 417 q 736 219 769 283 q 652 106 703 154 q 522 29 601 58 q 344 0 443 0 l 106 0 l 106 410 l 25 410 l 25 563 l 106 563 l 106 972 l 350 972 m 361 156 q 485 185 432 156 q 568 263 539 214 q 611 369 597 313 q 625 486 625 425 q 563 719 625 622 q 376 817 500 817 l 271 817 l 271 563 l 465 563 l 465 410 l 271 410 l 271 156 l 361 156 z "},"đ":{"ha":856,"x_min":78,"x_max":788,"o":"m 697 751 l 697 0 l 538 0 l 538 54 q 374 -17 485 -17 q 158 78 239 -17 q 78 333 78 172 q 161 586 78 490 q 375 682 244 682 q 538 614 476 682 l 538 751 l 368 751 l 368 878 l 538 878 l 538 929 l 697 1003 l 697 878 l 788 878 l 788 751 l 697 751 m 399 136 q 538 206 493 136 l 538 460 q 399 529 494 529 q 281 476 324 529 q 239 333 239 424 q 281 192 239 247 q 399 136 324 136 z "},"Ē":{"ha":856,"x_min":106,"x_max":758,"o":"m 189 1088 l 189 1218 l 647 1218 l 647 1088 l 189 1088 m 106 0 l 106 972 l 729 972 l 729 815 l 271 815 l 271 581 l 569 581 l 569 424 l 271 424 l 271 157 l 758 157 l 758 0 l 106 0 z "},"ē":{"ha":856,"x_min":104,"x_max":751,"o":"m 661 954 l 661 824 l 203 824 l 203 954 l 661 954 m 751 390 q 746 293 751 329 l 263 293 q 324 170 278 215 q 444 125 371 125 q 601 194 538 125 l 697 93 q 443 -17 597 -17 q 195 85 286 -17 q 104 356 104 186 q 196 627 104 528 q 443 726 288 726 q 665 641 579 726 q 751 390 751 556 m 261 429 l 594 429 q 545 547 588 507 q 443 586 503 586 q 320 544 367 586 q 261 429 274 503 z "},"Ĕ":{"ha":856,"x_min":106,"x_max":758,"o":"m 608 1128 q 575 1094 608 1128 q 414 1061 542 1061 q 220 1127 286 1061 q 154 1294 154 1193 l 282 1294 q 317 1213 282 1246 q 414 1181 351 1181 q 512 1213 476 1181 q 547 1294 547 1246 l 675 1294 q 608 1128 675 1194 m 106 0 l 106 972 l 729 972 l 729 815 l 271 815 l 271 581 l 569 581 l 569 424 l 271 424 l 271 157 l 758 157 l 758 0 l 106 0 z "},"ĕ":{"ha":856,"x_min":104,"x_max":751,"o":"m 625 864 q 592 831 625 864 q 431 797 558 797 q 237 863 303 797 q 171 1031 171 929 l 299 1031 q 333 949 299 982 q 431 917 368 917 q 528 949 493 917 q 564 1031 564 982 l 692 1031 q 625 864 692 931 m 751 390 q 746 293 751 329 l 263 293 q 324 170 278 215 q 444 125 371 125 q 601 194 538 125 l 697 93 q 443 -17 597 -17 q 195 85 286 -17 q 104 356 104 186 q 196 627 104 528 q 443 726 288 726 q 665 641 579 726 q 751 390 751 556 m 261 429 l 594 429 q 545 547 588 507 q 443 586 503 586 q 320 544 367 586 q 261 429 274 503 z "},"Ė":{"ha":856,"x_min":106,"x_max":758,"o":"m 415 1079 q 350 1106 376 1079 q 324 1172 324 1132 q 350 1238 324 1211 q 415 1264 376 1264 q 481 1238 454 1264 q 508 1172 508 1211 q 482 1106 508 1133 q 415 1079 456 1079 m 106 0 l 106 972 l 729 972 l 729 815 l 271 815 l 271 581 l 569 581 l 569 424 l 271 424 l 271 157 l 758 157 l 758 0 l 106 0 z "},"ė":{"ha":856,"x_min":104,"x_max":751,"o":"m 432 815 q 367 842 393 815 q 340 908 340 868 q 367 974 340 947 q 432 1000 393 1000 q 498 974 471 1000 q 525 908 525 947 q 499 842 525 869 q 432 815 472 815 m 751 390 q 746 293 751 329 l 263 293 q 324 170 278 215 q 444 125 371 125 q 601 194 538 125 l 697 93 q 443 -17 597 -17 q 195 85 286 -17 q 104 356 104 186 q 196 627 104 528 q 443 726 288 726 q 665 641 579 726 q 751 390 751 556 m 261 429 l 594 429 q 545 547 588 507 q 443 586 503 586 q 320 544 367 586 q 261 429 274 503 z "},"Ę":{"ha":856,"x_min":110,"x_max":775,"o":"m 575 -336 q 454 -296 500 -336 q 408 -189 408 -256 q 561 0 408 -64 l 110 0 l 110 972 l 746 972 l 746 815 l 275 815 l 275 581 l 563 581 l 563 424 l 275 424 l 275 157 l 775 157 l 775 0 l 739 0 q 599 -56 657 0 q 540 -175 540 -112 q 556 -224 540 -208 q 599 -240 572 -240 q 658 -212 636 -240 l 733 -267 q 575 -336 674 -336 z "},"ę":{"ha":856,"x_min":104,"x_max":751,"o":"m 453 -336 q 333 -296 379 -336 q 286 -189 286 -256 q 408 -15 286 -79 q 185 96 267 -4 q 104 356 104 196 q 196 627 104 528 q 443 726 288 726 q 665 641 579 726 q 751 390 751 556 q 746 293 751 329 l 264 293 q 326 170 279 215 q 444 125 372 125 q 601 194 538 125 l 697 93 q 563 1 650 40 q 455 -79 492 -31 q 418 -175 418 -128 q 435 -224 418 -207 q 476 -240 451 -240 q 536 -212 514 -240 l 613 -267 q 453 -336 550 -336 m 263 429 l 594 429 q 545 547 588 507 q 443 586 503 586 q 263 429 290 586 z "},"Ě":{"ha":856,"x_min":106,"x_max":758,"o":"m 497 1064 l 339 1064 l 143 1281 l 290 1281 l 418 1174 l 546 1281 l 693 1281 l 497 1064 m 106 0 l 106 972 l 729 972 l 729 815 l 271 815 l 271 581 l 569 581 l 569 424 l 271 424 l 271 157 l 758 157 l 758 0 l 106 0 z "},"ě":{"ha":856,"x_min":104,"x_max":751,"o":"m 511 800 l 353 800 l 157 1017 l 304 1017 l 432 910 l 560 1017 l 707 1017 l 511 800 m 751 390 q 746 293 751 329 l 263 293 q 324 170 278 215 q 444 125 371 125 q 601 194 538 125 l 697 93 q 443 -17 597 -17 q 195 85 286 -17 q 104 356 104 186 q 196 627 104 528 q 443 726 288 726 q 665 641 579 726 q 751 390 751 556 m 261 429 l 594 429 q 545 547 588 507 q 443 586 503 586 q 320 544 367 586 q 261 429 274 503 z "},"Ĝ":{"ha":856,"x_min":60,"x_max":767,"o":"m 575 1064 l 447 1171 l 319 1064 l 172 1064 l 369 1281 l 526 1281 l 722 1064 l 575 1064 m 443 -17 q 228 58 317 -17 q 99 242 139 132 q 60 486 60 353 q 101 724 60 613 q 231 913 142 836 q 443 989 321 989 q 624 936 556 989 q 743 793 693 883 l 597 710 q 443 832 532 832 q 320 776 369 832 q 251 645 271 719 q 232 486 232 571 q 286 242 232 343 q 443 140 340 140 q 558 190 518 140 q 597 321 597 240 l 597 342 l 428 342 l 428 497 l 767 497 l 767 363 q 676 83 767 183 q 443 -17 586 -17 z "},"ĝ":{"ha":856,"x_min":90,"x_max":722,"o":"m 575 800 l 447 907 l 319 800 l 172 800 l 369 1017 l 526 1017 l 722 800 l 575 800 m 375 -282 l 289 -151 q 494 -106 438 -140 q 550 7 550 -71 l 550 49 q 385 -17 493 -17 q 172 80 254 -17 q 90 356 90 176 q 172 626 90 526 q 388 726 254 726 q 550 665 489 726 l 550 710 l 710 710 l 710 75 q 634 -188 710 -107 q 375 -282 558 -269 m 413 136 q 550 208 503 136 l 550 504 q 413 575 500 575 q 292 519 333 575 q 250 356 250 463 q 292 195 250 254 q 413 136 335 136 z "},"Ğ":{"ha":856,"x_min":60,"x_max":767,"o":"m 446 1061 q 252 1127 318 1061 q 186 1294 186 1193 l 314 1294 q 349 1213 314 1246 q 446 1181 383 1181 q 544 1213 508 1181 q 579 1294 579 1246 l 707 1294 q 641 1128 707 1194 q 446 1061 575 1061 m 443 -17 q 228 58 317 -17 q 99 242 139 132 q 60 486 60 353 q 101 724 60 613 q 231 913 142 836 q 443 989 321 989 q 624 936 556 989 q 743 793 693 883 l 597 710 q 443 832 532 832 q 320 776 369 832 q 251 645 271 719 q 232 486 232 571 q 286 242 232 343 q 443 140 340 140 q 558 190 518 140 q 597 321 597 240 l 597 342 l 428 342 l 428 497 l 767 497 l 767 363 q 676 83 767 183 q 443 -17 586 -17 z "},"ğ":{"ha":856,"x_min":99,"x_max":718,"o":"m 451 797 q 258 863 324 797 q 192 1031 192 929 l 319 1031 q 354 949 319 982 q 451 917 389 917 q 549 949 514 917 q 585 1031 585 982 l 713 1031 q 647 864 713 931 q 451 797 581 797 m 383 -282 l 297 -151 q 502 -106 446 -140 q 558 7 558 -71 l 558 49 q 393 -17 501 -17 q 181 80 263 -17 q 99 356 99 176 q 181 626 99 526 q 396 726 263 726 q 558 665 497 726 l 558 710 l 718 710 l 718 75 q 642 -188 718 -107 q 383 -282 567 -269 m 421 136 q 558 208 511 136 l 558 504 q 421 575 508 575 q 300 519 342 575 q 258 356 258 463 q 301 195 258 254 q 421 136 343 136 z "},"Ġ":{"ha":856,"x_min":60,"x_max":767,"o":"m 510 1106 q 497 1093 510 1106 q 444 1079 483 1079 q 379 1106 406 1079 q 353 1172 353 1132 q 379 1238 353 1211 q 444 1264 406 1264 q 510 1238 483 1264 q 538 1172 538 1211 q 510 1106 538 1133 m 443 -17 q 228 58 317 -17 q 99 242 139 132 q 60 486 60 353 q 101 724 60 613 q 231 913 142 836 q 443 989 321 989 q 624 936 556 989 q 743 793 693 883 l 597 710 q 443 832 532 832 q 320 776 369 832 q 251 645 271 719 q 232 486 232 571 q 286 242 232 343 q 443 140 340 140 q 558 190 518 140 q 597 321 597 240 l 597 342 l 428 342 l 428 497 l 767 497 l 767 363 q 676 83 767 183 q 443 -17 586 -17 z "},"ġ":{"ha":856,"x_min":113,"x_max":732,"o":"m 524 842 q 511 829 524 842 q 458 815 497 815 q 393 842 419 815 q 367 908 367 868 q 393 974 367 947 q 458 1000 419 1000 q 524 974 497 1000 q 551 908 551 947 q 524 842 551 869 m 397 -282 l 311 -151 q 516 -106 460 -140 q 572 7 572 -71 l 572 49 q 407 -17 515 -17 q 194 80 276 -17 q 113 356 113 176 q 194 626 113 526 q 410 726 276 726 q 572 665 511 726 l 572 710 l 732 710 l 732 75 q 656 -188 732 -107 q 397 -282 581 -269 m 435 136 q 572 208 525 136 l 572 504 q 435 575 522 575 q 314 519 356 575 q 272 356 272 463 q 315 195 272 254 q 435 136 357 136 z "},"Ģ":{"ha":856,"x_min":60,"x_max":767,"o":"m 443 -17 q 228 58 317 -17 q 99 242 139 132 q 60 486 60 353 q 101 724 60 613 q 231 913 142 836 q 443 989 321 989 q 624 936 556 989 q 743 793 693 883 l 597 710 q 443 832 532 832 q 320 776 369 832 q 251 645 271 719 q 232 486 232 571 q 286 242 232 343 q 443 140 340 140 q 558 190 518 140 q 597 321 597 240 l 597 342 l 428 342 l 428 497 l 767 497 l 767 363 q 676 83 767 183 q 443 -17 586 -17 m 407 -411 l 354 -375 q 422 -272 406 -331 q 375 -244 393 -265 q 357 -189 357 -222 q 383 -126 357 -150 q 444 -101 408 -101 q 508 -128 482 -101 q 533 -201 533 -156 q 497 -319 533 -261 q 407 -411 461 -376 z "},"ģ":{"ha":856,"x_min":101,"x_max":721,"o":"m 431 796 q 367 822 393 796 q 342 894 342 849 q 378 1013 342 956 q 469 1104 414 1071 l 521 1068 q 482 1023 504 1053 q 453 965 460 993 q 519 882 519 951 q 493 820 519 844 q 431 796 467 796 m 386 -282 l 300 -151 q 505 -106 449 -140 q 561 7 561 -71 l 561 49 q 396 -17 504 -17 q 183 80 265 -17 q 101 356 101 176 q 183 626 101 526 q 399 726 265 726 q 561 665 500 726 l 561 710 l 721 710 l 721 75 q 645 -188 721 -107 q 386 -282 569 -269 m 424 136 q 561 208 514 136 l 561 504 q 424 575 511 575 q 303 519 344 575 q 261 356 261 463 q 303 195 261 254 q 424 136 346 136 z "},"Ĥ":{"ha":856,"x_min":106,"x_max":750,"o":"m 556 1064 l 428 1171 l 300 1064 l 153 1064 l 350 1281 l 507 1281 l 703 1064 l 556 1064 m 106 0 l 106 972 l 271 972 l 271 579 l 585 579 l 585 972 l 750 972 l 750 0 l 585 0 l 585 424 l 271 424 l 271 0 l 106 0 z "},"ĥ":{"ha":856,"x_min":117,"x_max":740,"o":"m 567 1063 l 439 1169 l 311 1063 l 164 1063 l 361 1279 l 518 1279 l 714 1063 l 567 1063 m 117 0 l 117 929 l 276 1003 l 276 640 q 478 726 346 726 q 667 656 594 726 q 740 433 740 586 l 740 0 l 581 0 l 581 400 q 540 533 581 492 q 433 575 499 575 q 320 535 364 575 q 276 403 276 494 l 276 0 l 117 0 z "},"Ħ":{"ha":856,"x_min":7,"x_max":849,"o":"m 585 0 l 585 424 l 271 424 l 271 0 l 106 0 l 106 703 l 7 703 l 7 858 l 106 858 l 106 972 l 271 972 l 271 858 l 585 858 l 585 972 l 750 972 l 750 858 l 849 858 l 849 703 l 750 703 l 750 0 l 585 0 m 585 579 l 585 703 l 271 703 l 271 579 l 585 579 z "},"ħ":{"ha":856,"x_min":103,"x_max":783,"o":"m 185 0 l 185 751 l 103 751 l 103 878 l 185 878 l 185 929 l 344 1003 l 344 878 l 536 878 l 536 751 l 344 751 l 344 597 q 533 683 411 683 q 714 613 644 683 q 783 390 783 543 l 783 0 l 624 0 l 624 378 q 587 494 624 456 q 489 532 550 532 q 384 496 424 532 q 344 381 344 460 l 344 0 l 185 0 z "},"Ĩ":{"ha":856,"x_min":142,"x_max":714,"o":"m 308 1146 q 243 1086 244 1146 l 167 1086 q 318 1268 167 1268 q 444 1235 372 1268 q 547 1203 515 1203 q 613 1263 611 1203 l 689 1263 q 538 1081 689 1081 q 412 1113 485 1081 q 308 1146 339 1146 m 714 826 l 510 826 l 510 146 l 714 146 l 714 0 l 142 0 l 142 146 l 344 146 l 344 826 l 142 826 l 142 972 l 714 972 l 714 826 z "},"ĩ":{"ha":856,"x_min":142,"x_max":710,"o":"m 283 882 q 218 822 219 882 l 142 822 q 293 1004 142 1004 q 419 972 347 1004 q 522 939 490 939 q 588 999 586 939 l 664 999 q 513 817 664 817 q 387 849 460 817 q 283 882 314 882 m 514 140 l 710 140 l 710 0 l 158 0 l 158 140 l 354 140 l 354 575 l 158 575 l 158 715 l 514 715 l 514 140 z "},"Ī":{"ha":856,"x_min":142,"x_max":714,"o":"m 657 1218 l 657 1088 l 199 1088 l 199 1218 l 657 1218 m 714 826 l 510 826 l 510 146 l 714 146 l 714 0 l 142 0 l 142 146 l 344 146 l 344 826 l 142 826 l 142 972 l 714 972 l 714 826 z "},"ī":{"ha":856,"x_min":149,"x_max":710,"o":"m 607 954 l 607 824 l 149 824 l 149 954 l 607 954 m 514 140 l 710 140 l 710 0 l 158 0 l 158 140 l 354 140 l 354 575 l 158 575 l 158 715 l 514 715 l 514 140 z "},"Ĭ":{"ha":856,"x_min":142,"x_max":714,"o":"m 426 1061 q 233 1127 299 1061 q 167 1294 167 1193 l 294 1294 q 329 1213 294 1246 q 426 1181 364 1181 q 524 1213 489 1181 q 560 1294 560 1246 l 688 1294 q 622 1128 688 1194 q 426 1061 556 1061 m 714 826 l 510 826 l 510 146 l 714 146 l 714 0 l 142 0 l 142 146 l 344 146 l 344 826 l 142 826 l 142 972 l 714 972 l 714 826 z "},"ĭ":{"ha":856,"x_min":139,"x_max":710,"o":"m 399 797 q 205 863 271 797 q 139 1031 139 929 l 267 1031 q 301 949 267 982 q 399 917 336 917 q 497 949 461 917 q 532 1031 532 982 l 660 1031 q 594 864 660 931 q 399 797 528 797 m 514 140 l 710 140 l 710 0 l 158 0 l 158 140 l 354 140 l 354 575 l 158 575 l 158 715 l 514 715 l 514 140 z "},"Į":{"ha":856,"x_min":142,"x_max":714,"o":"m 464 -336 q 342 -296 389 -336 q 296 -189 296 -256 q 449 0 296 -64 l 142 0 l 142 146 l 344 146 l 344 826 l 142 826 l 142 972 l 714 972 l 714 826 l 510 826 l 510 146 l 714 146 l 714 0 l 639 0 q 485 -57 542 0 q 428 -175 428 -114 q 444 -224 428 -207 q 486 -240 461 -240 q 546 -212 524 -240 l 622 -267 q 464 -336 563 -336 z "},"į":{"ha":856,"x_min":158,"x_max":710,"o":"m 433 808 q 367 836 394 808 q 339 904 339 864 q 367 972 339 944 q 433 999 394 999 q 501 972 474 999 q 529 904 529 944 q 501 836 529 864 q 433 808 474 808 m 460 -336 q 339 -296 385 -336 q 293 -189 293 -256 q 446 0 293 -64 l 158 0 l 158 140 l 354 140 l 354 569 l 158 569 l 158 710 l 514 710 l 514 140 l 710 140 l 710 0 l 633 0 q 481 -57 538 0 q 425 -175 425 -114 q 442 -224 425 -208 q 483 -240 458 -240 q 543 -212 521 -240 l 618 -267 q 460 -336 558 -336 z "},"İ":{"ha":856,"x_min":142,"x_max":714,"o":"m 494 1106 q 480 1093 494 1106 q 428 1079 467 1079 q 363 1106 389 1079 q 336 1172 336 1132 q 363 1238 336 1211 q 428 1264 389 1264 q 494 1238 467 1264 q 521 1172 521 1211 q 494 1106 521 1133 m 714 826 l 510 826 l 510 146 l 714 146 l 714 0 l 142 0 l 142 146 l 344 146 l 344 826 l 142 826 l 142 972 l 714 972 l 714 826 z "},"ı":{"ha":856,"x_min":158,"x_max":710,"o":"m 514 140 l 710 140 l 710 0 l 158 0 l 158 140 l 354 140 l 354 575 l 158 575 l 158 715 l 514 715 l 514 140 z "},"Ĳ":{"ha":1711,"x_min":142,"x_max":1603,"o":"m 714 972 l 714 826 l 510 826 l 510 146 l 714 146 l 714 0 l 142 0 l 142 146 l 344 146 l 344 826 l 142 826 l 142 972 l 714 972 m 1439 972 l 1603 972 l 1603 331 q 1574 161 1603 232 q 1494 53 1544 90 q 1392 0 1444 17 q 1279 -17 1339 -17 q 1093 36 1174 -17 q 969 185 1013 89 l 1111 253 q 1281 140 1169 140 q 1439 339 1439 140 l 1439 972 z "},"ĳ":{"ha":1711,"x_min":158,"x_max":1461,"o":"m 433 808 q 367 836 394 808 q 339 904 339 864 q 367 972 339 944 q 433 999 394 999 q 501 972 474 999 q 529 904 529 944 q 501 836 529 864 q 433 808 474 808 m 1365 808 q 1299 836 1326 808 q 1271 904 1271 864 q 1298 972 1271 944 q 1365 999 1325 999 q 1433 972 1406 999 q 1461 904 1461 944 q 1433 836 1461 864 q 1365 808 1406 808 m 514 710 l 514 140 l 710 140 l 710 0 l 158 0 l 158 140 l 354 140 l 354 569 l 158 569 l 158 710 l 514 710 m 1446 710 l 1446 18 q 1374 -201 1446 -131 q 1142 -297 1303 -271 l 1061 -169 q 1238 -110 1190 -147 q 1286 7 1286 -72 l 1286 569 l 1090 569 l 1090 710 l 1446 710 z "},"Ĵ":{"ha":856,"x_min":89,"x_max":915,"o":"m 768 1064 l 640 1171 l 513 1064 l 365 1064 l 563 1281 l 719 1281 l 915 1064 l 768 1064 m 399 -17 q 213 36 293 -17 q 89 185 132 89 l 231 253 q 400 140 289 140 q 558 339 558 140 l 558 972 l 722 972 l 722 331 q 693 161 722 232 q 614 53 664 90 q 511 0 564 17 q 399 -17 458 -17 z "},"ĵ":{"ha":856,"x_min":185,"x_max":735,"o":"m 460 907 l 332 800 l 185 800 l 382 1017 l 539 1017 l 735 800 l 588 800 l 460 907 m 590 710 l 590 18 q 524 -196 590 -125 q 286 -297 440 -274 l 206 -169 q 383 -110 335 -147 q 431 7 431 -72 l 431 569 l 235 569 l 235 710 l 590 710 z "},"Ķ":{"ha":856,"x_min":106,"x_max":815,"o":"m 474 626 l 815 0 l 622 0 l 363 488 l 271 374 l 271 0 l 106 0 l 106 972 l 271 972 l 271 606 l 560 972 l 753 972 l 474 626 m 432 -101 q 495 -128 469 -101 q 521 -201 521 -156 q 485 -319 521 -261 q 394 -411 449 -376 l 342 -375 q 410 -272 393 -331 q 363 -244 381 -265 q 344 -189 344 -222 q 370 -126 344 -150 q 432 -101 396 -101 z "},"ķ":{"ha":856,"x_min":122,"x_max":765,"o":"m 506 504 l 765 0 l 590 0 l 388 392 l 282 290 l 282 0 l 122 0 l 122 928 l 282 1003 l 282 467 l 529 710 l 719 710 l 506 504 m 424 -101 q 487 -128 461 -101 q 513 -201 513 -156 q 476 -319 513 -261 q 386 -411 440 -376 l 333 -375 q 401 -272 385 -331 q 354 -244 372 -265 q 336 -189 336 -222 q 362 -126 336 -150 q 424 -101 388 -101 z "},"ĸ":{"ha":856,"x_min":140,"x_max":744,"o":"m 568 0 l 397 317 l 300 197 l 300 0 l 140 0 l 140 710 l 300 710 l 300 407 l 542 710 l 717 710 l 503 446 l 744 0 l 568 0 z "},"Ĺ":{"ha":856,"x_min":81,"x_max":728,"o":"m 81 1065 l 278 1282 l 485 1282 l 238 1065 l 81 1065 m 114 0 l 114 972 l 279 972 l 279 158 l 728 158 l 728 0 l 114 0 z "},"ĺ":{"ha":856,"x_min":108,"x_max":714,"o":"m 703 1267 l 456 1050 l 300 1050 l 497 1267 l 703 1267 m 507 140 l 714 140 l 714 0 l 140 0 l 140 140 l 347 140 l 347 863 l 182 863 l 108 1003 l 507 1003 l 507 140 z "},"Ļ":{"ha":856,"x_min":106,"x_max":719,"o":"m 106 0 l 106 972 l 271 972 l 271 158 l 719 158 l 719 0 l 106 0 m 379 -411 l 326 -375 q 394 -272 378 -331 q 347 -244 365 -265 q 329 -189 329 -222 q 355 -126 329 -150 q 417 -101 381 -101 q 480 -128 454 -101 q 506 -201 506 -156 q 469 -319 506 -261 q 379 -411 433 -376 z "},"ļ":{"ha":856,"x_min":108,"x_max":714,"o":"m 507 140 l 714 140 l 714 0 l 140 0 l 140 140 l 347 140 l 347 863 l 182 863 l 108 1003 l 507 1003 l 507 140 m 428 -101 q 491 -128 465 -101 q 517 -201 517 -156 q 481 -319 517 -261 q 390 -411 444 -376 l 338 -375 q 406 -272 389 -331 q 358 -244 376 -265 q 340 -189 340 -222 q 366 -126 340 -150 q 428 -101 392 -101 z "},"Ľ":{"ha":856,"x_min":131,"x_max":744,"o":"m 131 0 l 131 972 l 296 972 l 296 158 l 744 158 l 744 0 l 131 0 m 440 624 l 390 661 q 432 972 432 747 l 583 972 l 583 961 q 440 624 583 760 z "},"ľ":{"ha":856,"x_min":108,"x_max":785,"o":"m 507 1003 l 507 140 l 714 140 l 714 0 l 140 0 l 140 140 l 347 140 l 347 863 l 182 863 l 108 1003 l 507 1003 m 633 1003 l 785 1003 l 785 992 q 642 654 785 790 l 592 692 q 633 1003 633 778 z "},"Ŀ":{"ha":856,"x_min":106,"x_max":726,"o":"m 106 0 l 106 972 l 271 972 l 271 158 l 719 158 l 719 0 l 106 0 m 615 378 q 538 409 569 378 q 507 485 507 440 q 538 561 507 529 q 615 593 569 593 q 694 561 661 593 q 726 485 726 529 q 694 409 726 440 q 615 378 663 378 z "},"ŀ":{"ha":856,"x_min":108,"x_max":965,"o":"m 507 1003 l 507 140 l 714 140 l 714 0 l 140 0 l 140 140 l 347 140 l 347 863 l 182 863 l 108 1003 l 507 1003 m 777 561 q 793 577 777 561 q 854 593 808 593 q 933 561 900 593 q 965 485 965 529 q 933 409 965 440 q 854 378 901 378 q 777 409 808 378 q 746 485 746 440 q 777 561 746 529 z "},"Ł":{"ha":856,"x_min":61,"x_max":772,"o":"m 156 0 l 156 313 l 61 240 l 61 421 l 156 492 l 156 972 l 321 972 l 321 618 l 510 761 l 510 582 l 321 439 l 321 158 l 772 158 l 772 0 l 156 0 z "},"ł":{"ha":856,"x_min":108,"x_max":714,"o":"m 507 140 l 714 140 l 714 0 l 140 0 l 140 140 l 347 140 l 347 347 l 243 267 l 243 422 l 347 501 l 347 863 l 182 863 l 108 1003 l 507 1003 l 507 624 l 613 704 l 613 550 l 507 469 l 507 140 z "},"Ń":{"ha":856,"x_min":106,"x_max":750,"o":"m 325 1065 l 522 1282 l 729 1282 l 482 1065 l 325 1065 m 106 0 l 106 972 l 263 972 l 565 372 q 600 306 590 329 q 597 372 597 358 l 597 972 l 750 972 l 750 0 l 600 0 l 292 603 q 256 669 267 646 q 260 603 260 649 l 260 0 l 106 0 z "},"ń":{"ha":856,"x_min":117,"x_max":740,"o":"m 700 1017 l 453 800 l 297 800 l 494 1017 l 700 1017 m 478 726 q 667 656 594 726 q 740 433 740 586 l 740 0 l 581 0 l 581 400 q 540 533 581 492 q 433 575 500 575 q 276 403 276 575 l 276 0 l 117 0 l 117 710 l 264 710 l 264 622 q 345 695 285 664 q 478 726 406 726 z "},"Ņ":{"ha":856,"x_min":106,"x_max":750,"o":"m 106 0 l 106 972 l 263 972 l 565 372 q 600 306 590 329 q 597 372 597 358 l 597 972 l 750 972 l 750 0 l 600 0 l 292 603 q 256 669 267 646 q 260 603 260 649 l 260 0 l 106 0 m 392 -411 l 339 -375 q 407 -272 390 -331 q 360 -244 378 -265 q 342 -189 342 -222 q 367 -126 342 -150 q 429 -101 393 -101 q 492 -128 467 -101 q 518 -201 518 -156 q 482 -319 518 -261 q 392 -411 446 -376 z "},"ņ":{"ha":856,"x_min":117,"x_max":740,"o":"m 478 726 q 667 656 594 726 q 740 433 740 586 l 740 0 l 581 0 l 581 400 q 540 533 581 492 q 433 575 500 575 q 276 403 276 575 l 276 0 l 117 0 l 117 710 l 264 710 l 264 622 q 345 695 285 664 q 478 726 406 726 m 428 -101 q 491 -128 465 -101 q 517 -201 517 -156 q 481 -319 517 -261 q 390 -411 444 -376 l 338 -375 q 406 -272 389 -331 q 358 -244 376 -265 q 340 -189 340 -222 q 366 -126 340 -150 q 428 -101 392 -101 z "},"Ň":{"ha":856,"x_min":106,"x_max":750,"o":"m 510 1063 l 351 1063 l 156 1279 l 303 1279 l 431 1172 l 558 1279 l 706 1279 l 510 1063 m 106 0 l 106 972 l 263 972 l 565 372 q 600 306 590 329 q 597 372 597 358 l 597 972 l 750 972 l 750 0 l 600 0 l 292 603 q 256 669 267 646 q 260 603 260 649 l 260 0 l 106 0 z "},"ň":{"ha":856,"x_min":115,"x_max":739,"o":"m 513 800 l 354 800 l 158 1017 l 306 1017 l 433 910 l 561 1017 l 708 1017 l 513 800 m 476 726 q 666 656 593 726 q 739 433 739 586 l 739 0 l 579 0 l 579 400 q 539 533 579 492 q 432 575 499 575 q 275 403 275 575 l 275 0 l 115 0 l 115 710 l 263 710 l 263 622 q 344 695 283 664 q 476 726 404 726 z "},"ŉ":{"ha":856,"x_min":-64,"x_max":857,"o":"m 53 1051 q 135 1017 103 1051 q 167 917 167 982 q 117 726 167 814 q 7 596 68 638 l -64 642 q 26 839 15 725 q -33 874 -11 847 q -56 940 -56 900 q -24 1021 -56 990 q 53 1051 8 1051 m 594 726 q 784 656 711 726 q 857 433 857 586 l 857 0 l 697 0 l 697 400 q 657 533 697 492 q 550 575 617 575 q 393 403 393 575 l 393 0 l 233 0 l 233 710 l 381 710 l 381 622 q 462 695 401 664 q 594 726 522 726 z "},"Ŋ":{"ha":856,"x_min":67,"x_max":789,"o":"m 510 -339 l 429 -211 q 581 -152 538 -190 q 625 -50 625 -114 l 625 22 l 263 603 q 228 669 250 621 q 231 603 231 649 l 231 0 l 67 0 l 67 972 l 224 972 l 593 372 q 628 306 618 329 q 625 372 625 358 l 625 972 l 789 972 l 789 -14 q 722 -234 789 -156 q 510 -339 656 -312 z "},"ŋ":{"ha":856,"x_min":117,"x_max":740,"o":"m 468 -328 l 389 -201 q 538 -148 496 -181 q 581 -57 581 -115 l 581 400 q 540 533 581 492 q 433 575 500 575 q 276 403 276 575 l 276 0 l 117 0 l 117 710 l 276 710 l 276 640 q 360 702 306 678 q 478 726 415 726 q 667 656 594 726 q 740 433 740 586 l 740 -14 q 678 -222 740 -153 q 468 -328 607 -303 z "},"Ō":{"ha":856,"x_min":60,"x_max":797,"o":"m 199 1088 l 199 1218 l 657 1218 l 657 1088 l 199 1088 m 428 -17 q 217 56 303 -17 q 96 239 132 129 q 60 486 60 349 q 96 733 60 624 q 217 916 132 843 q 428 989 303 989 q 567 962 504 989 q 672 888 629 935 q 742 776 714 840 q 784 639 771 711 q 797 486 797 567 q 784 333 797 406 q 742 197 771 261 q 672 85 714 132 q 567 10 629 38 q 428 -17 504 -17 m 428 140 q 539 192 493 140 q 605 319 585 243 q 625 486 625 394 q 576 734 625 636 q 428 832 526 832 q 281 731 331 832 q 231 486 231 631 q 280 239 231 338 q 428 140 329 140 z "},"ō":{"ha":856,"x_min":88,"x_max":768,"o":"m 199 824 l 199 954 l 657 954 l 657 824 l 199 824 m 428 -17 q 179 83 271 -17 q 88 354 88 182 q 179 626 88 525 q 428 726 271 726 q 677 626 586 726 q 768 354 768 525 q 677 83 768 183 q 428 -17 586 -17 m 428 136 q 560 194 514 136 q 607 354 607 253 q 560 515 607 456 q 428 575 514 575 q 296 515 343 575 q 249 354 249 456 q 296 195 249 254 q 428 136 343 136 z "},"Ŏ":{"ha":856,"x_min":60,"x_max":797,"o":"m 426 1061 q 233 1127 299 1061 q 167 1294 167 1193 l 294 1294 q 329 1213 294 1246 q 426 1181 364 1181 q 524 1213 489 1181 q 560 1294 560 1246 l 688 1294 q 622 1128 688 1194 q 426 1061 556 1061 m 428 -17 q 217 56 303 -17 q 96 239 132 129 q 60 486 60 349 q 96 733 60 624 q 217 916 132 843 q 428 989 303 989 q 567 962 504 989 q 672 888 629 935 q 742 776 714 840 q 784 639 771 711 q 797 486 797 567 q 784 333 797 406 q 742 197 771 261 q 672 85 714 132 q 567 10 629 38 q 428 -17 504 -17 m 428 140 q 539 192 493 140 q 605 319 585 243 q 625 486 625 394 q 576 734 625 636 q 428 832 526 832 q 281 731 331 832 q 231 486 231 631 q 280 239 231 338 q 428 140 329 140 z "},"ŏ":{"ha":856,"x_min":88,"x_max":768,"o":"m 426 797 q 233 863 299 797 q 167 1031 167 929 l 294 1031 q 329 949 294 982 q 426 917 364 917 q 524 949 489 917 q 560 1031 560 982 l 688 1031 q 622 864 688 931 q 426 797 556 797 m 428 -17 q 179 83 271 -17 q 88 354 88 182 q 179 626 88 525 q 428 726 271 726 q 677 626 586 726 q 768 354 768 525 q 677 83 768 183 q 428 -17 586 -17 m 428 136 q 560 194 514 136 q 607 354 607 253 q 560 515 607 456 q 428 575 514 575 q 296 515 343 575 q 249 354 249 456 q 296 195 249 254 q 428 136 343 136 z "},"Ő":{"ha":856,"x_min":60,"x_max":881,"o":"m 336 1063 l 181 1063 l 378 1279 l 583 1279 l 336 1063 m 633 1063 l 478 1063 l 675 1279 l 881 1279 l 633 1063 m 428 -17 q 217 56 303 -17 q 96 239 132 129 q 60 486 60 349 q 96 733 60 624 q 217 916 132 843 q 428 989 303 989 q 567 962 504 989 q 672 888 629 935 q 742 776 714 840 q 784 639 771 711 q 797 486 797 567 q 784 333 797 406 q 742 197 771 261 q 672 85 714 132 q 567 10 629 38 q 428 -17 504 -17 m 428 140 q 539 192 493 140 q 605 319 585 243 q 625 486 625 394 q 576 734 625 636 q 428 832 526 832 q 281 731 331 832 q 231 486 231 631 q 280 239 231 338 q 428 140 329 140 z "},"ő":{"ha":856,"x_min":88,"x_max":847,"o":"m 303 800 l 147 800 l 344 1017 l 550 1017 l 303 800 m 600 800 l 444 800 l 642 1017 l 847 1017 l 600 800 m 428 -17 q 179 83 271 -17 q 88 354 88 182 q 179 626 88 525 q 428 726 271 726 q 677 626 586 726 q 768 354 768 525 q 677 83 768 183 q 428 -17 586 -17 m 428 136 q 560 194 514 136 q 607 354 607 253 q 560 515 607 456 q 428 575 514 575 q 296 515 343 575 q 249 354 249 456 q 296 195 249 254 q 428 136 343 136 z "},"Œ":{"ha":856,"x_min":15,"x_max":843,"o":"m 843 157 l 843 0 l 432 0 q 344 -17 392 -17 q 195 24 260 -17 q 92 138 131 65 q 35 298 54 210 q 15 488 15 386 q 35 677 15 589 q 92 837 54 765 q 195 949 131 908 q 344 990 260 990 q 433 974 394 990 l 833 974 l 833 817 l 594 817 l 594 588 l 775 588 l 775 432 l 594 432 l 594 157 l 843 157 m 344 140 q 429 193 394 140 l 429 782 q 344 833 393 833 q 221 733 263 833 q 179 488 179 632 q 196 315 179 390 q 251 190 213 239 q 344 140 289 140 z "},"œ":{"ha":856,"x_min":25,"x_max":831,"o":"m 254 -17 q 86 82 147 -17 q 25 354 25 181 q 87 626 25 526 q 254 726 149 726 q 431 608 367 726 q 615 726 492 726 q 768 640 706 726 q 831 390 831 554 q 822 293 831 339 l 485 293 q 523 164 490 217 q 610 111 556 111 q 719 192 669 111 l 789 93 q 604 -17 713 -17 q 428 93 492 -17 q 254 -17 365 -17 m 254 111 q 331 176 304 111 q 358 354 358 242 q 331 533 358 467 q 254 599 304 599 q 178 533 206 599 q 151 354 151 468 q 178 177 151 243 q 254 111 206 111 m 485 415 l 704 415 q 676 552 703 506 q 604 599 649 599 q 523 553 556 599 q 485 415 490 508 z "},"Ŕ":{"ha":856,"x_min":106,"x_max":760,"o":"m 719 1279 l 472 1063 l 315 1063 l 513 1279 l 719 1279 m 760 678 q 709 507 760 583 q 563 399 658 431 l 758 0 l 575 0 l 386 381 l 271 381 l 271 0 l 106 0 l 106 972 l 442 972 q 592 948 528 972 q 691 881 656 924 q 743 788 726 839 q 760 678 760 738 m 271 817 l 271 536 l 444 536 q 556 576 522 536 q 590 676 590 615 q 557 776 590 735 q 444 817 524 817 l 271 817 z "},"ŕ":{"ha":856,"x_min":71,"x_max":779,"o":"m 722 1017 l 475 800 l 319 800 l 517 1017 l 722 1017 m 613 726 q 779 689 708 726 l 779 426 l 624 426 l 624 578 l 610 578 q 440 526 500 578 q 381 372 381 475 l 381 140 l 579 140 l 579 0 l 71 0 l 71 140 l 221 140 l 221 569 l 71 569 l 71 710 l 369 710 l 369 596 q 465 692 399 657 q 613 726 532 726 z "},"Ŗ":{"ha":856,"x_min":106,"x_max":760,"o":"m 760 678 q 709 507 760 583 q 563 399 658 431 l 758 0 l 575 0 l 386 381 l 271 381 l 271 0 l 106 0 l 106 972 l 442 972 q 592 948 528 972 q 691 881 656 924 q 743 788 726 839 q 760 678 760 738 m 271 817 l 271 536 l 444 536 q 556 576 522 536 q 590 676 590 615 q 557 776 590 735 q 444 817 524 817 l 271 817 m 426 -101 q 490 -128 464 -101 q 515 -201 515 -156 q 479 -319 515 -261 q 389 -411 443 -376 l 336 -375 q 404 -272 388 -331 q 357 -244 375 -265 q 339 -189 339 -222 q 365 -126 339 -150 q 426 -101 390 -101 z "},"ŗ":{"ha":856,"x_min":74,"x_max":782,"o":"m 615 726 q 782 689 711 726 l 782 426 l 626 426 l 626 578 l 613 578 q 443 526 503 578 q 383 372 383 475 l 383 140 l 582 140 l 582 0 l 74 0 l 74 140 l 224 140 l 224 569 l 74 569 l 74 710 l 372 710 l 372 596 q 468 692 401 657 q 615 726 535 726 m 317 -108 q 380 -135 354 -108 q 406 -208 406 -162 q 369 -326 406 -268 q 279 -418 333 -383 l 226 -382 q 294 -279 278 -337 q 247 -251 265 -272 q 229 -196 229 -229 q 255 -133 229 -157 q 317 -108 281 -108 z "},"Ř":{"ha":856,"x_min":106,"x_max":760,"o":"m 507 1060 l 349 1060 l 153 1276 l 300 1276 l 428 1169 l 556 1276 l 703 1276 l 507 1060 m 760 678 q 709 507 760 583 q 563 399 658 431 l 758 0 l 575 0 l 386 381 l 271 381 l 271 0 l 106 0 l 106 972 l 442 972 q 592 948 528 972 q 691 881 656 924 q 743 788 726 839 q 760 678 760 738 m 271 817 l 271 536 l 444 536 q 556 576 522 536 q 590 676 590 615 q 557 776 590 735 q 444 817 524 817 l 271 817 z "},"ř":{"ha":856,"x_min":69,"x_max":778,"o":"m 507 800 l 349 800 l 153 1017 l 300 1017 l 428 910 l 556 1017 l 703 1017 l 507 800 m 611 726 q 778 689 707 726 l 778 426 l 622 426 l 622 578 l 608 578 q 439 526 499 578 q 379 372 379 475 l 379 140 l 578 140 l 578 0 l 69 0 l 69 140 l 219 140 l 219 569 l 69 569 l 69 710 l 368 710 l 368 596 q 464 692 397 657 q 611 726 531 726 z "},"Ś":{"ha":856,"x_min":93,"x_max":761,"o":"m 318 1064 l 515 1281 l 721 1281 l 474 1064 l 318 1064 m 439 -17 q 226 51 321 -17 q 93 233 132 119 l 243 289 q 331 180 275 221 q 453 139 388 139 q 556 172 517 139 q 594 268 594 206 q 542 362 594 321 q 394 444 489 403 q 299 490 335 471 q 217 544 263 510 q 150 626 172 579 q 128 732 128 674 q 210 915 128 840 q 428 989 293 989 q 615 931 535 989 q 721 782 694 872 l 572 732 q 418 833 522 833 q 329 806 364 833 q 294 729 294 778 q 297 708 294 718 q 307 688 300 697 q 320 672 314 679 q 340 655 326 664 q 362 640 353 646 q 389 626 371 635 q 417 613 407 617 q 449 598 426 608 q 481 583 471 588 q 578 534 539 557 q 664 474 617 511 q 736 385 711 436 q 761 272 761 333 q 667 61 761 139 q 439 -17 574 -17 z "},"ś":{"ha":856,"x_min":143,"x_max":728,"o":"m 325 800 l 522 1017 l 728 1017 l 481 800 l 325 800 m 432 -17 q 265 17 342 -17 q 143 110 189 51 l 247 204 q 440 119 335 119 q 525 138 492 119 q 558 192 558 156 q 538 231 558 213 q 492 263 518 250 q 414 296 465 275 q 405 300 408 299 q 396 303 401 301 q 386 307 390 306 q 310 341 335 329 q 249 374 285 353 q 198 415 214 396 q 169 465 182 435 q 157 532 157 494 q 235 674 157 622 q 431 726 313 726 q 696 614 596 726 l 589 526 q 425 590 513 590 q 338 574 371 590 q 306 529 306 558 q 317 502 306 515 q 356 474 328 489 q 401 452 383 460 q 463 428 419 444 q 632 344 590 376 q 707 193 706 286 q 633 39 707 94 q 432 -17 558 -17 z "},"Ŝ":{"ha":856,"x_min":93,"x_max":761,"o":"m 558 1063 l 431 1169 l 303 1063 l 156 1063 l 353 1279 l 510 1279 l 706 1063 l 558 1063 m 439 -17 q 226 51 321 -17 q 93 233 132 119 l 243 289 q 331 180 275 221 q 453 139 388 139 q 556 172 517 139 q 594 268 594 206 q 542 362 594 321 q 394 444 489 403 q 299 490 335 471 q 217 544 263 510 q 150 626 172 579 q 128 732 128 674 q 210 915 128 840 q 428 989 293 989 q 615 931 535 989 q 721 782 694 872 l 572 732 q 418 833 522 833 q 329 806 364 833 q 294 729 294 778 q 297 708 294 718 q 307 688 300 697 q 320 672 314 679 q 340 655 326 664 q 362 640 353 646 q 389 626 371 635 q 417 613 407 617 q 449 598 426 608 q 481 583 471 588 q 578 534 539 557 q 664 474 617 511 q 736 385 711 436 q 761 272 761 333 q 667 61 761 139 q 439 -17 574 -17 z "},"ŝ":{"ha":856,"x_min":143,"x_max":707,"o":"m 556 800 l 428 907 l 300 800 l 153 800 l 350 1017 l 507 1017 l 703 800 l 556 800 m 432 -17 q 265 17 342 -17 q 143 110 189 51 l 247 204 q 440 119 335 119 q 525 138 492 119 q 558 192 558 156 q 538 231 558 213 q 492 263 518 250 q 414 296 465 275 q 405 300 408 299 q 396 303 401 301 q 386 307 390 306 q 310 341 335 329 q 249 374 285 353 q 198 415 214 396 q 169 465 182 435 q 157 532 157 494 q 235 674 157 622 q 431 726 313 726 q 696 614 596 726 l 589 526 q 425 590 513 590 q 338 574 371 590 q 306 529 306 558 q 317 502 306 515 q 356 474 328 489 q 401 452 383 460 q 463 428 419 444 q 632 344 590 376 q 707 193 706 286 q 633 39 707 94 q 432 -17 558 -17 z "},"Ş":{"ha":856,"x_min":90,"x_max":794,"o":"m 447 -336 q 303 -276 350 -336 l 376 -222 q 432 -246 393 -246 q 482 -230 464 -246 q 500 -187 500 -214 q 481 -147 500 -162 q 428 -131 461 -131 q 371 -147 396 -131 l 339 -107 l 414 -14 q 211 62 297 -4 q 90 233 125 128 l 242 289 q 330 180 272 221 q 460 139 388 139 q 583 174 538 139 q 628 272 628 208 q 576 369 628 333 q 425 439 524 406 q 338 471 369 458 q 260 509 307 483 q 189 563 214 535 q 144 634 164 590 q 125 732 125 678 q 211 915 125 842 q 443 989 297 989 q 646 931 564 989 q 754 782 728 874 l 606 732 q 435 833 558 833 q 329 806 367 833 q 292 729 292 779 q 321 669 292 696 q 383 628 350 642 q 481 592 417 614 q 569 558 536 572 q 650 517 601 544 q 726 458 699 489 q 774 379 753 428 q 794 272 794 331 q 715 75 794 150 q 507 -14 636 0 l 475 -67 q 591 -101 553 -67 q 629 -189 629 -135 q 581 -295 629 -254 q 447 -336 532 -336 z "},"ş":{"ha":856,"x_min":172,"x_max":714,"o":"m 426 -336 q 282 -276 329 -336 l 356 -222 q 411 -246 372 -246 q 461 -230 443 -246 q 479 -187 479 -214 q 459 -147 479 -162 q 407 -131 439 -131 q 350 -147 375 -131 l 318 -107 l 394 -12 q 172 110 240 14 l 279 201 q 450 119 354 119 q 565 192 565 119 q 557 223 565 208 q 538 247 549 238 q 501 269 526 257 q 460 289 476 282 q 407 310 443 296 q 242 399 296 351 q 189 532 189 446 q 260 674 189 622 q 440 726 332 726 q 692 614 597 726 l 586 526 q 439 590 517 590 q 365 574 392 590 q 338 528 338 557 q 375 475 338 497 q 482 429 413 453 q 569 394 533 411 q 641 351 604 378 q 696 284 678 324 q 714 193 714 244 q 653 49 714 103 q 485 -14 592 -4 l 453 -67 q 569 -101 531 -67 q 607 -189 607 -135 q 558 -295 607 -254 q 426 -336 510 -336 z "},"Š":{"ha":856,"x_min":93,"x_max":761,"o":"m 349 1060 l 153 1276 l 300 1276 l 428 1169 l 556 1276 l 703 1276 l 507 1060 l 349 1060 m 439 -17 q 226 51 321 -17 q 93 233 132 119 l 243 289 q 331 180 275 221 q 453 139 388 139 q 556 172 517 139 q 594 268 594 206 q 542 362 594 321 q 394 444 489 403 q 299 490 335 471 q 217 544 263 510 q 150 626 172 579 q 128 732 128 674 q 210 915 128 840 q 428 989 293 989 q 615 931 535 989 q 721 782 694 872 l 572 732 q 418 833 522 833 q 329 806 364 833 q 294 729 294 778 q 297 708 294 718 q 307 688 300 697 q 320 672 314 679 q 340 655 326 664 q 362 640 353 646 q 389 626 371 635 q 417 613 407 617 q 449 598 426 608 q 481 583 471 588 q 578 534 539 557 q 664 474 617 511 q 736 385 711 436 q 761 272 761 333 q 667 61 761 139 q 439 -17 574 -17 z "},"š":{"ha":856,"x_min":143,"x_max":707,"o":"m 507 800 l 349 800 l 153 1017 l 300 1017 l 428 910 l 556 1017 l 703 1017 l 507 800 m 432 -17 q 265 17 342 -17 q 143 110 189 51 l 247 204 q 440 119 335 119 q 525 138 492 119 q 558 192 558 156 q 538 231 558 213 q 492 263 518 250 q 414 296 465 275 q 405 300 408 299 q 396 303 401 301 q 386 307 390 306 q 310 341 335 329 q 249 374 285 353 q 198 415 214 396 q 169 465 182 435 q 157 532 157 494 q 235 674 157 622 q 431 726 313 726 q 696 614 596 726 l 589 526 q 425 590 513 590 q 338 574 371 590 q 306 529 306 558 q 317 502 306 515 q 356 474 328 489 q 401 452 383 460 q 463 428 419 444 q 632 344 590 376 q 707 193 706 286 q 633 39 707 94 q 432 -17 558 -17 z "},"Ţ":{"ha":856,"x_min":85,"x_max":800,"o":"m 421 -336 q 276 -276 324 -336 l 350 -222 q 406 -246 367 -246 q 456 -230 438 -246 q 474 -187 474 -214 q 454 -147 474 -162 q 401 -131 435 -131 q 344 -147 369 -131 l 313 -107 l 399 0 l 360 0 l 360 814 l 85 814 l 85 972 l 800 972 l 800 814 l 525 814 l 525 0 l 489 0 l 447 -67 q 563 -101 525 -67 q 601 -189 601 -135 q 553 -295 601 -254 q 421 -336 504 -336 z "},"ţ":{"ha":856,"x_min":224,"x_max":661,"o":"m 464 -336 q 318 -276 365 -336 l 393 -222 q 447 -246 410 -246 q 498 -230 479 -246 q 517 -187 517 -214 q 497 -147 517 -162 q 444 -131 476 -131 q 386 -147 411 -131 l 354 -107 l 433 -8 q 331 165 331 19 l 331 569 l 224 569 l 224 710 l 331 710 l 331 926 l 490 1003 l 490 710 l 654 710 l 654 569 l 490 569 l 490 194 q 547 125 490 125 q 661 158 597 125 l 643 15 q 543 -14 597 -8 q 522 -15 535 -15 l 490 -67 q 606 -101 567 -67 q 644 -189 644 -135 q 596 -295 644 -254 q 464 -336 547 -336 z "},"Ť":{"ha":856,"x_min":63,"x_max":793,"o":"m 349 1060 l 153 1276 l 300 1276 l 428 1169 l 556 1276 l 703 1276 l 507 1060 l 349 1060 m 344 0 l 344 814 l 63 814 l 63 972 l 793 972 l 793 814 l 510 814 l 510 0 l 344 0 z "},"ť":{"ha":856,"x_min":97,"x_max":696,"o":"m 553 818 l 503 856 q 544 1167 544 942 l 696 1167 l 696 1156 q 553 818 696 954 m 454 -17 q 246 176 246 -17 l 246 569 l 97 569 l 97 710 l 246 710 l 246 926 l 406 1003 l 406 710 l 647 710 l 647 569 l 406 569 l 406 207 q 506 125 406 125 q 628 158 564 125 l 608 15 q 454 -17 547 -17 z "},"Ŧ":{"ha":856,"x_min":69,"x_max":785,"o":"m 344 0 l 344 367 l 181 367 l 181 519 l 344 519 l 344 814 l 69 814 l 69 972 l 785 972 l 785 814 l 510 814 l 510 519 l 672 519 l 672 367 l 510 367 l 510 0 l 344 0 z "},"ŧ":{"ha":856,"x_min":136,"x_max":686,"o":"m 686 569 l 444 569 l 444 426 l 686 426 l 686 286 l 444 286 l 444 207 q 544 125 444 125 q 667 158 603 125 l 647 15 q 493 -17 586 -17 q 285 176 285 -17 l 285 286 l 136 286 l 136 426 l 285 426 l 285 569 l 136 569 l 136 710 l 285 710 l 285 926 l 444 1003 l 444 710 l 686 710 l 686 569 z "},"Ũ":{"ha":856,"x_min":100,"x_max":757,"o":"m 538 1081 q 412 1113 485 1081 q 308 1146 339 1146 q 243 1086 244 1146 l 167 1086 q 318 1268 167 1268 q 444 1235 372 1268 q 547 1203 515 1203 q 613 1263 611 1203 l 689 1263 q 538 1081 689 1081 m 428 -17 q 192 76 283 -17 q 100 371 100 168 l 100 972 l 264 972 l 264 371 q 307 192 264 244 q 428 140 350 140 q 592 371 592 140 l 592 972 l 757 972 l 757 371 q 665 77 757 171 q 428 -17 574 -17 z "},"ũ":{"ha":856,"x_min":117,"x_max":739,"o":"m 538 817 q 412 849 485 817 q 308 882 339 882 q 243 822 244 882 l 167 822 q 318 1004 167 1004 q 444 972 372 1004 q 547 939 515 939 q 613 999 611 939 l 689 999 q 538 817 689 817 m 381 -17 q 190 53 263 -17 q 117 278 117 124 l 117 710 l 276 710 l 276 313 q 422 136 276 136 q 579 310 579 136 l 579 710 l 739 710 l 739 0 l 579 0 l 579 68 q 381 -17 511 -17 z "},"Ū":{"ha":856,"x_min":100,"x_max":757,"o":"m 199 1088 l 199 1218 l 657 1218 l 657 1088 l 199 1088 m 428 -17 q 192 76 283 -17 q 100 371 100 168 l 100 972 l 264 972 l 264 371 q 307 192 264 244 q 428 140 350 140 q 592 371 592 140 l 592 972 l 757 972 l 757 371 q 665 77 757 171 q 428 -17 574 -17 z "},"ū":{"ha":856,"x_min":117,"x_max":739,"o":"m 199 824 l 199 954 l 657 954 l 657 824 l 199 824 m 381 -17 q 190 53 263 -17 q 117 278 117 124 l 117 710 l 276 710 l 276 313 q 422 136 276 136 q 579 310 579 136 l 579 710 l 739 710 l 739 0 l 579 0 l 579 68 q 381 -17 511 -17 z "},"Ŭ":{"ha":856,"x_min":100,"x_max":757,"o":"m 426 1061 q 233 1127 299 1061 q 167 1294 167 1193 l 294 1294 q 329 1213 294 1246 q 426 1181 364 1181 q 524 1213 489 1181 q 560 1294 560 1246 l 688 1294 q 622 1128 688 1194 q 426 1061 556 1061 m 428 -17 q 192 76 283 -17 q 100 371 100 168 l 100 972 l 264 972 l 264 371 q 307 192 264 244 q 428 140 350 140 q 592 371 592 140 l 592 972 l 757 972 l 757 371 q 665 77 757 171 q 428 -17 574 -17 z "},"ŭ":{"ha":856,"x_min":117,"x_max":739,"o":"m 426 797 q 233 863 299 797 q 167 1031 167 929 l 294 1031 q 329 949 294 982 q 426 917 364 917 q 524 949 489 917 q 560 1031 560 982 l 688 1031 q 622 864 688 931 q 426 797 556 797 m 381 -17 q 190 53 263 -17 q 117 278 117 124 l 117 710 l 276 710 l 276 313 q 422 136 276 136 q 579 310 579 136 l 579 710 l 739 710 l 739 0 l 579 0 l 579 68 q 381 -17 511 -17 z "},"Ů":{"ha":856,"x_min":100,"x_max":757,"o":"m 551 1049 q 526 1024 551 1049 q 428 999 500 999 q 304 1049 356 999 q 253 1172 253 1100 q 304 1294 253 1244 q 428 1344 356 1344 q 552 1294 501 1344 q 603 1172 603 1244 q 551 1049 603 1100 m 428 1110 q 470 1128 453 1110 q 488 1172 488 1146 q 470 1217 488 1199 q 428 1235 453 1235 q 385 1217 401 1235 q 368 1172 368 1200 q 385 1127 368 1144 q 428 1110 401 1110 m 428 -17 q 192 76 283 -17 q 100 371 100 168 l 100 972 l 264 972 l 264 371 q 307 192 264 244 q 428 140 350 140 q 592 371 592 140 l 592 972 l 757 972 l 757 371 q 665 77 757 171 q 428 -17 574 -17 z "},"ů":{"ha":856,"x_min":117,"x_max":739,"o":"m 551 785 q 526 760 551 785 q 428 735 500 735 q 304 785 356 735 q 253 908 253 836 q 304 1031 253 981 q 428 1081 356 1081 q 552 1031 501 1081 q 603 908 603 981 q 551 785 603 836 m 428 846 q 470 864 453 846 q 488 908 488 882 q 470 953 488 935 q 428 971 453 971 q 385 953 401 971 q 368 908 368 936 q 385 863 368 881 q 428 846 401 846 m 381 -17 q 190 53 263 -17 q 117 278 117 124 l 117 710 l 276 710 l 276 313 q 422 136 276 136 q 579 310 579 136 l 579 710 l 739 710 l 739 0 l 579 0 l 579 68 q 381 -17 511 -17 z "},"Ű":{"ha":856,"x_min":94,"x_max":858,"o":"m 314 1064 l 158 1064 l 356 1281 l 561 1281 l 314 1064 m 611 1064 l 456 1064 l 653 1281 l 858 1281 l 611 1064 m 422 -17 q 186 76 278 -17 q 94 371 94 168 l 94 972 l 258 972 l 258 371 q 301 192 258 244 q 422 140 344 140 q 586 371 586 140 l 586 972 l 751 972 l 751 371 q 660 77 751 171 q 422 -17 568 -17 z "},"ű":{"ha":856,"x_min":101,"x_max":858,"o":"m 314 800 l 158 800 l 356 1017 l 561 1017 l 314 800 m 611 800 l 456 800 l 653 1017 l 858 1017 l 611 800 m 365 -17 q 174 53 247 -17 q 101 278 101 124 l 101 710 l 261 710 l 261 313 q 407 136 261 136 q 564 310 564 136 l 564 710 l 724 710 l 724 0 l 564 0 l 564 68 q 365 -17 496 -17 z "},"Ų":{"ha":856,"x_min":100,"x_max":757,"o":"m 592 972 l 757 972 l 757 371 q 579 14 757 97 l 578 14 q 574 13 575 13 q 567 8 572 11 q 446 -77 485 -28 q 407 -175 407 -126 q 424 -224 407 -207 q 465 -240 440 -240 q 525 -212 503 -240 l 601 -267 q 443 -336 542 -336 q 322 -296 368 -336 q 275 -189 275 -256 q 396 -15 275 -81 q 182 88 264 -6 q 100 371 100 181 l 100 972 l 264 972 l 264 371 q 307 192 264 244 q 428 140 350 140 q 592 371 592 140 l 592 972 z "},"ų":{"ha":856,"x_min":117,"x_max":739,"o":"m 583 -350 q 458 -310 506 -350 q 411 -203 411 -269 q 455 -83 411 -137 q 579 1 499 -28 l 579 68 q 381 -17 511 -17 q 190 53 263 -17 q 117 278 117 124 l 117 710 l 276 710 l 276 313 q 422 136 276 136 q 579 310 579 136 l 579 710 l 739 710 l 739 0 q 593 -73 643 -18 q 543 -189 543 -128 q 560 -237 543 -221 q 601 -254 576 -254 q 661 -226 639 -254 l 738 -281 q 583 -350 678 -350 z "},"Ŵ":{"ha":856,"x_min":18,"x_max":838,"o":"m 556 1064 l 428 1171 l 300 1064 l 153 1064 l 350 1281 l 507 1281 l 703 1064 l 556 1064 m 161 0 l 18 972 l 167 972 l 243 393 q 247 374 244 388 q 250 348 249 360 q 253 325 251 336 q 267 394 256 343 l 383 972 l 472 972 l 590 397 q 604 329 603 336 q 610 368 606 343 q 614 396 614 393 l 681 972 l 838 972 l 693 0 l 563 0 l 439 594 q 426 665 431 638 q 420 628 425 653 q 414 596 415 604 l 292 0 l 161 0 z "},"ŵ":{"ha":856,"x_min":21,"x_max":835,"o":"m 556 800 l 428 907 l 300 800 l 153 800 l 350 1017 l 507 1017 l 703 800 l 556 800 m 203 0 l 21 710 l 165 710 l 256 344 q 269 275 265 303 q 282 346 278 325 l 367 710 l 489 710 l 574 344 q 588 274 581 322 q 601 344 592 303 l 689 710 l 835 710 l 651 0 l 529 0 l 447 356 q 428 453 439 389 q 416 397 425 435 q 406 356 407 358 l 328 0 l 203 0 z "},"Ŷ":{"ha":856,"x_min":60,"x_max":796,"o":"m 428 1171 l 300 1064 l 153 1064 l 350 1281 l 507 1281 l 703 1064 l 556 1064 l 428 1171 m 614 972 l 796 972 l 510 381 l 510 0 l 346 0 l 346 381 l 60 972 l 243 972 l 428 557 l 614 972 z "},"ŷ":{"ha":856,"x_min":81,"x_max":775,"o":"m 554 800 l 426 907 l 299 800 l 151 800 l 349 1017 l 506 1017 l 701 800 l 554 800 m 238 -269 l 346 13 l 81 710 l 243 710 l 406 276 q 426 210 417 249 q 433 231 429 219 q 442 256 438 243 q 449 276 446 269 l 611 710 l 775 710 l 403 -269 l 238 -269 z "},"Ÿ":{"ha":856,"x_min":60,"x_max":796,"o":"m 366 1106 q 352 1093 366 1106 q 300 1079 339 1079 q 235 1106 261 1079 q 208 1172 208 1132 q 235 1238 208 1211 q 300 1264 261 1264 q 366 1238 339 1264 q 393 1172 393 1211 q 366 1106 393 1133 m 622 1106 q 608 1093 622 1106 q 556 1079 594 1079 q 490 1106 517 1079 q 464 1172 464 1132 q 490 1238 464 1211 q 556 1264 517 1264 q 622 1238 594 1264 q 649 1172 649 1211 q 622 1106 649 1133 m 614 972 l 796 972 l 510 381 l 510 0 l 346 0 l 346 381 l 60 972 l 243 972 l 428 557 l 614 972 z "},"Ź":{"ha":856,"x_min":100,"x_max":757,"o":"m 726 1282 l 479 1065 l 322 1065 l 519 1282 l 726 1282 m 757 972 l 757 847 l 314 157 l 756 157 l 756 0 l 100 0 l 100 125 l 540 817 l 131 817 l 131 972 l 757 972 z "},"ź":{"ha":856,"x_min":136,"x_max":738,"o":"m 335 800 l 532 1017 l 738 1017 l 490 800 l 335 800 m 136 0 l 136 121 l 515 567 l 163 567 l 163 710 l 719 710 l 719 592 l 340 143 l 718 143 l 718 0 l 136 0 z "},"Ż":{"ha":856,"x_min":100,"x_max":757,"o":"m 508 1106 q 494 1093 508 1106 q 442 1079 481 1079 q 376 1106 403 1079 q 350 1172 350 1132 q 376 1238 350 1211 q 442 1264 403 1264 q 508 1238 481 1264 q 535 1172 535 1211 q 508 1106 535 1133 m 757 972 l 757 847 l 314 157 l 756 157 l 756 0 l 100 0 l 100 125 l 540 817 l 131 817 l 131 972 l 757 972 z "},"ż":{"ha":856,"x_min":136,"x_max":719,"o":"m 497 842 q 483 829 497 842 q 431 815 469 815 q 365 842 392 815 q 339 908 339 868 q 365 974 339 947 q 431 1000 392 1000 q 497 974 469 1000 q 524 908 524 947 q 497 842 524 869 m 136 0 l 136 121 l 515 567 l 163 567 l 163 710 l 719 710 l 719 592 l 340 143 l 718 143 l 718 0 l 136 0 z "},"Ž":{"ha":856,"x_min":100,"x_max":757,"o":"m 518 1064 l 360 1064 l 164 1281 l 311 1281 l 439 1174 l 567 1281 l 714 1281 l 518 1064 m 757 972 l 757 847 l 314 157 l 756 157 l 756 0 l 100 0 l 100 125 l 540 817 l 131 817 l 131 972 l 757 972 z "},"ž":{"ha":856,"x_min":129,"x_max":713,"o":"m 506 800 l 347 800 l 151 1017 l 299 1017 l 426 910 l 554 1017 l 701 1017 l 506 800 m 129 0 l 129 121 l 508 567 l 156 567 l 156 710 l 713 710 l 713 592 l 333 143 l 711 143 l 711 0 l 129 0 z "},"ſ":{"ha":856,"x_min":285,"x_max":601,"o":"m 285 0 l 285 821 q 333 951 285 913 q 453 989 381 989 q 601 954 538 989 l 601 824 q 500 847 544 847 q 444 790 444 847 l 444 0 l 285 0 z "},"Ə":{"ha":856,"x_min":58,"x_max":797,"o":"m 424 989 q 697 855 596 989 q 797 485 797 721 q 694 118 797 253 q 421 -17 592 -17 q 160 108 261 -17 q 58 446 58 232 q 64 564 58 515 l 622 564 q 555 760 607 690 q 422 831 503 831 q 317 803 361 831 q 232 724 274 776 l 121 843 q 424 989 249 989 m 421 142 q 624 408 604 142 l 239 408 q 288 213 239 285 q 421 142 338 142 z "},"ƒ":{"ha":856,"x_min":174,"x_max":682,"o":"m 253 -328 l 174 -201 q 322 -148 279 -181 q 364 -57 364 -115 l 364 567 l 263 567 l 263 710 l 364 710 l 364 821 q 412 951 364 913 q 532 989 460 989 q 682 954 618 989 l 682 824 q 581 847 621 847 q 524 790 524 847 l 524 710 l 682 710 l 682 567 l 524 567 l 524 -21 q 456 -230 524 -158 q 253 -328 388 -301 z "},"Ǎ":{"ha":856,"x_min":32,"x_max":824,"o":"m 503 1064 l 344 1064 l 149 1281 l 296 1281 l 424 1174 l 551 1281 l 699 1281 l 503 1064 m 646 0 l 582 214 l 274 214 l 210 0 l 32 0 l 350 972 l 506 972 l 824 0 l 646 0 m 318 364 l 538 364 l 451 653 q 428 761 438 697 q 404 653 411 676 l 318 364 z "},"ǎ":{"ha":856,"x_min":110,"x_max":725,"o":"m 514 800 l 356 800 l 160 1017 l 307 1017 l 435 910 l 563 1017 l 710 1017 l 514 800 m 372 -17 q 183 44 256 -17 q 110 219 110 106 q 193 394 110 335 q 393 454 276 454 q 569 417 494 454 l 569 458 q 429 586 569 586 q 204 514 313 586 l 156 644 q 443 726 285 726 q 725 460 725 726 l 725 0 l 569 0 l 569 56 q 372 -17 494 -17 m 401 124 q 569 194 501 124 l 569 286 q 418 318 506 318 q 308 293 351 318 q 264 219 264 268 q 300 150 264 176 q 401 124 336 124 z "},"Ǐ":{"ha":856,"x_min":142,"x_max":714,"o":"m 507 1064 l 349 1064 l 153 1281 l 300 1281 l 428 1174 l 556 1281 l 703 1281 l 507 1064 m 714 826 l 510 826 l 510 146 l 714 146 l 714 0 l 142 0 l 142 146 l 344 146 l 344 826 l 142 826 l 142 972 l 714 972 l 714 826 z "},"ǐ":{"ha":856,"x_min":153,"x_max":710,"o":"m 507 800 l 349 800 l 153 1017 l 300 1017 l 428 910 l 556 1017 l 703 1017 l 507 800 m 514 140 l 710 140 l 710 0 l 158 0 l 158 140 l 354 140 l 354 575 l 158 575 l 158 715 l 514 715 l 514 140 z "},"Ǒ":{"ha":856,"x_min":60,"x_max":797,"o":"m 507 1064 l 349 1064 l 153 1281 l 300 1281 l 428 1174 l 556 1281 l 703 1281 l 507 1064 m 428 -17 q 217 56 303 -17 q 96 239 132 129 q 60 486 60 349 q 96 733 60 624 q 217 916 132 843 q 428 989 303 989 q 567 962 504 989 q 672 888 629 935 q 742 776 714 840 q 784 639 771 711 q 797 486 797 567 q 784 333 797 406 q 742 197 771 261 q 672 85 714 132 q 567 10 629 38 q 428 -17 504 -17 m 428 140 q 539 192 493 140 q 605 319 585 243 q 625 486 625 394 q 576 734 625 636 q 428 832 526 832 q 281 731 331 832 q 231 486 231 631 q 280 239 231 338 q 428 140 329 140 z "},"ǒ":{"ha":856,"x_min":85,"x_max":765,"o":"m 507 800 l 349 800 l 153 1017 l 300 1017 l 428 910 l 556 1017 l 703 1017 l 507 800 m 425 -17 q 176 83 268 -17 q 85 354 85 182 q 176 626 85 525 q 425 726 268 726 q 674 626 583 726 q 765 354 765 525 q 674 83 765 183 q 425 -17 583 -17 m 425 136 q 558 194 511 136 q 604 354 604 253 q 558 515 604 456 q 425 575 511 575 q 293 515 340 575 q 246 354 246 456 q 293 195 246 254 q 425 136 340 136 z "},"Ǔ":{"ha":856,"x_min":100,"x_max":757,"o":"m 507 1064 l 349 1064 l 153 1281 l 300 1281 l 428 1174 l 556 1281 l 703 1281 l 507 1064 m 428 -17 q 192 76 283 -17 q 100 371 100 168 l 100 972 l 264 972 l 264 371 q 307 192 264 244 q 428 140 350 140 q 592 371 592 140 l 592 972 l 757 972 l 757 371 q 665 77 757 171 q 428 -17 574 -17 z "},"ǔ":{"ha":856,"x_min":117,"x_max":739,"o":"m 507 800 l 349 800 l 153 1017 l 300 1017 l 428 910 l 556 1017 l 703 1017 l 507 800 m 381 -17 q 190 53 263 -17 q 117 278 117 124 l 117 710 l 276 710 l 276 313 q 422 136 276 136 q 579 310 579 136 l 579 710 l 739 710 l 739 0 l 579 0 l 579 68 q 381 -17 511 -17 z "},"Ǻ":{"ha":856,"x_min":32,"x_max":824,"o":"m 738 1475 l 490 1258 l 333 1258 l 531 1475 l 738 1475 m 646 0 l 582 214 l 274 214 l 210 0 l 32 0 l 326 900 q 253 1042 253 953 q 304 1164 253 1114 q 428 1214 356 1214 q 552 1164 501 1214 q 603 1042 603 1114 q 529 900 603 953 l 824 0 l 646 0 m 428 1104 q 385 1087 401 1104 q 368 1042 368 1069 q 385 997 368 1014 q 428 979 401 979 q 470 997 453 979 q 488 1042 488 1015 q 470 1086 488 1068 q 428 1104 453 1104 m 318 364 l 538 364 l 451 653 q 428 761 438 697 q 404 653 411 676 l 318 364 z "},"ǻ":{"ha":856,"x_min":111,"x_max":744,"o":"m 342 1189 l 539 1406 l 744 1406 l 497 1189 l 342 1189 m 572 834 q 547 809 572 834 q 449 783 521 783 q 325 834 376 783 q 274 957 274 885 q 325 1079 274 1029 q 449 1129 376 1129 q 573 1079 522 1129 q 624 957 624 1029 q 572 834 624 885 m 449 894 q 491 913 474 894 q 508 957 508 931 q 491 1001 508 983 q 449 1019 474 1019 q 406 1002 422 1019 q 389 957 389 985 q 406 912 389 929 q 449 894 422 894 m 374 -17 q 184 44 257 -17 q 111 219 111 106 q 194 394 111 335 q 394 454 278 454 q 571 417 496 454 l 571 458 q 431 586 571 586 q 206 514 314 586 l 157 644 q 444 726 286 726 q 726 460 726 726 l 726 0 l 571 0 l 571 56 q 374 -17 496 -17 m 403 124 q 571 194 503 124 l 571 286 q 419 318 507 318 q 309 293 353 318 q 265 219 265 268 q 301 150 265 176 q 403 124 338 124 z "},"Ǽ":{"ha":856,"x_min":0,"x_max":871,"o":"m 871 1282 l 624 1065 l 467 1065 l 664 1282 l 871 1282 m 618 426 l 618 154 l 850 154 l 850 0 l 464 0 l 464 214 l 261 214 l 176 0 l 0 0 l 406 972 l 821 972 l 821 819 l 618 819 l 618 578 l 765 578 l 765 426 l 618 426 m 321 364 l 464 365 l 464 740 q 456 715 463 735 q 444 679 450 696 q 435 653 439 663 l 321 364 z "},"ǽ":{"ha":856,"x_min":25,"x_max":829,"o":"m 335 800 l 532 1017 l 738 1017 l 490 800 l 335 800 m 221 -17 q 80 44 135 -17 q 25 219 25 106 q 87 397 25 336 q 236 457 149 457 q 351 422 300 457 l 351 447 q 253 599 351 599 q 99 521 176 599 l 61 644 q 272 726 161 726 q 432 619 383 726 q 611 726 492 726 q 767 639 704 726 q 829 390 829 551 q 821 293 829 339 l 479 293 q 518 165 483 218 q 606 111 553 111 q 718 190 667 111 l 786 93 q 600 -17 710 -17 q 417 104 483 -17 q 221 -17 346 -17 m 479 417 l 701 417 q 672 552 700 506 q 600 599 644 599 q 518 553 551 599 q 479 417 485 508 m 243 110 q 311 140 278 110 q 361 208 344 169 q 351 289 351 257 q 253 332 308 332 q 182 303 211 332 q 153 218 153 275 q 176 140 153 169 q 243 110 200 110 z "},"Ǿ":{"ha":856,"x_min":11,"x_max":846,"o":"m 725 1282 l 478 1065 l 321 1065 l 518 1282 l 725 1282 m 846 989 l 725 810 q 797 486 797 679 q 784 333 797 406 q 742 197 771 261 q 672 85 714 132 q 567 10 629 38 q 428 -17 504 -17 q 218 54 304 -17 l 169 -17 l 11 -17 l 131 163 q 60 486 60 292 q 96 733 60 624 q 217 916 132 843 q 428 989 303 989 q 639 918 550 989 l 686 989 l 846 989 m 231 486 q 246 333 231 407 l 544 779 q 428 832 499 832 q 281 731 331 832 q 231 486 231 631 m 625 486 q 610 638 625 565 l 311 193 q 428 140 357 140 q 539 192 493 140 q 605 319 585 243 q 625 486 625 394 z "},"ǿ":{"ha":856,"x_min":88,"x_max":768,"o":"m 731 1017 l 483 800 l 328 800 l 525 1017 l 731 1017 m 679 624 q 768 354 768 522 q 677 83 768 183 q 428 -17 586 -17 q 271 15 342 -17 l 250 -17 l 106 -17 l 175 88 q 88 354 88 186 q 179 626 88 525 q 428 726 271 726 q 583 694 513 726 l 604 726 l 749 726 l 679 624 m 249 354 q 272 232 249 283 l 494 564 q 428 575 464 575 q 296 515 343 575 q 249 354 249 456 m 428 136 q 560 194 514 136 q 607 354 607 253 q 583 479 607 425 l 360 147 q 428 136 393 136 z "},"Ș":{"ha":856,"x_min":93,"x_max":761,"o":"m 439 -17 q 226 51 321 -17 q 93 233 132 119 l 243 289 q 331 180 275 221 q 453 139 388 139 q 556 172 517 139 q 594 268 594 206 q 542 362 594 321 q 394 444 489 403 q 299 490 335 471 q 217 544 263 510 q 150 626 172 579 q 128 732 128 674 q 210 915 128 840 q 428 989 293 989 q 615 931 535 989 q 721 782 694 872 l 572 732 q 418 833 522 833 q 329 806 364 833 q 294 729 294 778 q 297 708 294 718 q 307 688 300 697 q 320 672 314 679 q 340 655 326 664 q 362 640 353 646 q 389 626 371 635 q 417 613 407 617 q 449 598 426 608 q 481 583 471 588 q 578 534 539 557 q 664 474 617 511 q 736 385 711 436 q 761 272 761 333 q 667 61 761 139 q 439 -17 574 -17 m 396 -411 l 343 -375 q 411 -272 394 -331 q 364 -244 382 -265 q 346 -189 346 -222 q 372 -126 346 -150 q 433 -101 397 -101 q 497 -128 471 -101 q 522 -201 522 -156 q 486 -319 522 -261 q 396 -411 450 -376 z "},"ș":{"ha":856,"x_min":143,"x_max":707,"o":"m 432 -17 q 265 17 342 -17 q 143 110 189 51 l 247 204 q 440 119 335 119 q 525 138 492 119 q 558 192 558 156 q 538 231 558 213 q 492 263 518 250 q 414 296 465 275 q 405 300 408 299 q 396 303 401 301 q 386 307 390 306 q 310 341 335 329 q 249 374 285 353 q 198 415 214 396 q 169 465 182 435 q 157 532 157 494 q 235 674 157 622 q 431 726 313 726 q 696 614 596 726 l 589 526 q 425 590 513 590 q 338 574 371 590 q 306 529 306 558 q 317 502 306 515 q 356 474 328 489 q 401 452 383 460 q 463 428 419 444 q 632 344 590 376 q 707 193 706 286 q 633 39 707 94 q 432 -17 558 -17 m 393 -411 l 340 -375 q 408 -272 392 -331 q 361 -244 379 -265 q 343 -189 343 -222 q 369 -126 343 -150 q 431 -101 394 -101 q 494 -128 468 -101 q 519 -201 519 -156 q 483 -319 519 -261 q 393 -411 447 -376 z "},"Ț":{"ha":856,"x_min":63,"x_max":793,"o":"m 344 0 l 344 814 l 63 814 l 63 972 l 793 972 l 793 814 l 510 814 l 510 0 l 344 0 m 390 -411 l 338 -375 q 406 -272 389 -331 q 358 -244 376 -265 q 340 -189 340 -222 q 366 -126 340 -150 q 428 -101 392 -101 q 491 -128 465 -101 q 517 -201 517 -156 q 481 -319 517 -261 q 390 -411 444 -376 z "},"ț":{"ha":856,"x_min":136,"x_max":686,"o":"m 493 -17 q 285 176 285 -17 l 285 569 l 136 569 l 136 710 l 285 710 l 285 926 l 444 1003 l 444 710 l 686 710 l 686 569 l 444 569 l 444 207 q 544 125 444 125 q 667 158 603 125 l 647 15 q 493 -17 586 -17 m 429 -411 l 376 -375 q 444 -272 428 -331 q 397 -244 415 -265 q 379 -189 379 -222 q 405 -126 379 -150 q 467 -101 431 -101 q 530 -128 504 -101 q 556 -201 556 -156 q 519 -319 556 -261 q 429 -411 483 -376 z "},"ȷ":{"ha":856,"x_min":206,"x_max":590,"o":"m 590 710 l 590 18 q 524 -196 590 -125 q 286 -297 440 -274 l 206 -169 q 383 -110 335 -147 q 431 7 431 -72 l 431 569 l 235 569 l 235 710 l 590 710 z "},"ə":{"ha":856,"x_min":106,"x_max":751,"o":"m 426 726 q 663 628 575 726 q 751 354 751 531 q 662 83 751 183 q 426 -17 572 -17 q 195 74 285 -17 q 106 325 106 165 q 110 418 106 381 l 594 418 q 538 542 582 500 q 424 585 494 585 q 256 517 322 585 l 158 617 q 426 726 264 726 m 426 124 q 594 281 568 124 l 263 281 q 313 163 268 203 q 426 124 357 124 z "},"ʰ":{"ha":856,"x_min":171,"x_max":693,"o":"m 474 988 q 632 930 571 988 q 693 751 693 872 l 693 386 l 556 386 l 556 713 q 522 824 556 788 q 438 860 489 860 q 308 718 308 860 l 308 386 l 171 386 l 171 1157 l 306 1218 l 306 915 q 474 988 364 988 z "},"ʲ":{"ha":856,"x_min":171,"x_max":514,"o":"m 489 1074 q 476 1062 489 1074 q 429 1050 464 1050 q 370 1074 394 1050 q 346 1133 346 1099 q 370 1192 346 1168 q 429 1217 394 1217 q 490 1192 465 1217 q 514 1133 514 1168 q 489 1074 514 1099 m 201 972 l 499 972 l 499 404 q 443 224 499 276 q 240 136 369 157 l 171 247 q 321 297 281 265 q 361 396 361 328 l 361 856 l 201 856 l 201 972 z "},"ʷ":{"ha":856,"x_min":88,"x_max":767,"o":"m 240 386 l 88 972 l 213 972 l 285 675 q 296 619 294 629 q 300 648 297 629 q 306 676 303 667 l 375 972 l 481 972 l 549 676 q 560 618 556 650 l 571 676 l 643 972 l 767 972 l 614 386 l 510 386 l 443 681 q 428 761 432 736 l 410 682 l 344 386 l 240 386 z "},"ʸ":{"ha":856,"x_min":144,"x_max":738,"o":"m 596 972 l 738 972 l 429 163 l 285 163 l 369 383 l 144 972 l 289 972 l 440 567 l 596 972 z "},"ˆ":{"ha":856,"x_min":153,"x_max":703,"o":"m 556 800 l 428 907 l 300 800 l 153 800 l 350 1017 l 507 1017 l 703 800 l 556 800 z "},"ˇ":{"ha":856,"x_min":153,"x_max":703,"o":"m 507 800 l 349 800 l 153 1017 l 300 1017 l 428 910 l 556 1017 l 703 1017 l 507 800 z "},"ˉ":{"ha":856,"x_min":214,"x_max":672,"o":"m 214 824 l 214 954 l 672 954 l 672 824 l 214 824 z "},"˖":{"ha":856,"x_min":164,"x_max":692,"o":"m 492 715 l 492 514 l 363 514 l 363 715 l 164 715 l 164 840 l 363 840 l 363 1042 l 492 1042 l 492 840 l 692 840 l 692 715 l 492 715 z "},"˘":{"ha":856,"x_min":167,"x_max":688,"o":"m 426 797 q 233 863 299 797 q 167 1031 167 929 l 294 1031 q 329 949 294 982 q 426 917 364 917 q 524 949 489 917 q 560 1031 560 982 l 688 1031 q 622 864 688 931 q 426 797 556 797 z "},"˙":{"ha":856,"x_min":336,"x_max":521,"o":"m 494 842 q 480 829 494 842 q 428 815 467 815 q 363 842 389 815 q 336 908 336 868 q 363 974 336 947 q 428 1000 389 1000 q 494 974 467 1000 q 521 908 521 947 q 494 842 521 869 z "},"˚":{"ha":856,"x_min":253,"x_max":603,"o":"m 551 785 q 526 760 551 785 q 428 735 500 735 q 304 785 356 735 q 253 908 253 836 q 304 1031 253 981 q 428 1081 356 1081 q 552 1031 501 1081 q 603 908 603 981 q 551 785 603 836 m 428 846 q 470 864 453 846 q 488 908 488 882 q 470 953 488 935 q 428 971 453 971 q 385 953 401 971 q 368 908 368 936 q 385 863 368 881 q 428 846 401 846 z "},"˛":{"ha":856,"x_min":264,"x_max":590,"o":"m 432 -336 q 310 -296 357 -336 q 264 -189 264 -256 q 314 -68 264 -121 q 454 14 364 -15 l 568 14 q 438 -73 479 -22 q 396 -175 396 -124 q 413 -224 396 -207 q 454 -240 429 -240 q 514 -212 492 -240 l 590 -267 q 432 -336 531 -336 z "},"˜":{"ha":856,"x_min":167,"x_max":689,"o":"m 538 817 q 412 849 485 817 q 308 882 339 882 q 243 822 244 882 l 167 822 q 318 1004 167 1004 q 444 972 372 1004 q 547 939 515 939 q 613 999 611 939 l 689 999 q 538 817 689 817 z "},"˝":{"ha":856,"x_min":63,"x_max":763,"o":"m 218 800 l 63 800 l 260 1017 l 465 1017 l 218 800 m 515 800 l 360 800 l 557 1017 l 763 1017 l 515 800 z "},"ˡ":{"ha":856,"x_min":168,"x_max":671,"o":"m 501 507 l 671 507 l 671 386 l 194 386 l 194 507 l 364 507 l 364 1082 l 229 1082 l 168 1201 l 501 1201 l 501 507 z "},"ˢ":{"ha":856,"x_min":194,"x_max":663,"o":"m 433 371 q 194 476 275 371 l 281 554 q 442 483 358 483 q 538 540 538 483 q 535 553 538 547 q 529 565 533 558 q 520 575 525 571 q 506 585 515 579 q 491 594 497 590 q 471 604 485 599 q 449 614 457 610 q 425 625 442 618 q 399 636 408 632 q 345 660 354 657 q 302 682 336 664 q 259 710 268 700 q 232 739 250 719 q 209 779 214 758 q 204 826 204 800 q 269 944 204 900 q 432 988 335 988 q 653 894 569 988 l 564 821 q 428 875 500 875 q 357 862 383 875 q 331 824 331 849 q 415 758 331 796 q 460 740 419 757 q 536 708 511 719 q 597 672 561 696 q 647 618 632 649 q 663 546 663 588 q 600 417 663 464 q 433 371 538 371 z "},"ˣ":{"ha":856,"x_min":135,"x_max":721,"o":"m 721 386 l 563 386 l 425 581 l 293 386 l 135 386 l 347 690 l 149 972 l 307 972 l 426 803 l 547 972 l 706 972 l 506 690 l 721 386 z "},"́":{"ha":0,"x_min":-539,"x_max":-136,"o":"m -539 800 l -342 1017 l -136 1017 l -383 800 l -539 800 z "},"̂":{"ha":0,"x_min":-703,"x_max":-153,"o":"m -300 800 l -428 907 l -556 800 l -703 800 l -506 1017 l -349 1017 l -153 800 l -300 800 z "},"̃":{"ha":0,"x_min":-689,"x_max":-167,"o":"m -318 817 q -444 849 -371 817 q -547 882 -517 882 q -612 822 -611 882 l -689 822 q -537 1004 -689 1004 q -412 972 -483 1004 q -308 939 -340 939 q -243 999 -244 939 l -167 999 q -318 817 -167 817 z "},"̄":{"ha":0,"x_min":-657,"x_max":-199,"o":"m -657 824 l -657 954 l -199 954 l -199 824 l -657 824 z "},"̆":{"ha":0,"x_min":-689,"x_max":-168,"o":"m -429 797 q -623 863 -557 797 q -689 1031 -689 929 l -561 1031 q -526 949 -561 982 q -429 917 -492 917 q -331 949 -367 917 q -296 1031 -296 982 l -168 1031 q -234 864 -168 931 q -429 797 -300 797 z "},"̇":{"ha":0,"x_min":-519,"x_max":-335,"o":"m -362 842 q -375 829 -362 842 q -428 815 -389 815 q -493 842 -467 815 q -519 908 -519 868 q -493 974 -519 947 q -428 1000 -467 1000 q -362 974 -389 1000 q -335 908 -335 947 q -362 842 -335 869 z "},"̈":{"ha":0,"x_min":-647,"x_max":-207,"o":"m -490 842 q -503 829 -490 842 q -556 815 -517 815 q -621 842 -594 815 q -647 908 -647 868 q -621 974 -647 947 q -556 1000 -594 1000 q -490 974 -517 1000 q -462 908 -462 947 q -490 842 -462 869 m -234 842 q -248 829 -234 842 q -300 815 -261 815 q -365 842 -339 815 q -392 908 -392 868 q -365 974 -392 947 q -300 1000 -339 1000 q -234 974 -261 1000 q -207 908 -207 947 q -234 842 -207 869 z "},"̊":{"ha":0,"x_min":-603,"x_max":-253,"o":"m -304 785 q -330 760 -304 785 q -428 735 -356 735 q -551 785 -500 735 q -603 908 -603 836 q -551 1031 -603 981 q -428 1081 -500 1081 q -303 1031 -354 1081 q -253 908 -253 981 q -304 785 -253 836 m -428 846 q -385 864 -403 846 q -368 908 -368 882 q -385 953 -368 935 q -428 971 -403 971 q -471 953 -454 971 q -487 908 -487 936 q -471 863 -487 881 q -428 846 -454 846 z "},"̋":{"ha":0,"x_min":-778,"x_max":-78,"o":"m -622 800 l -778 800 l -581 1017 l -375 1017 l -622 800 m -325 800 l -481 800 l -283 1017 l -78 1017 l -325 800 z "},"̌":{"ha":0,"x_min":-703,"x_max":-153,"o":"m -349 800 l -507 800 l -703 1017 l -556 1017 l -428 910 l -300 1017 l -153 1017 l -349 800 z "},"̒":{"ha":0,"x_min":-517,"x_max":-337,"o":"m -428 796 q -491 822 -465 796 q -517 894 -517 849 q -481 1013 -517 956 q -389 1104 -444 1071 l -337 1068 q -376 1023 -354 1053 q -406 965 -399 993 q -339 882 -339 951 q -365 820 -339 844 q -428 796 -392 796 z "},"̦":{"ha":0,"x_min":-518,"x_max":-339,"o":"m -465 -411 l -518 -375 q -450 -272 -467 -331 q -497 -244 -479 -265 q -515 -189 -515 -222 q -490 -126 -515 -150 q -428 -101 -464 -101 q -365 -128 -390 -101 q -339 -201 -339 -156 q -375 -319 -339 -261 q -465 -411 -411 -376 z "},"̧":{"ha":0,"x_min":-575,"x_max":-250,"o":"m -431 -336 q -575 -276 -528 -336 l -501 -222 q -446 -246 -485 -246 q -397 -230 -415 -246 q -378 -187 -378 -214 q -398 -147 -378 -162 q -450 -131 -418 -131 q -507 -147 -482 -131 l -539 -107 l -440 14 l -354 14 l -404 -67 q -289 -101 -328 -67 q -250 -189 -250 -135 q -299 -295 -250 -254 q -431 -336 -347 -336 z "},"̨":{"ha":0,"x_min":-576,"x_max":-250,"o":"m -408 -336 q -530 -296 -483 -336 q -576 -189 -576 -256 q -526 -68 -576 -121 q -386 14 -476 -15 l -272 14 q -403 -73 -361 -22 q -444 -175 -444 -124 q -428 -224 -444 -207 q -386 -240 -411 -240 q -326 -212 -349 -240 l -250 -267 q -408 -336 -310 -336 z "},"̷":{"ha":0,"x_min":142,"x_max":714,"o":"m 142 164 l 579 808 l 714 808 l 276 164 l 142 164 z "},"μ":{"ha":856,"x_min":129,"x_max":726,"o":"m 567 0 l 567 67 q 407 -17 508 -17 q 289 31 329 -17 l 289 -203 l 129 -278 l 129 710 l 289 710 l 289 289 q 422 136 289 136 q 567 286 567 136 l 567 710 l 726 710 l 726 0 l 567 0 z "},"π":{"ha":856,"x_min":18,"x_max":838,"o":"m 676 -17 q 511 165 511 -17 l 511 543 l 349 543 l 349 503 q 309 162 349 292 q 153 -32 269 32 l 18 75 q 85 122 58 99 q 139 188 111 146 q 181 294 167 229 q 194 449 194 360 l 194 543 l 69 543 l 69 710 l 828 710 l 828 543 l 672 543 l 672 196 q 728 125 672 125 q 838 158 778 125 l 819 15 q 676 -17 758 -17 z "},"Ẁ":{"ha":856,"x_min":18,"x_max":838,"o":"m 381 1064 l 133 1281 l 339 1281 l 536 1064 l 381 1064 m 161 0 l 18 972 l 167 972 l 243 393 q 247 374 244 388 q 250 348 249 360 q 253 325 251 336 q 267 394 256 343 l 383 972 l 472 972 l 590 397 q 604 329 603 336 q 610 368 606 343 q 614 396 614 393 l 681 972 l 838 972 l 693 0 l 563 0 l 439 594 q 426 665 431 638 q 420 628 425 653 q 414 596 415 604 l 292 0 l 161 0 z "},"ẁ":{"ha":856,"x_min":21,"x_max":835,"o":"m 386 800 l 139 1017 l 344 1017 l 542 800 l 386 800 m 203 0 l 21 710 l 165 710 l 256 344 q 269 275 265 303 q 282 346 278 325 l 367 710 l 489 710 l 574 344 q 588 274 581 322 q 601 344 592 303 l 689 710 l 835 710 l 651 0 l 529 0 l 447 356 q 428 453 439 389 q 416 397 425 435 q 406 356 407 358 l 328 0 l 203 0 z "},"Ẃ":{"ha":856,"x_min":-6,"x_max":814,"o":"m 319 1064 l 517 1281 l 722 1281 l 475 1064 l 319 1064 m 138 0 l -6 972 l 143 972 l 219 393 q 223 374 221 388 q 226 348 225 360 q 229 325 228 336 q 243 394 232 343 l 360 972 l 449 972 l 567 397 q 581 329 579 336 q 586 368 582 343 q 590 396 590 393 l 657 972 l 814 972 l 669 0 l 539 0 l 415 594 q 403 665 407 638 q 397 628 401 653 q 390 596 392 604 l 268 0 l 138 0 z "},"ẃ":{"ha":856,"x_min":21,"x_max":835,"o":"m 307 800 l 504 1017 l 710 1017 l 463 800 l 307 800 m 203 0 l 21 710 l 165 710 l 256 344 q 269 275 265 303 q 282 346 278 325 l 367 710 l 489 710 l 574 344 q 588 274 581 322 q 601 344 592 303 l 689 710 l 835 710 l 651 0 l 529 0 l 447 356 q 428 453 439 389 q 416 397 425 435 q 406 356 407 358 l 328 0 l 203 0 z "},"Ẅ":{"ha":856,"x_min":18,"x_max":838,"o":"m 366 1106 q 352 1093 366 1106 q 300 1079 339 1079 q 235 1106 261 1079 q 208 1172 208 1132 q 235 1238 208 1211 q 300 1264 261 1264 q 366 1238 339 1264 q 393 1172 393 1211 q 366 1106 393 1133 m 622 1106 q 608 1093 622 1106 q 556 1079 594 1079 q 490 1106 517 1079 q 464 1172 464 1132 q 490 1238 464 1211 q 556 1264 517 1264 q 622 1238 594 1264 q 649 1172 649 1211 q 622 1106 649 1133 m 161 0 l 18 972 l 167 972 l 243 393 q 247 374 244 388 q 250 348 249 360 q 253 325 251 336 q 267 394 256 343 l 383 972 l 472 972 l 590 397 q 604 329 603 336 q 610 368 606 343 q 614 396 614 393 l 681 972 l 838 972 l 693 0 l 563 0 l 439 594 q 426 665 431 638 q 420 628 425 653 q 414 596 415 604 l 292 0 l 161 0 z "},"ẅ":{"ha":856,"x_min":15,"x_max":829,"o":"m 366 842 q 352 829 366 842 q 300 815 339 815 q 235 842 261 815 q 208 908 208 868 q 235 974 208 947 q 300 1000 261 1000 q 366 974 339 1000 q 393 908 393 947 q 366 842 393 869 m 622 842 q 608 829 622 842 q 556 815 594 815 q 490 842 517 815 q 464 908 464 868 q 490 974 464 947 q 556 1000 517 1000 q 622 974 594 1000 q 649 908 649 947 q 622 842 649 869 m 197 0 l 15 710 l 160 710 l 250 344 q 264 275 260 303 q 276 346 272 325 l 361 710 l 483 710 l 568 344 q 582 274 575 322 q 596 344 586 303 l 683 710 l 829 710 l 646 0 l 524 0 l 442 356 q 422 453 433 389 q 410 397 419 435 q 400 356 400 358 l 322 0 l 197 0 z "},"Ỳ":{"ha":856,"x_min":60,"x_max":796,"o":"m 543 1064 l 388 1064 l 140 1281 l 346 1281 l 543 1064 m 614 972 l 796 972 l 510 381 l 510 0 l 346 0 l 346 381 l 60 972 l 243 972 l 428 557 l 614 972 z "},"ỳ":{"ha":856,"x_min":81,"x_max":775,"o":"m 417 800 l 169 1017 l 375 1017 l 572 800 l 417 800 m 238 -269 l 346 13 l 81 710 l 243 710 l 406 276 q 426 210 417 249 q 433 231 429 219 q 442 256 438 243 q 449 276 446 269 l 611 710 l 775 710 l 403 -269 l 238 -269 z "},"–":{"ha":856,"x_min":153,"x_max":701,"o":"m 153 329 l 153 468 l 701 468 l 701 329 l 153 329 z "},"—":{"ha":856,"x_min":7,"x_max":849,"o":"m 7 329 l 7 468 l 849 468 l 849 329 l 7 329 z "},"―":{"ha":856,"x_min":7,"x_max":849,"o":"m 7 329 l 7 468 l 849 468 l 849 329 l 7 329 z "},"‗":{"ha":856,"x_min":56,"x_max":800,"o":"m 56 -144 l 56 -14 l 800 -14 l 800 -144 l 56 -144 m 56 -347 l 56 -217 l 800 -217 l 800 -347 l 56 -347 z "},"‘":{"ha":856,"x_min":311,"x_max":540,"o":"m 425 596 q 343 631 375 596 q 311 731 311 665 q 360 922 311 833 q 469 1051 410 1010 l 540 1006 q 451 808 463 921 q 511 774 489 800 q 533 707 533 747 q 501 626 533 657 q 425 596 469 596 z "},"’":{"ha":856,"x_min":313,"x_max":543,"o":"m 383 596 l 313 642 q 403 839 392 725 q 343 874 365 847 q 321 940 321 900 q 353 1021 321 990 q 429 1051 385 1051 q 511 1017 479 1051 q 543 917 543 982 q 494 726 543 814 q 383 596 444 638 z "},"‚":{"ha":856,"x_min":314,"x_max":543,"o":"m 385 -258 l 314 -212 q 404 -15 392 -128 q 321 86 321 4 q 353 166 321 135 q 431 197 386 197 q 511 163 479 197 q 543 63 543 128 q 494 -128 543 -40 q 385 -258 444 -217 z "},"‛":{"ha":856,"x_min":313,"x_max":542,"o":"m 471 596 q 362 726 411 638 q 313 917 313 814 q 344 1017 313 982 q 425 1051 376 1051 q 502 1020 469 1051 q 535 940 535 989 q 451 839 535 858 q 542 642 464 726 l 471 596 z "},"“":{"ha":856,"x_min":154,"x_max":700,"o":"m 268 596 q 186 631 218 596 q 154 731 154 665 q 203 922 154 833 q 313 1051 253 1010 l 383 1006 q 294 808 306 921 q 354 774 332 800 q 376 707 376 747 q 344 626 376 657 q 268 596 313 596 m 585 596 q 503 631 535 596 q 471 731 471 665 q 520 922 471 833 q 629 1051 569 1010 l 700 1006 q 611 808 622 921 q 671 774 649 800 q 693 707 693 747 q 661 626 693 657 q 585 596 629 596 z "},"”":{"ha":856,"x_min":156,"x_max":701,"o":"m 226 596 l 156 642 q 244 839 233 726 q 185 874 207 847 q 163 940 163 900 q 194 1021 163 990 q 271 1051 226 1051 q 353 1017 321 1051 q 385 917 385 982 q 335 726 385 814 q 226 596 286 638 m 543 596 l 472 642 q 561 839 550 726 q 501 874 524 847 q 479 940 479 900 q 511 1021 479 990 q 588 1051 543 1051 q 669 1017 638 1051 q 701 917 701 982 q 652 726 701 814 q 543 596 603 638 z "},"„":{"ha":856,"x_min":156,"x_max":701,"o":"m 226 -258 l 156 -212 q 244 -15 233 -128 q 185 19 207 -7 q 163 86 163 46 q 194 167 163 136 q 271 197 226 197 q 353 163 321 197 q 385 63 385 128 q 335 -128 385 -40 q 226 -258 286 -217 m 543 -258 l 472 -212 q 561 -15 550 -128 q 501 19 524 -7 q 479 86 479 46 q 511 167 479 136 q 588 197 543 197 q 669 163 638 197 q 701 63 701 128 q 652 -128 701 -40 q 543 -258 603 -217 z "},"†":{"ha":856,"x_min":122,"x_max":733,"o":"m 494 600 l 508 465 l 465 -196 l 392 -196 l 347 465 l 360 600 l 207 581 l 122 581 l 122 735 l 207 735 l 358 713 l 347 815 l 347 989 l 508 989 l 508 815 l 496 713 l 649 735 l 733 735 l 733 581 l 649 581 l 494 600 z "},"‡":{"ha":856,"x_min":122,"x_max":733,"o":"m 347 -196 l 347 -22 l 358 81 l 207 58 l 122 58 l 122 213 l 207 213 l 360 192 l 347 328 l 347 465 l 360 600 l 207 581 l 122 581 l 122 735 l 207 735 l 358 713 l 347 815 l 347 989 l 508 989 l 508 815 l 496 713 l 649 735 l 733 735 l 733 581 l 649 581 l 494 600 l 508 465 l 508 328 l 494 192 l 649 213 l 733 213 l 733 58 l 649 58 l 496 81 l 508 -22 l 508 -196 l 347 -196 z "},"•":{"ha":856,"x_min":225,"x_max":631,"o":"m 571 342 q 541 313 571 342 q 426 283 511 283 q 283 342 342 283 q 225 486 225 401 q 283 630 225 571 q 426 689 342 689 q 572 630 513 689 q 631 486 631 571 q 571 342 631 401 z "},"…":{"ha":856,"x_min":33,"x_max":824,"o":"m 142 -18 q 65 13 96 -18 q 33 90 33 44 q 65 167 33 135 q 142 199 96 199 q 220 167 188 199 q 253 90 253 135 q 221 14 253 46 q 142 -18 189 -18 m 426 -18 q 349 13 381 -18 q 318 90 318 44 q 349 167 318 135 q 426 199 381 199 q 505 167 472 199 q 538 90 538 135 q 506 14 538 46 q 426 -18 474 -18 m 713 -18 q 635 13 667 -18 q 603 90 603 44 q 635 167 603 135 q 713 199 667 199 q 791 167 758 199 q 824 90 824 135 q 792 14 824 46 q 713 -18 760 -18 z "},"‰":{"ha":856,"x_min":0,"x_max":839,"o":"m 86 -17 l 0 -17 l 465 989 l 551 989 l 86 -17 m 151 540 q 50 607 83 540 q 17 765 17 674 q 50 919 17 850 q 151 989 83 989 q 251 922 217 989 q 286 765 286 854 q 252 610 286 679 q 151 540 218 540 m 151 614 q 189 658 174 614 q 204 765 204 703 q 190 874 204 832 q 151 915 175 915 q 112 873 125 915 q 99 765 99 831 q 113 656 99 697 q 151 614 126 614 m 400 -17 q 299 50 332 -17 q 265 207 265 117 q 299 362 265 292 q 400 432 333 432 q 500 365 465 432 q 535 207 535 297 q 501 53 535 122 q 400 -17 467 -17 m 704 -17 q 604 51 639 -17 q 569 207 569 118 q 583 308 569 258 q 628 394 596 357 q 704 432 660 432 q 804 365 769 432 q 839 207 839 297 q 805 53 839 122 q 704 -17 771 -17 m 400 57 q 438 101 422 57 q 453 207 453 146 q 438 316 453 274 q 400 358 424 358 q 360 315 374 358 q 347 207 347 272 q 361 99 347 140 q 400 57 375 57 m 704 57 q 742 101 726 57 q 757 207 757 146 q 742 316 757 274 q 704 358 728 358 q 666 315 681 358 q 651 207 651 271 q 666 99 651 142 q 704 57 681 57 z "},"′":{"ha":856,"x_min":315,"x_max":540,"o":"m 343 1014 l 540 1014 l 453 561 l 315 561 l 343 1014 z "},"″":{"ha":856,"x_min":176,"x_max":679,"o":"m 204 1014 l 401 1014 l 314 561 l 176 561 l 204 1014 m 482 1014 l 679 1014 l 592 561 l 454 561 l 482 1014 z "},"‹":{"ha":856,"x_min":236,"x_max":619,"o":"m 447 0 l 236 356 l 447 710 l 619 710 l 408 356 l 619 0 l 447 0 z "},"›":{"ha":856,"x_min":236,"x_max":619,"o":"m 236 0 l 447 356 l 236 710 l 408 710 l 619 356 l 408 0 l 236 0 z "},"‼":{"ha":856,"x_min":101,"x_max":754,"o":"m 168 268 l 133 678 l 133 989 l 294 989 l 294 678 l 260 268 l 168 268 m 596 268 l 561 678 l 561 989 l 722 989 l 722 678 l 688 268 l 596 268 m 293 15 q 276 -2 293 15 q 213 -18 260 -18 q 133 15 165 -18 q 101 93 101 47 q 133 172 101 139 q 213 204 165 204 q 293 172 260 204 q 326 93 326 139 q 293 15 326 47 m 721 15 q 704 -2 721 15 q 640 -18 688 -18 q 561 15 593 -18 q 529 93 529 47 q 561 172 529 139 q 640 204 593 204 q 721 172 688 204 q 754 93 754 139 q 721 15 754 47 z "},"‾":{"ha":856,"x_min":56,"x_max":800,"o":"m 56 1042 l 56 1172 l 800 1172 l 800 1042 l 56 1042 z "},"⁄":{"ha":0,"x_min":-411,"x_max":410,"o":"m -411 -17 l 254 989 l 410 989 l -254 -17 l -411 -17 z "},"⁰":{"ha":856,"x_min":231,"x_max":625,"o":"m 428 828 q 277 887 324 828 q 231 1026 231 946 q 277 1167 231 1108 q 428 1226 324 1226 q 578 1167 532 1226 q 625 1026 625 1108 q 579 886 625 944 q 428 828 533 828 m 377 949 q 385 933 377 949 q 428 917 393 917 q 478 949 463 917 q 494 1028 494 982 q 478 1105 494 1072 q 428 1138 463 1138 q 377 1105 393 1138 q 361 1028 361 1072 q 377 949 361 982 z "},"ⁱ":{"ha":856,"x_min":221,"x_max":679,"o":"m 508 1076 q 495 1064 508 1076 q 449 1051 483 1051 q 390 1076 414 1051 q 365 1136 365 1101 q 390 1195 365 1171 q 449 1219 414 1219 q 508 1195 483 1219 q 532 1136 532 1171 q 508 1076 532 1100 m 519 507 l 679 507 l 679 386 l 221 386 l 221 507 l 381 507 l 381 853 l 221 853 l 221 975 l 519 975 l 519 507 z "},"⁴":{"ha":856,"x_min":207,"x_max":649,"o":"m 453 838 l 453 913 l 207 913 l 207 974 l 456 1215 l 574 1215 l 574 993 l 649 993 l 649 913 l 574 913 l 574 838 l 453 838 m 453 993 l 453 1104 l 340 993 l 453 993 z "},"⁵":{"ha":856,"x_min":243,"x_max":613,"o":"m 414 828 q 243 874 318 828 l 313 943 q 410 908 357 908 q 464 923 443 908 q 485 960 485 938 q 433 1006 485 1006 q 363 969 388 1006 l 257 1008 l 281 1217 l 579 1217 l 579 1135 l 386 1135 l 375 1065 q 457 1086 406 1086 q 570 1051 528 1086 q 613 964 613 1015 q 558 865 613 903 q 414 828 504 828 z "},"⁶":{"ha":856,"x_min":239,"x_max":617,"o":"m 428 828 q 287 870 335 828 q 239 981 239 913 q 319 1143 239 1078 q 554 1225 400 1208 l 554 1147 q 365 1053 406 1126 q 457 1072 396 1072 q 572 1040 526 1072 q 617 951 617 1007 q 565 862 617 896 q 428 828 513 828 m 433 906 q 486 918 464 906 q 508 951 508 931 q 487 984 508 972 q 433 996 465 996 q 357 951 357 996 q 433 906 357 906 z "},"⁷":{"ha":856,"x_min":244,"x_max":611,"o":"m 325 838 q 467 1129 326 1008 l 244 1129 l 244 1215 l 611 1215 l 611 1139 q 494 997 531 1083 q 457 838 457 911 l 325 838 z "},"⁸":{"ha":856,"x_min":236,"x_max":617,"o":"m 426 828 q 290 862 343 828 q 236 949 236 896 q 258 1006 236 981 q 311 1043 279 1032 q 261 1122 261 1071 q 306 1199 261 1169 q 426 1228 350 1228 q 548 1199 503 1228 q 593 1122 593 1169 q 542 1043 593 1071 q 595 1006 574 1032 q 617 949 617 981 q 564 862 617 896 q 426 828 511 828 m 371 1118 q 426 1079 371 1079 q 482 1118 482 1079 q 426 1156 482 1156 q 385 1145 400 1156 q 371 1118 371 1135 m 370 913 q 380 906 370 913 q 426 899 390 899 q 483 913 463 899 q 503 950 503 926 q 483 990 503 975 q 426 1006 463 1006 q 371 990 392 1006 q 350 950 350 975 q 370 913 350 926 z "},"⁹":{"ha":856,"x_min":236,"x_max":619,"o":"m 318 828 l 318 907 q 488 996 456 914 q 403 978 457 978 q 282 1011 328 978 q 236 1100 236 1044 q 289 1192 236 1157 q 426 1226 342 1226 q 569 1185 519 1226 q 619 1076 619 1143 q 542 901 619 968 q 318 828 465 833 m 428 1057 q 500 1103 500 1057 q 480 1135 500 1124 q 428 1147 460 1147 q 375 1135 396 1147 q 354 1101 354 1122 q 428 1057 354 1057 z "},"⁺":{"ha":856,"x_min":264,"x_max":617,"o":"m 485 983 l 485 850 l 396 850 l 396 983 l 264 983 l 264 1069 l 396 1069 l 396 1203 l 485 1203 l 485 1069 l 617 1069 l 617 983 l 485 983 z "},"⁻":{"ha":856,"x_min":250,"x_max":603,"o":"m 250 983 l 250 1069 l 603 1069 l 603 983 l 250 983 z "},"⁼":{"ha":856,"x_min":257,"x_max":599,"o":"m 257 1065 l 257 1151 l 599 1151 l 599 1065 l 257 1065 m 257 904 l 257 989 l 599 989 l 599 904 l 257 904 z "},"⁽":{"ha":856,"x_min":382,"x_max":585,"o":"m 488 768 q 382 1019 382 882 q 494 1281 382 1165 l 585 1281 q 469 1019 469 1161 q 478 945 469 982 q 497 885 488 908 q 527 833 507 863 q 553 796 547 803 q 576 768 560 789 l 488 768 z "},"⁾":{"ha":856,"x_min":271,"x_max":474,"o":"m 368 768 l 279 768 q 302 796 296 789 q 328 833 308 803 q 358 885 349 863 q 377 945 368 908 q 386 1019 386 982 q 271 1281 386 1161 l 361 1281 q 474 1019 474 1165 q 368 768 474 882 z "},"ⁿ":{"ha":856,"x_min":171,"x_max":693,"o":"m 472 988 q 631 930 568 988 q 693 751 693 872 l 693 386 l 556 386 l 556 713 q 523 824 556 788 q 436 860 490 860 q 308 718 308 860 l 308 386 l 171 386 l 171 972 l 297 972 l 297 903 q 366 963 317 938 q 472 988 415 988 z "},"₀":{"ha":856,"x_min":231,"x_max":625,"o":"m 428 -253 q 277 -194 324 -253 q 231 -54 231 -135 q 277 87 231 28 q 428 146 324 146 q 578 87 532 146 q 625 -54 625 28 q 579 -194 625 -136 q 428 -253 533 -253 m 377 -131 q 385 -148 377 -131 q 428 -164 393 -164 q 478 -131 463 -164 q 494 -53 494 -99 q 478 24 494 -8 q 428 57 463 57 q 377 24 393 57 q 361 -53 361 -8 q 377 -131 361 -99 z "},"₁":{"ha":856,"x_min":297,"x_max":497,"o":"m 367 -243 l 367 -15 l 297 -15 l 297 86 q 397 135 375 86 l 497 135 l 497 -243 l 367 -243 z "},"₂":{"ha":856,"x_min":239,"x_max":613,"o":"m 239 -243 q 264 -137 239 -182 q 324 -70 289 -93 q 394 -32 358 -47 q 454 -3 429 -17 q 479 26 479 10 q 431 58 479 58 q 354 1 371 58 l 240 25 q 310 112 258 79 q 438 144 363 144 q 564 112 515 144 q 613 24 613 79 q 580 -46 613 -17 q 507 -89 547 -75 q 428 -120 467 -103 q 382 -156 390 -137 l 611 -156 l 611 -243 l 239 -243 z "},"₃":{"ha":856,"x_min":236,"x_max":618,"o":"m 432 -254 q 236 -144 285 -254 l 354 -119 q 435 -171 374 -171 q 474 -158 460 -171 q 489 -126 489 -146 q 424 -89 489 -89 l 386 -89 l 386 -8 l 419 -8 q 469 25 469 -8 q 458 51 469 40 q 426 61 446 61 q 361 21 382 61 l 253 50 q 324 119 276 94 q 435 144 372 144 q 553 113 508 144 q 597 35 597 82 q 577 -15 597 7 q 526 -46 557 -36 q 618 -135 618 -67 q 569 -221 618 -187 q 432 -254 519 -254 z "},"₄":{"ha":856,"x_min":207,"x_max":649,"o":"m 453 -242 l 453 -167 l 207 -167 l 207 -106 l 456 136 l 574 136 l 574 -86 l 649 -86 l 649 -167 l 574 -167 l 574 -242 l 453 -242 m 453 -86 l 453 25 l 340 -86 l 453 -86 z "},"₅":{"ha":856,"x_min":243,"x_max":613,"o":"m 414 -254 q 243 -208 318 -254 l 313 -139 q 410 -174 357 -174 q 464 -159 443 -174 q 485 -122 485 -144 q 433 -76 485 -76 q 363 -112 388 -76 l 257 -74 l 281 135 l 579 135 l 579 53 l 386 53 l 375 -17 q 457 4 406 4 q 570 -31 528 4 q 613 -118 613 -67 q 558 -217 613 -179 q 414 -254 504 -254 z "},"₆":{"ha":856,"x_min":239,"x_max":617,"o":"m 428 -254 q 287 -212 335 -254 q 239 -101 239 -169 q 319 61 239 -4 q 554 143 400 126 l 554 65 q 365 -29 406 44 q 457 -10 396 -10 q 572 -42 526 -10 q 617 -131 617 -75 q 565 -220 617 -186 q 428 -254 513 -254 m 433 -176 q 486 -164 464 -176 q 508 -131 508 -151 q 487 -98 508 -110 q 433 -86 465 -86 q 357 -131 357 -86 q 433 -176 357 -176 z "},"₇":{"ha":856,"x_min":244,"x_max":611,"o":"m 325 -243 q 467 49 326 -72 l 244 49 l 244 135 l 611 135 l 611 58 q 494 -83 531 3 q 457 -243 457 -169 l 325 -243 z "},"₈":{"ha":856,"x_min":236,"x_max":617,"o":"m 426 -254 q 290 -220 343 -254 q 236 -133 236 -186 q 258 -76 236 -101 q 311 -39 279 -50 q 261 40 261 -11 q 306 117 261 88 q 426 146 350 146 q 548 117 503 146 q 593 40 593 88 q 542 -39 593 -11 q 595 -76 574 -50 q 617 -133 617 -101 q 564 -220 617 -186 q 426 -254 511 -254 m 371 36 q 426 -3 371 -3 q 482 36 482 -3 q 426 74 482 74 q 385 63 400 74 q 371 36 371 53 m 370 -169 q 380 -176 370 -169 q 426 -183 390 -183 q 483 -169 463 -183 q 503 -132 503 -156 q 483 -92 503 -107 q 426 -76 463 -76 q 371 -92 392 -76 q 350 -132 350 -107 q 370 -169 350 -156 z "},"₉":{"ha":856,"x_min":236,"x_max":619,"o":"m 318 -253 l 318 -174 q 488 -85 456 -167 q 403 -103 457 -103 q 282 -69 328 -103 q 236 19 236 -36 q 289 111 236 76 q 426 146 342 146 q 569 104 519 146 q 619 -4 619 63 q 542 -180 619 -112 q 318 -253 465 -247 m 428 -24 q 500 22 500 -24 q 480 55 500 43 q 428 67 460 67 q 375 54 396 67 q 354 21 354 42 q 428 -24 354 -24 z "},"₊":{"ha":856,"x_min":251,"x_max":604,"o":"m 472 -97 l 472 -231 l 383 -231 l 383 -97 l 251 -97 l 251 -11 l 383 -11 l 383 122 l 472 122 l 472 -11 l 604 -11 l 604 -97 l 472 -97 z "},"₋":{"ha":856,"x_min":253,"x_max":606,"o":"m 253 -96 l 253 -10 l 606 -10 l 606 -96 l 253 -96 z "},"₌":{"ha":856,"x_min":257,"x_max":599,"o":"m 257 -14 l 257 72 l 599 72 l 599 -14 l 257 -14 m 257 -175 l 257 -90 l 599 -90 l 599 -175 l 257 -175 z "},"₍":{"ha":856,"x_min":382,"x_max":585,"o":"m 488 -308 q 382 -57 382 -194 q 494 204 382 89 l 585 204 q 469 -57 469 85 q 478 -131 469 -94 q 497 -191 488 -168 q 527 -244 507 -214 q 553 -281 547 -274 q 576 -308 560 -287 l 488 -308 z "},"₎":{"ha":856,"x_min":271,"x_max":474,"o":"m 368 -308 l 279 -308 q 302 -281 296 -287 q 328 -244 308 -274 q 358 -191 349 -214 q 377 -131 368 -168 q 386 -57 386 -94 q 271 204 386 85 l 361 204 q 474 -57 474 89 q 368 -308 474 -194 z "},"ₐ":{"ha":856,"x_min":168,"x_max":685,"o":"m 446 358 q 685 138 685 358 l 685 -243 l 550 -243 l 550 -196 q 388 -258 488 -258 q 229 -208 290 -258 q 168 -62 168 -157 q 238 83 168 33 q 403 132 307 132 q 550 101 486 132 l 550 132 q 435 236 550 236 q 247 178 338 236 l 206 290 q 446 358 313 358 m 415 -137 q 550 -79 497 -137 l 550 -11 q 428 15 497 15 q 342 -4 376 15 q 307 -62 307 -24 q 335 -117 307 -97 q 415 -137 364 -137 z "},"ₑ":{"ha":856,"x_min":157,"x_max":701,"o":"m 701 79 q 697 -3 701 28 l 304 -3 q 354 -99 317 -64 q 447 -135 392 -135 q 576 -82 524 -135 l 657 -167 q 446 -258 575 -258 q 235 -174 313 -258 q 157 50 157 -90 q 235 276 157 193 q 446 358 314 358 q 630 287 558 358 q 701 79 701 215 m 446 236 q 303 111 325 236 l 564 111 q 528 204 561 172 q 446 236 496 236 z "},"ₒ":{"ha":856,"x_min":146,"x_max":711,"o":"m 635 -176 q 597 -217 635 -176 q 428 -258 558 -258 q 222 -176 297 -258 q 146 50 146 -93 q 222 274 146 190 q 428 358 297 358 q 635 275 558 358 q 711 50 711 192 q 635 -176 711 -93 m 324 -74 q 343 -97 324 -74 q 428 -119 361 -119 q 531 -74 494 -119 q 568 50 568 -28 q 532 174 568 128 q 428 219 496 219 q 324 174 361 219 q 288 50 288 128 q 324 -74 288 -28 z "},"ₓ":{"ha":856,"x_min":135,"x_max":721,"o":"m 721 -243 l 563 -243 l 425 -49 l 293 -243 l 135 -243 l 347 61 l 149 343 l 307 343 l 426 174 l 547 343 l 706 343 l 506 61 l 721 -243 z "},"ₔ":{"ha":856,"x_min":153,"x_max":697,"o":"m 408 357 q 619 273 542 357 q 697 49 697 189 q 619 -177 697 -94 q 408 -260 540 -260 q 224 -188 296 -260 q 153 19 153 -117 q 157 101 153 71 l 550 101 q 500 198 538 163 q 407 233 463 233 q 278 181 331 233 l 197 265 q 408 357 279 357 m 408 -137 q 551 -12 529 -137 l 290 -12 q 326 -106 293 -74 q 408 -137 358 -137 z "},"ₕ":{"ha":856,"x_min":171,"x_max":693,"o":"m 474 358 q 632 301 571 358 q 693 122 693 243 l 693 -243 l 556 -243 l 556 83 q 522 194 556 158 q 438 231 489 231 q 308 89 308 231 l 308 -243 l 171 -243 l 171 528 l 306 589 l 306 286 q 474 358 364 358 z "},"ₖ":{"ha":856,"x_min":172,"x_max":717,"o":"m 564 -243 l 400 76 l 311 -8 l 311 -243 l 172 -243 l 172 526 l 311 589 l 311 144 l 515 343 l 679 343 l 501 174 l 717 -243 l 564 -243 z "},"ₗ":{"ha":856,"x_min":168,"x_max":671,"o":"m 501 -122 l 671 -122 l 671 -243 l 194 -243 l 194 -122 l 364 -122 l 364 453 l 229 453 l 168 572 l 501 572 l 501 -122 z "},"ₘ":{"ha":856,"x_min":122,"x_max":733,"o":"m 589 357 q 699 306 664 357 q 733 133 733 254 l 733 -243 l 611 -243 l 611 117 q 600 204 611 178 q 558 231 589 231 q 509 199 528 231 q 490 113 490 168 l 490 -243 l 368 -243 l 368 117 q 315 231 368 231 q 265 199 283 231 q 246 113 246 168 l 246 -243 l 122 -243 l 122 343 l 238 343 l 238 265 q 354 357 271 357 q 420 331 392 357 q 461 271 449 306 q 589 357 508 357 z "},"ₙ":{"ha":856,"x_min":171,"x_max":693,"o":"m 472 358 q 631 301 568 358 q 693 122 693 243 l 693 -243 l 556 -243 l 556 83 q 523 194 556 158 q 436 231 490 231 q 308 89 308 231 l 308 -243 l 171 -243 l 171 343 l 297 343 l 297 274 q 366 333 317 308 q 472 358 415 358 z "},"ₚ":{"ha":856,"x_min":164,"x_max":704,"o":"m 164 -478 l 164 343 l 301 343 l 301 297 q 447 357 357 357 q 635 276 565 357 q 704 50 704 194 q 632 -176 704 -93 q 447 -258 560 -258 q 301 -197 356 -258 l 301 -415 l 164 -478 m 424 -128 q 527 -81 490 -128 q 564 50 564 -35 q 527 178 564 131 q 422 226 490 226 q 301 169 344 226 l 301 -69 q 424 -128 344 -128 z "},"ₛ":{"ha":856,"x_min":194,"x_max":663,"o":"m 433 -258 q 194 -153 275 -258 l 281 -75 q 442 -146 358 -146 q 538 -89 538 -146 q 535 -76 538 -82 q 529 -65 533 -71 q 520 -54 525 -58 q 506 -44 515 -50 q 491 -35 497 -39 q 471 -25 485 -31 q 449 -15 457 -19 q 425 -4 442 -11 q 399 7 408 3 q 345 31 354 28 q 302 53 336 35 q 259 81 268 71 q 232 110 250 90 q 209 150 214 129 q 204 197 204 171 q 269 315 204 271 q 432 358 335 358 q 653 265 569 358 l 564 192 q 428 246 500 246 q 357 233 383 246 q 331 194 331 219 q 349 166 331 181 q 388 142 367 151 q 446 117 410 132 q 460 111 456 113 q 536 78 511 90 q 597 43 561 67 q 647 -11 632 19 q 663 -83 663 -42 q 600 -212 663 -165 q 433 -258 538 -258 z "},"ₜ":{"ha":856,"x_min":190,"x_max":647,"o":"m 488 -258 q 313 -97 313 -258 l 313 224 l 190 224 l 190 343 l 313 343 l 313 524 l 450 586 l 450 343 l 647 343 l 647 224 l 450 224 l 450 -69 q 531 -136 450 -136 q 631 -108 583 -136 l 615 -232 q 488 -258 563 -258 z "},"₣":{"ha":856,"x_min":29,"x_max":761,"o":"m 761 819 l 271 819 l 271 638 l 628 638 l 628 486 l 271 486 l 271 367 l 628 367 l 628 214 l 271 214 l 271 0 l 106 0 l 106 214 l 29 214 l 29 367 l 106 367 l 106 486 l 29 486 l 29 638 l 106 638 l 106 972 l 761 972 l 761 819 z "},"₤":{"ha":856,"x_min":82,"x_max":772,"o":"m 94 0 l 94 157 q 192 288 164 189 l 82 288 l 82 411 l 206 411 q 181 503 200 451 l 82 503 l 82 626 l 136 626 q 124 706 124 658 q 209 906 124 822 q 456 989 294 989 q 617 965 549 989 q 758 889 686 940 l 696 736 q 637 782 657 768 q 565 815 617 796 q 456 833 514 833 q 331 796 372 833 q 289 706 289 758 q 306 626 289 682 l 579 626 l 579 503 l 358 503 q 374 411 374 457 l 579 411 l 579 288 l 358 288 q 289 156 339 210 l 772 156 l 772 0 l 94 0 z "},"₦":{"ha":856,"x_min":22,"x_max":833,"o":"m 833 549 l 833 424 l 761 424 l 761 0 l 606 0 l 388 424 l 249 424 l 249 0 l 96 0 l 96 424 l 22 424 l 22 549 l 96 549 l 96 972 l 257 972 l 471 549 l 607 549 l 607 972 l 761 972 l 761 549 l 833 549 m 249 549 l 324 549 l 296 603 l 246 706 q 249 603 249 685 l 249 549 m 611 274 q 607 365 607 353 l 607 424 l 533 424 l 565 361 q 586 324 567 360 q 611 274 606 288 z "},"₧":{"ha":856,"x_min":25,"x_max":832,"o":"m 832 725 l 832 596 l 757 596 q 651 420 735 492 q 428 349 567 349 l 271 349 l 271 0 l 106 0 l 106 596 l 25 596 l 25 725 l 106 725 l 106 972 l 428 972 q 656 902 574 972 q 758 725 739 832 l 832 725 m 271 828 l 271 725 l 590 725 q 442 828 558 828 l 271 828 m 442 493 q 590 596 557 493 l 271 596 l 271 493 l 442 493 z "},"₩":{"ha":856,"x_min":14,"x_max":842,"o":"m 842 549 l 842 424 l 756 424 l 693 0 l 567 0 l 478 424 l 375 424 l 288 0 l 161 0 l 99 424 l 14 424 l 14 549 l 81 549 l 18 972 l 146 972 l 206 549 l 299 549 l 383 972 l 472 972 l 558 549 l 649 549 l 700 972 l 838 972 l 775 549 l 842 549 m 400 549 l 453 549 l 447 574 q 426 701 438 622 q 406 575 415 622 l 400 549 m 264 374 l 274 424 l 224 424 l 226 404 q 234 335 228 386 q 242 278 240 285 q 253 330 243 290 q 264 374 263 369 m 631 406 l 633 424 l 583 424 l 593 376 q 615 282 613 303 q 623 340 617 290 q 631 406 629 389 z "},"₪":{"ha":856,"x_min":63,"x_max":793,"o":"m 63 0 l 63 972 l 196 972 l 196 132 l 332 132 q 433 165 404 132 q 461 278 461 199 l 461 778 l 594 778 l 594 278 q 532 69 594 138 q 332 0 469 0 l 63 0 m 660 0 l 660 840 l 524 840 q 423 807 451 840 q 394 696 394 774 l 394 196 l 263 196 l 263 694 q 324 903 263 835 q 525 972 386 972 l 793 972 l 793 0 l 660 0 z "},"₫":{"ha":856,"x_min":74,"x_max":782,"o":"m 353 183 q 148 257 222 183 q 74 435 74 331 q 149 617 74 540 q 353 694 225 694 q 532 638 457 694 l 532 751 l 361 751 l 361 878 l 532 878 l 532 929 l 692 1003 l 692 878 l 782 878 l 782 751 l 692 751 l 692 200 l 532 200 l 532 254 q 353 183 464 183 m 379 325 q 532 388 479 325 l 532 494 q 379 553 469 553 q 274 519 311 553 q 238 435 238 485 q 274 356 238 388 q 379 325 311 325 m 101 0 l 101 126 l 692 126 l 692 0 l 101 0 z "},"€":{"ha":856,"x_min":46,"x_max":810,"o":"m 514 -17 q 168 307 226 -17 l 46 307 l 99 426 l 153 426 q 150 486 150 465 q 151 526 150 508 l 46 526 l 99 647 l 168 647 q 286 894 197 799 q 528 989 375 989 q 785 903 661 989 l 725 758 q 528 836 632 836 q 338 649 382 836 l 681 649 l 631 526 l 319 526 q 317 479 317 506 q 319 426 317 438 l 592 426 l 542 304 l 340 304 q 402 182 358 228 q 514 136 446 136 q 682 235 613 136 l 810 157 q 687 31 763 78 q 514 -17 611 -17 z "},"₹":{"ha":856,"x_min":101,"x_max":776,"o":"m 776 972 l 776 828 l 590 828 q 642 735 628 792 l 776 735 l 776 589 l 646 589 q 547 422 629 485 q 329 354 465 358 l 642 0 l 453 0 l 101 404 l 101 494 l 333 494 q 490 589 461 494 l 101 589 l 101 735 l 486 735 q 331 828 451 828 l 101 828 l 101 972 l 776 972 z "},"₺":{"ha":856,"x_min":82,"x_max":807,"o":"m 642 396 l 807 396 q 771 253 799 321 q 694 126 743 185 q 565 34 646 68 q 383 0 485 0 l 222 0 l 222 292 l 82 215 l 82 353 l 222 429 l 222 565 l 82 489 l 82 626 l 222 703 l 222 972 l 388 972 l 388 792 l 524 865 l 524 728 l 388 654 l 388 518 l 524 592 l 524 454 l 388 381 l 388 156 l 401 156 q 566 226 503 156 q 642 396 629 296 z "},"₽":{"ha":856,"x_min":26,"x_max":774,"o":"m 449 390 l 308 390 l 308 274 l 511 274 l 511 119 l 308 119 l 308 0 l 143 0 l 143 119 l 26 119 l 26 274 l 143 274 l 143 390 l 26 390 l 26 546 l 143 546 l 143 972 l 449 972 q 695 890 617 972 q 774 681 774 807 q 692 476 774 563 q 449 390 611 390 m 308 817 l 308 546 l 457 546 q 569 585 532 546 q 606 681 606 624 q 571 777 606 738 q 457 817 536 817 l 308 817 z "},"℅":{"ha":856,"x_min":14,"x_max":842,"o":"m 199 378 q 67 463 119 378 q 14 683 14 547 q 70 905 14 821 q 200 989 126 989 q 229 985 215 989 q 253 978 243 982 q 274 965 264 974 q 292 950 285 957 q 306 933 299 943 q 317 915 313 922 q 326 897 321 907 q 333 881 331 886 q 338 867 335 876 l 340 858 l 247 808 q 234 840 239 829 q 217 863 229 850 q 192 876 206 876 q 141 823 164 876 q 118 683 118 769 q 142 543 118 596 q 194 490 165 490 q 227 508 215 490 q 256 565 239 525 l 344 517 q 287 417 325 457 q 199 378 249 378 m 118 -17 l 601 989 l 704 989 l 221 -17 l 118 -17 m 647 -17 q 508 65 563 -17 q 454 289 454 147 q 508 512 454 429 q 647 594 563 594 q 788 513 733 594 q 842 289 842 431 q 788 65 842 146 q 647 -17 733 -17 m 647 96 q 712 146 689 96 q 735 289 735 196 q 647 482 735 482 q 585 431 610 482 q 561 289 561 379 q 585 147 561 199 q 647 96 610 96 z "},"ℓ":{"ha":856,"x_min":139,"x_max":665,"o":"m 415 -17 q 246 156 246 -17 l 246 294 q 189 267 235 288 l 139 396 q 246 450 185 414 l 246 706 q 300 924 246 858 q 457 989 354 989 q 607 934 549 989 q 665 778 665 879 q 642 642 665 706 q 574 530 618 579 q 493 449 531 481 q 406 383 456 417 l 406 206 q 419 142 406 160 q 461 125 433 125 q 568 186 514 125 l 617 75 q 415 -17 536 -17 m 456 861 q 417 830 429 861 q 406 707 406 799 l 406 547 q 506 758 506 633 q 456 861 506 861 z "},"№":{"ha":856,"x_min":32,"x_max":842,"o":"m 668 378 q 547 458 592 378 q 503 683 503 539 q 547 908 503 826 q 668 989 592 989 q 790 908 746 989 q 835 683 835 826 q 790 458 835 539 q 668 378 746 378 m 343 0 l 140 643 l 140 0 l 32 0 l 32 974 l 131 974 l 335 307 l 335 974 l 442 974 l 442 0 l 343 0 m 668 490 q 738 683 738 490 q 668 876 738 876 q 619 826 638 876 q 601 683 601 775 q 619 541 601 592 q 668 490 638 490 m 496 181 l 496 285 l 842 285 l 842 181 l 496 181 z "},"™":{"ha":856,"x_min":6,"x_max":850,"o":"m 128 386 l 128 865 l 6 865 l 6 972 l 364 972 l 364 865 l 243 865 l 243 386 l 128 386 m 393 386 l 393 972 l 511 972 l 610 686 l 622 644 l 635 686 l 732 972 l 850 972 l 850 386 l 735 386 l 735 682 l 718 633 l 631 386 l 615 386 l 526 633 l 508 686 l 508 386 l 393 386 z "},"Ω":{"ha":856,"x_min":33,"x_max":822,"o":"m 485 0 l 485 136 q 608 325 571 235 q 646 540 646 415 q 592 746 646 660 q 428 832 539 832 q 263 747 317 832 q 210 539 210 661 q 247 324 210 414 q 371 136 285 235 l 371 0 l 33 0 l 33 157 l 200 157 q 39 542 39 300 q 51 669 39 607 q 93 789 64 731 q 166 892 122 847 q 277 963 210 936 q 428 989 344 989 q 608 949 531 989 q 730 843 686 910 q 795 700 774 776 q 817 542 817 624 q 654 157 817 303 l 822 157 l 822 0 l 485 0 z "},"℮":{"ha":856,"x_min":35,"x_max":821,"o":"m 435 -17 q 151 122 267 -17 q 35 486 35 261 q 153 860 35 728 q 439 993 271 993 q 703 860 594 993 q 821 486 813 728 l 240 486 l 240 154 q 435 67 324 67 q 739 260 625 67 l 806 217 q 649 42 735 101 q 435 -17 563 -17 m 240 567 l 622 568 l 622 822 q 544 883 596 857 q 435 910 493 910 q 240 829 324 910 l 240 567 z "},"⅓":{"ha":856,"x_min":53,"x_max":804,"o":"m 367 601 l 367 829 l 297 829 l 297 931 q 397 979 375 931 l 497 979 l 497 601 l 367 601 m 53 432 l 53 551 l 804 551 l 804 432 l 53 432 m 444 -11 q 249 99 297 -11 l 367 124 q 447 72 386 72 q 487 85 472 72 q 501 117 501 97 q 436 154 501 154 l 399 154 l 399 235 l 432 235 q 482 268 482 235 q 470 294 482 283 q 439 304 458 304 q 374 264 394 304 l 265 293 q 337 363 289 338 q 447 388 385 388 q 565 356 521 388 q 610 278 610 325 q 590 228 610 250 q 539 197 569 207 q 631 108 631 176 q 581 22 631 56 q 444 -11 532 -11 z "},"⅔":{"ha":856,"x_min":53,"x_max":804,"o":"m 244 601 q 269 707 244 663 q 329 774 294 751 q 399 813 364 797 q 460 841 435 828 q 485 871 485 854 q 436 903 485 903 q 360 846 376 903 l 246 869 q 316 956 264 924 q 443 989 368 989 q 569 956 521 989 q 618 868 618 924 q 585 799 618 828 q 513 756 553 769 q 434 724 472 742 q 388 689 396 707 l 617 689 l 617 601 l 244 601 m 53 432 l 53 551 l 804 551 l 804 432 l 53 432 m 436 -11 q 240 99 289 -11 l 358 124 q 439 72 378 72 q 478 85 464 72 q 493 117 493 97 q 428 154 493 154 l 390 154 l 390 235 l 424 235 q 474 268 474 235 q 462 294 474 283 q 431 304 450 304 q 365 264 386 304 l 257 293 q 328 363 281 338 q 439 388 376 388 q 557 356 513 388 q 601 278 601 325 q 581 228 601 250 q 531 197 561 207 q 622 108 622 176 q 573 22 622 56 q 436 -11 524 -11 z "},"⅛":{"ha":856,"x_min":53,"x_max":804,"o":"m 367 601 l 367 829 l 297 829 l 297 931 q 397 979 375 931 l 497 979 l 497 601 l 367 601 m 53 432 l 53 551 l 804 551 l 804 432 l 53 432 m 426 -12 q 290 22 343 -12 q 236 108 236 56 q 258 166 236 140 q 311 203 279 192 q 261 282 261 231 q 306 358 261 329 q 426 388 350 388 q 548 358 503 388 q 593 282 593 329 q 542 203 593 231 q 595 166 574 192 q 617 108 617 140 q 564 22 617 56 q 426 -12 511 -12 m 371 278 q 426 239 371 239 q 482 278 482 239 q 426 315 482 315 q 385 305 400 315 q 371 278 371 294 m 370 72 q 380 65 370 72 q 426 58 390 58 q 483 72 463 58 q 503 110 503 86 q 483 150 503 135 q 426 165 463 165 q 371 150 392 165 q 350 110 350 135 q 370 72 350 86 z "},"⅜":{"ha":856,"x_min":53,"x_max":804,"o":"m 432 590 q 236 700 285 590 l 354 725 q 435 674 374 674 q 474 686 460 674 q 489 718 489 699 q 424 756 489 756 l 386 756 l 386 836 l 419 836 q 469 869 469 836 q 458 895 469 885 q 426 906 446 906 q 361 865 382 906 l 253 894 q 324 964 276 939 q 435 989 372 989 q 553 958 508 989 q 597 879 597 926 q 577 830 597 851 q 526 799 557 808 q 618 710 618 778 q 569 624 618 657 q 432 590 519 590 m 53 432 l 53 551 l 804 551 l 804 432 l 53 432 m 426 -12 q 290 22 343 -12 q 236 108 236 56 q 258 166 236 140 q 311 203 279 192 q 261 282 261 231 q 306 358 261 329 q 426 388 350 388 q 548 358 503 388 q 593 282 593 329 q 542 203 593 231 q 595 166 574 192 q 617 108 617 140 q 564 22 617 56 q 426 -12 511 -12 m 371 278 q 426 239 371 239 q 482 278 482 239 q 426 315 482 315 q 385 305 400 315 q 371 278 371 294 m 370 72 q 380 65 370 72 q 426 58 390 58 q 483 72 463 58 q 503 110 503 86 q 483 150 503 135 q 426 165 463 165 q 371 150 392 165 q 350 110 350 135 q 370 72 350 86 z "},"⅝":{"ha":856,"x_min":53,"x_max":804,"o":"m 414 592 q 243 638 318 592 l 313 707 q 410 672 357 672 q 464 687 443 672 q 485 724 485 701 q 433 769 485 769 q 363 733 388 769 l 257 772 l 281 981 l 579 981 l 579 899 l 386 899 l 375 829 q 457 850 406 850 q 570 815 528 850 q 613 728 613 779 q 558 629 613 667 q 414 592 504 592 m 53 432 l 53 551 l 804 551 l 804 432 l 53 432 m 426 -12 q 290 22 343 -12 q 236 108 236 56 q 258 166 236 140 q 311 203 279 192 q 261 282 261 231 q 306 358 261 329 q 426 388 350 388 q 548 358 503 388 q 593 282 593 329 q 542 203 593 231 q 595 166 574 192 q 617 108 617 140 q 564 22 617 56 q 426 -12 511 -12 m 371 278 q 426 239 371 239 q 482 278 482 239 q 426 315 482 315 q 385 305 400 315 q 371 278 371 294 m 370 72 q 380 65 370 72 q 426 58 390 58 q 483 72 463 58 q 503 110 503 86 q 483 150 503 135 q 426 165 463 165 q 371 150 392 165 q 350 110 350 135 q 370 72 350 86 z "},"⅞":{"ha":856,"x_min":53,"x_max":804,"o":"m 325 601 q 467 893 326 772 l 244 893 l 244 979 l 611 979 l 611 903 q 494 761 531 847 q 457 601 457 675 l 325 601 m 53 432 l 53 551 l 804 551 l 804 432 l 53 432 m 426 -12 q 290 22 343 -12 q 236 108 236 56 q 258 166 236 140 q 311 203 279 192 q 261 282 261 231 q 306 358 261 329 q 426 388 350 388 q 548 358 503 388 q 593 282 593 329 q 542 203 593 231 q 595 166 574 192 q 617 108 617 140 q 564 22 617 56 q 426 -12 511 -12 m 371 278 q 426 239 371 239 q 482 278 482 239 q 426 315 482 315 q 385 305 400 315 q 371 278 371 294 m 370 72 q 380 65 370 72 q 426 58 390 58 q 483 72 463 58 q 503 110 503 86 q 483 150 503 135 q 426 165 463 165 q 371 150 392 165 q 350 110 350 135 q 370 72 350 86 z "},"←":{"ha":856,"x_min":42,"x_max":800,"o":"m 456 210 q 432 221 450 210 l 57 476 q 42 500 42 486 q 57 525 42 515 l 432 781 q 456 792 450 792 q 472 776 472 792 q 464 747 472 769 l 403 571 l 800 586 l 800 415 l 403 431 l 464 254 q 472 225 472 232 q 456 210 472 210 z "},"↑":{"ha":856,"x_min":138,"x_max":718,"o":"m 514 0 l 343 0 l 358 611 l 182 550 q 153 542 160 542 q 138 558 138 542 q 149 582 138 564 l 404 957 q 428 972 414 972 q 453 957 443 972 l 707 582 q 718 558 718 564 q 703 542 718 542 q 674 550 696 542 l 499 611 l 514 0 z "},"→":{"ha":856,"x_min":56,"x_max":814,"o":"m 400 210 q 383 225 383 210 q 392 254 383 232 l 453 431 l 56 415 l 56 586 l 453 571 l 392 747 q 383 776 383 769 q 400 792 383 792 q 424 781 406 792 l 799 525 q 814 500 814 515 q 799 476 814 486 l 424 221 q 400 210 406 210 z "},"↓":{"ha":856,"x_min":138,"x_max":718,"o":"m 451 15 q 428 0 442 0 q 404 15 414 0 l 147 393 q 138 414 138 407 q 142 426 138 421 q 154 432 147 432 q 179 425 156 432 l 358 363 l 343 972 l 514 972 l 499 363 l 678 425 q 701 432 699 432 q 718 414 718 432 q 708 393 718 404 l 451 15 z "},"↔":{"ha":1711,"x_min":122,"x_max":1590,"o":"m 1176 210 q 1160 225 1160 210 q 1168 254 1160 232 l 1228 426 l 483 426 l 544 254 q 553 225 553 232 q 536 210 553 210 q 513 221 531 210 l 138 476 q 122 500 122 486 q 138 525 122 515 l 513 781 q 536 792 531 792 q 553 776 553 792 q 544 747 553 769 l 483 574 l 1228 574 l 1168 747 q 1160 776 1160 769 q 1176 792 1160 792 q 1200 781 1182 792 l 1574 525 q 1590 500 1590 514 q 1574 476 1590 486 l 1200 221 q 1176 210 1182 210 z "},"↕":{"ha":856,"x_min":138,"x_max":718,"o":"m 428 -236 q 404 -221 414 -236 l 149 154 q 138 178 138 172 q 153 194 138 194 q 182 186 160 194 l 354 126 l 354 701 l 182 642 q 153 633 160 633 q 138 650 138 633 q 149 674 138 656 l 404 1049 q 428 1064 414 1064 q 453 1049 443 1064 l 707 674 q 718 650 718 656 q 703 633 718 633 q 674 642 696 633 l 501 701 l 501 126 l 674 186 q 703 194 696 194 q 718 178 718 194 q 707 154 718 172 l 453 -221 q 428 -236 443 -236 z "},"↖":{"ha":856,"x_min":51,"x_max":806,"o":"m 685 82 l 264 525 l 183 356 q 158 326 168 326 q 138 356 143 326 l 56 782 q 51 814 51 803 q 74 836 51 836 q 100 833 75 836 l 533 751 q 563 731 563 744 q 533 706 563 719 l 364 624 l 806 204 l 685 82 z "},"↗":{"ha":856,"x_min":51,"x_max":806,"o":"m 171 82 l 51 204 l 493 624 l 322 706 q 293 731 293 719 q 324 751 293 744 l 756 833 q 782 836 781 836 q 806 814 806 836 q 800 782 806 810 l 719 356 q 699 326 714 326 q 692 328 694 326 q 686 333 689 329 q 681 338 683 336 q 676 347 679 340 q 672 356 674 353 l 592 525 l 171 82 z "},"↘":{"ha":856,"x_min":51,"x_max":806,"o":"m 782 82 q 756 85 781 82 l 324 167 q 293 188 293 174 q 322 213 293 197 l 493 294 l 51 714 l 171 836 l 592 393 l 672 563 q 676 570 674 565 q 679 577 678 575 q 683 583 681 579 q 688 588 686 586 q 692 590 689 589 q 699 592 696 592 q 719 563 714 592 l 800 136 q 806 104 806 108 q 782 82 806 82 z "},"↙":{"ha":856,"x_min":51,"x_max":806,"o":"m 74 82 q 51 104 51 82 q 56 136 51 115 l 138 563 q 158 592 143 592 q 183 563 169 592 l 264 393 l 685 836 l 806 714 l 364 294 l 533 213 q 540 209 536 211 q 547 206 544 207 q 552 203 549 206 q 557 200 556 201 q 560 197 558 199 q 562 192 561 194 q 563 188 563 190 q 533 167 563 174 l 100 85 q 74 82 75 82 z "},"↨":{"ha":856,"x_min":51,"x_max":806,"o":"m 428 -117 q 404 -101 414 -117 l 149 274 q 138 297 138 292 q 153 314 138 314 q 182 306 160 314 l 354 246 l 354 701 l 182 642 q 153 633 160 633 q 138 650 138 633 q 149 674 138 656 l 404 1049 q 428 1064 414 1064 q 453 1049 443 1064 l 707 674 q 718 650 718 656 q 703 633 718 633 q 674 642 696 633 l 501 701 l 501 246 l 674 306 q 703 314 696 314 q 718 297 718 314 q 707 274 718 292 l 453 -101 q 428 -117 443 -117 m 51 -347 l 51 -201 l 806 -201 l 806 -347 l 51 -347 z "},"↳":{"ha":856,"x_min":74,"x_max":811,"o":"m 794 322 q 811 297 811 311 q 794 274 811 285 l 421 18 q 397 7 403 7 q 381 22 381 7 q 389 51 381 29 l 449 224 l 74 224 l 74 972 l 226 972 l 226 371 l 449 371 l 389 544 q 381 574 381 567 q 397 589 381 589 q 421 578 403 589 l 794 322 z "},"↴":{"ha":856,"x_min":60,"x_max":811,"o":"m 796 449 q 811 432 811 449 q 800 408 811 426 l 544 33 q 521 18 535 18 q 496 33 506 18 l 240 408 q 229 432 229 426 q 244 449 229 449 q 274 440 251 449 l 444 382 l 444 826 l 60 826 l 60 972 l 596 972 l 596 382 l 767 440 q 796 449 789 449 z "},"↵":{"ha":856,"x_min":46,"x_max":783,"o":"m 629 972 l 783 972 l 783 224 l 407 224 l 468 51 q 476 22 476 29 q 460 7 476 7 q 436 18 454 7 l 61 274 q 46 297 46 283 q 61 322 46 313 l 436 578 q 460 589 454 589 q 476 574 476 589 q 468 544 476 567 l 407 371 l 629 371 l 629 972 z "},"↶":{"ha":856,"x_min":19,"x_max":811,"o":"m 309 903 q 352 946 309 903 q 517 989 394 989 q 725 903 639 989 q 811 696 811 817 l 811 0 l 663 0 l 663 696 q 619 801 663 757 q 517 844 576 844 q 413 801 456 844 q 371 696 371 757 l 371 551 l 531 611 q 560 619 553 619 q 575 603 575 619 q 564 579 575 594 l 322 204 q 299 189 313 189 q 274 204 283 189 l 31 579 q 19 603 19 594 q 35 619 19 619 q 64 611 44 619 l 224 551 l 224 696 q 309 903 224 817 z "},"↷":{"ha":856,"x_min":44,"x_max":836,"o":"m 821 619 q 836 603 836 619 q 825 579 836 594 l 582 204 q 558 189 572 189 q 533 204 543 189 l 292 579 q 281 603 281 594 q 296 619 281 619 q 325 611 306 619 l 485 551 l 485 696 q 442 801 485 757 q 339 844 400 844 q 236 801 279 844 q 193 696 193 757 l 193 0 l 44 0 l 44 696 q 131 903 44 817 q 339 989 218 989 q 547 903 461 989 q 632 696 632 817 l 632 551 l 792 611 q 821 619 814 619 z "},"↸":{"ha":856,"x_min":51,"x_max":806,"o":"m 51 826 l 51 972 l 806 972 l 806 826 l 51 826 m 685 -46 l 264 397 l 183 228 q 158 199 168 199 q 138 228 143 199 l 56 654 q 51 686 51 675 q 74 708 51 708 q 100 706 75 708 l 533 624 q 563 603 563 617 q 533 578 563 592 l 364 496 l 806 76 l 685 -46 z "},"↹":{"ha":856,"x_min":56,"x_max":800,"o":"m 689 453 q 665 464 683 453 l 292 719 q 275 743 275 731 q 292 768 275 758 l 665 1024 q 689 1035 683 1035 q 706 1019 706 1035 q 697 990 706 1013 l 636 814 l 800 829 l 800 658 l 636 674 l 697 497 q 706 468 706 475 q 689 453 706 453 m 56 464 l 56 1021 l 215 1021 l 215 464 l 56 464 m 167 -339 q 150 -324 150 -339 q 158 -294 150 -319 l 219 -119 l 56 -135 l 56 36 l 219 21 l 158 199 q 150 228 150 221 q 167 243 150 243 q 190 232 172 243 l 565 -25 q 581 -49 581 -35 q 565 -74 581 -64 l 190 -328 q 167 -339 172 -339 m 640 -328 l 640 229 l 800 229 l 800 -328 l 640 -328 z "},"↺":{"ha":856,"x_min":49,"x_max":882,"o":"m 851 888 q 882 867 882 881 q 853 842 882 854 l 688 763 q 807 486 807 650 q 697 217 807 326 q 428 107 588 107 q 158 217 268 107 q 49 486 49 326 q 161 754 49 642 l 261 653 q 192 486 192 586 q 259 317 192 385 q 428 250 326 250 q 597 317 529 250 q 664 486 664 385 q 585 664 664 592 l 501 492 q 476 463 489 463 q 456 492 461 463 l 375 918 q 369 949 369 946 q 393 972 369 972 q 418 968 401 972 l 851 888 z "},"⇚":{"ha":856,"x_min":42,"x_max":776,"o":"m 776 590 l 410 590 l 392 539 l 776 539 l 776 463 l 390 463 l 410 410 l 776 410 l 776 333 l 436 333 l 464 254 q 472 225 472 232 q 456 210 472 210 q 432 221 450 210 l 57 476 q 42 500 42 486 q 57 525 42 515 l 432 781 q 456 792 450 792 q 472 776 472 792 q 464 747 472 769 l 436 667 l 776 667 l 776 590 z "},"⇛":{"ha":856,"x_min":81,"x_max":814,"o":"m 799 525 q 814 500 814 515 q 799 476 814 486 l 424 221 q 400 210 406 210 q 383 225 383 210 q 392 254 383 232 l 419 333 l 81 333 l 81 410 l 446 410 l 465 463 l 81 463 l 81 539 l 464 539 l 446 590 l 81 590 l 81 667 l 419 667 l 392 747 q 383 776 383 769 q 400 792 383 792 q 424 781 406 792 l 799 525 z "},"⇜":{"ha":856,"x_min":42,"x_max":800,"o":"m 738 576 l 800 576 l 800 426 l 692 426 l 683 467 l 657 349 l 579 349 l 554 468 l 528 349 l 451 349 l 435 426 l 383 426 l 443 254 q 451 225 451 232 q 436 210 451 210 q 413 221 428 210 l 57 476 q 42 501 42 488 q 57 525 42 514 l 413 781 q 436 792 428 792 q 451 776 451 792 q 443 747 451 769 l 383 576 l 481 576 l 490 525 l 514 654 l 594 654 l 619 525 l 642 654 l 724 654 l 738 576 z "},"⇝":{"ha":856,"x_min":56,"x_max":814,"o":"m 799 525 q 814 501 814 514 q 799 476 814 488 l 443 221 q 419 210 428 210 q 404 225 404 210 q 413 254 404 232 l 472 426 l 422 426 l 406 349 l 328 349 l 303 467 l 276 349 l 199 349 l 172 467 l 164 426 l 56 426 l 56 576 l 118 576 l 132 654 l 214 654 l 238 525 l 261 654 l 343 654 l 365 525 l 375 576 l 472 576 l 413 747 q 404 776 404 769 q 419 792 404 792 q 443 781 428 792 l 799 525 z "},"⇞":{"ha":856,"x_min":136,"x_max":719,"o":"m 708 582 q 719 558 719 564 q 704 542 719 542 q 675 550 697 542 l 503 610 l 503 450 l 703 450 l 703 342 l 503 342 l 503 242 l 703 242 l 703 132 l 503 132 l 503 0 l 353 0 l 353 132 l 150 132 l 150 242 l 353 242 l 353 342 l 150 342 l 150 450 l 353 450 l 353 610 l 181 550 q 151 542 158 542 q 136 558 136 542 q 147 582 136 564 l 404 957 q 428 972 414 972 q 453 957 443 972 l 708 582 z "},"⇟":{"ha":856,"x_min":136,"x_max":719,"o":"m 704 431 q 719 414 719 431 q 708 390 719 408 l 453 15 q 428 0 443 0 q 404 15 414 0 l 147 390 q 136 414 136 408 q 151 431 136 431 q 181 422 158 431 l 353 363 l 353 522 l 150 522 l 150 632 l 353 632 l 353 732 l 150 732 l 150 840 l 353 840 l 353 972 l 503 972 l 503 840 l 703 840 l 703 732 l 503 732 l 503 632 l 703 632 l 703 522 l 503 522 l 503 363 l 675 422 q 704 431 697 431 z "},"⇠":{"ha":856,"x_min":42,"x_max":800,"o":"m 457 210 q 433 221 449 210 l 57 476 q 42 501 42 488 q 57 525 42 514 l 433 781 q 457 792 449 792 q 472 776 472 792 q 464 747 472 769 l 404 578 l 481 578 l 481 425 l 404 425 l 464 254 q 472 225 472 232 q 457 210 472 210 m 554 425 l 554 578 l 640 578 l 640 425 l 554 425 m 714 425 l 714 578 l 800 578 l 800 425 l 714 425 z "},"⇡":{"ha":856,"x_min":136,"x_max":718,"o":"m 351 482 l 351 608 l 181 550 q 151 542 158 542 q 136 558 136 542 q 147 582 136 564 l 404 957 q 428 972 414 972 q 453 957 443 972 l 707 582 q 718 558 718 564 q 703 542 718 542 q 674 550 696 542 l 504 608 l 504 482 l 351 482 m 351 242 l 351 379 l 504 379 l 504 242 l 351 242 m 351 0 l 351 139 l 504 139 l 504 0 l 351 0 z "},"⇢":{"ha":856,"x_min":56,"x_max":814,"o":"m 399 210 q 383 225 383 210 q 392 254 383 232 l 451 425 l 375 425 l 375 578 l 451 578 l 392 747 q 383 776 383 769 q 399 792 383 792 q 422 781 407 792 l 799 525 q 814 501 814 514 q 799 476 814 488 l 422 221 q 399 210 407 210 m 56 425 l 56 578 l 142 578 l 142 425 l 56 425 m 215 425 l 215 578 l 301 578 l 301 425 l 215 425 z "},"⇣":{"ha":856,"x_min":136,"x_max":718,"o":"m 351 835 l 351 972 l 504 972 l 504 835 l 351 835 m 351 593 l 351 732 l 504 732 l 504 593 l 351 593 m 428 0 q 404 15 414 0 l 147 390 q 136 414 136 408 q 151 431 136 431 q 181 422 158 431 l 351 364 l 351 490 l 504 490 l 504 364 l 674 422 q 703 431 696 431 q 718 414 718 431 q 707 390 718 408 l 453 15 q 428 0 443 0 z "},"⇤":{"ha":856,"x_min":56,"x_max":800,"o":"m 56 144 l 56 854 l 215 854 l 215 144 l 56 144 m 689 210 q 665 221 683 210 l 292 476 q 275 500 275 486 q 292 525 275 514 l 665 781 q 689 792 683 792 q 706 776 706 792 q 697 747 706 769 l 636 571 l 800 586 l 800 415 l 636 431 l 697 254 q 706 225 706 232 q 689 210 706 210 z "},"⇥":{"ha":856,"x_min":56,"x_max":800,"o":"m 640 144 l 640 854 l 800 854 l 800 144 l 640 144 m 167 210 q 150 225 150 210 q 158 254 150 232 l 219 431 l 56 415 l 56 586 l 219 571 l 158 747 q 150 776 150 769 q 167 792 150 792 q 190 781 172 792 l 565 525 q 581 500 581 515 q 565 476 581 486 l 190 221 q 167 210 172 210 z "},"∀":{"ha":856,"x_min":32,"x_max":824,"o":"m 646 972 l 824 972 l 506 0 l 350 0 l 32 972 l 210 972 l 274 758 l 582 758 l 646 972 m 451 319 l 538 608 l 318 608 l 404 319 q 428 211 411 296 q 451 319 438 275 z "},"∁":{"ha":856,"x_min":78,"x_max":786,"o":"m 458 -15 q 308 9 375 -15 q 199 74 240 33 q 128 167 157 114 q 89 276 100 221 q 78 389 78 331 l 78 585 q 89 698 78 643 q 128 806 100 753 q 199 900 157 860 q 308 965 240 940 q 458 989 375 989 q 694 899 601 989 q 786 674 786 810 l 614 674 q 569 788 614 746 q 458 831 525 831 q 301 765 353 831 q 249 585 249 699 l 249 389 q 300 210 249 275 q 458 144 351 144 q 569 186 525 144 q 614 300 614 228 l 786 300 q 694 74 786 164 q 458 -15 601 -15 z "},"∂":{"ha":856,"x_min":78,"x_max":776,"o":"m 386 -17 q 162 63 246 -17 q 78 282 78 143 q 178 521 78 428 q 415 614 278 614 q 615 529 543 614 q 610 581 613 563 q 503 769 589 707 q 299 836 418 831 l 338 989 q 672 833 568 964 q 776 463 776 703 q 755 283 776 365 q 689 131 733 200 q 567 23 644 63 q 386 -17 489 -17 m 396 138 q 535 187 482 138 q 589 313 589 236 q 547 422 589 385 q 428 460 504 460 q 292 410 344 460 q 240 286 240 361 q 283 177 240 217 q 396 138 325 138 z "},"∃":{"ha":856,"x_min":103,"x_max":761,"o":"m 103 0 l 103 157 l 596 157 l 596 344 l 103 344 l 103 501 l 596 501 l 596 685 l 103 685 l 103 842 l 761 842 l 761 0 l 103 0 z "},"∄":{"ha":856,"x_min":103,"x_max":761,"o":"m 761 842 l 761 0 l 319 0 l 288 -94 l 139 -94 l 171 0 l 103 0 l 103 157 l 225 157 l 289 344 l 103 344 l 103 501 l 342 501 l 406 685 l 103 685 l 103 842 l 458 842 l 490 935 l 639 935 l 607 842 l 761 842 m 596 501 l 596 685 l 554 685 l 490 501 l 596 501 m 596 157 l 596 344 l 438 344 l 374 157 l 596 157 z "},"∅":{"ha":856,"x_min":-4,"x_max":860,"o":"m 860 972 l 731 788 q 856 485 856 660 q 729 183 856 308 q 426 57 603 57 q 247 97 331 57 l 179 0 l -4 0 l 125 183 q 0 485 0 308 q 125 788 0 663 q 426 914 250 914 q 608 874 519 914 l 678 972 l 860 972 m 169 485 q 224 324 169 393 l 511 735 q 426 750 469 750 q 245 672 321 750 q 169 485 169 594 m 686 485 q 632 647 686 572 l 343 235 q 426 221 388 221 q 610 299 533 221 q 686 485 686 376 z "},"∆":{"ha":856,"x_min":10,"x_max":844,"o":"m 10 0 l 354 972 l 501 972 l 844 0 l 10 0 m 232 156 l 624 156 l 454 657 q 429 738 436 706 q 403 657 415 686 l 232 156 z "},"∇":{"ha":856,"x_min":10,"x_max":844,"o":"m 10 972 l 844 972 l 501 0 l 354 0 l 10 972 m 232 817 l 403 315 q 429 235 415 286 q 454 315 436 267 l 624 817 l 232 817 z "},"∈":{"ha":856,"x_min":54,"x_max":788,"o":"m 414 565 q 217 428 235 565 l 788 428 l 788 283 l 217 283 q 414 144 236 144 l 788 144 l 788 0 l 426 0 q 151 94 249 0 q 54 344 54 189 l 54 368 q 150 617 54 524 q 426 710 246 710 l 788 710 l 788 565 l 414 565 z "},"∉":{"ha":856,"x_min":54,"x_max":788,"o":"m 788 565 l 640 565 l 593 428 l 788 428 l 788 283 l 544 283 l 497 144 l 788 144 l 788 0 l 449 0 l 404 -129 l 258 -129 l 307 14 q 119 131 185 43 q 54 344 54 218 l 54 368 q 150 617 54 524 q 426 710 246 710 l 544 710 l 586 831 l 731 831 l 689 710 l 788 710 l 788 565 m 449 428 l 496 565 l 414 565 q 217 428 235 565 l 449 428 m 354 150 l 399 283 l 217 283 q 354 150 233 172 z "},"∊":{"ha":856,"x_min":57,"x_max":783,"o":"m 365 471 q 200 364 221 471 l 783 364 l 783 236 l 201 236 q 365 128 222 128 l 783 128 l 783 0 l 376 0 q 141 81 225 0 q 57 290 57 161 l 57 311 q 141 519 57 439 q 376 599 225 599 l 783 599 l 783 471 l 365 471 z "},"∋":{"ha":856,"x_min":56,"x_max":789,"o":"m 417 710 q 693 617 597 710 q 789 368 789 524 l 789 344 q 692 94 789 189 q 417 0 594 0 l 56 0 l 56 144 l 429 144 q 626 283 607 144 l 56 283 l 56 428 l 626 428 q 429 565 608 565 l 56 565 l 56 710 l 417 710 z "},"∌":{"ha":856,"x_min":78,"x_max":811,"o":"m 560 697 q 747 581 682 668 q 811 368 811 493 l 811 344 q 714 94 811 189 q 439 0 617 0 l 324 0 l 279 -129 l 133 -129 l 178 0 l 78 0 l 78 144 l 226 144 l 274 283 l 78 283 l 78 428 l 324 428 l 371 565 l 78 565 l 78 710 l 419 710 l 460 828 l 604 828 l 560 697 m 514 560 l 468 428 l 649 428 q 514 560 632 538 m 451 144 q 649 283 629 144 l 419 283 l 372 144 l 451 144 z "},"∍":{"ha":856,"x_min":72,"x_max":799,"o":"m 479 599 q 715 519 631 599 q 799 311 799 439 l 799 290 q 715 81 799 161 q 479 0 631 0 l 72 0 l 72 128 l 490 128 q 654 236 633 128 l 72 236 l 72 364 l 656 364 q 490 471 635 471 l 72 471 l 72 599 l 479 599 z "},"∎":{"ha":856,"x_min":124,"x_max":726,"o":"m 124 0 l 124 710 l 726 710 l 726 0 l 124 0 z "},"∏":{"ha":856,"x_min":49,"x_max":807,"o":"m 646 -194 l 646 818 l 208 818 l 208 -194 l 49 -194 l 49 972 l 807 972 l 807 -194 l 646 -194 z "},"∐":{"ha":856,"x_min":49,"x_max":807,"o":"m 646 972 l 807 972 l 807 -194 l 49 -194 l 49 972 l 208 972 l 208 -40 l 646 -40 l 646 972 z "},"∑":{"ha":856,"x_min":56,"x_max":800,"o":"m 56 -194 l 56 -47 l 385 403 l 75 825 l 75 972 l 774 972 l 774 819 l 278 819 l 586 403 l 261 -40 l 800 -40 l 800 -194 l 56 -194 z "},"−":{"ha":856,"x_min":101,"x_max":754,"o":"m 101 399 l 101 554 l 754 554 l 754 399 l 101 399 z "},"∓":{"ha":856,"x_min":101,"x_max":754,"o":"m 101 710 l 101 865 l 754 865 l 754 710 l 101 710 m 508 249 l 508 0 l 347 0 l 347 249 l 101 249 l 101 404 l 347 404 l 347 653 l 508 653 l 508 404 l 754 404 l 754 249 l 508 249 z "},"∔":{"ha":856,"x_min":101,"x_max":754,"o":"m 426 750 q 349 781 381 750 q 318 858 318 813 q 349 935 318 903 q 426 967 381 967 q 505 935 472 967 q 538 858 538 903 q 506 782 538 814 q 426 750 474 750 m 508 249 l 508 0 l 347 0 l 347 249 l 101 249 l 101 404 l 347 404 l 347 653 l 508 653 l 508 404 l 754 404 l 754 249 l 508 249 z "},"∕":{"ha":856,"x_min":18,"x_max":838,"o":"m 18 -17 l 682 989 l 838 989 l 174 -17 l 18 -17 z "},"∖":{"ha":856,"x_min":18,"x_max":838,"o":"m 682 -17 l 18 989 l 174 989 l 838 -17 l 682 -17 z "},"∗":{"ha":856,"x_min":104,"x_max":753,"o":"m 306 157 l 185 242 l 272 368 l 344 426 l 250 404 l 104 404 l 104 554 l 250 554 l 344 532 l 272 590 l 185 717 l 306 801 l 408 657 l 428 572 l 447 657 l 550 801 l 671 717 l 583 590 l 511 532 l 606 554 l 753 554 l 753 404 l 606 404 l 511 426 l 583 368 l 671 242 l 550 157 l 447 301 l 428 386 l 408 301 l 306 157 z "},"∘":{"ha":856,"x_min":233,"x_max":624,"o":"m 566 349 q 537 320 566 349 q 428 292 508 292 q 290 349 347 292 q 233 486 233 406 q 290 623 233 567 q 428 679 347 679 q 566 623 508 679 q 624 486 624 567 q 566 349 624 406 m 428 414 q 477 435 457 414 q 497 486 497 456 q 477 536 497 515 q 428 557 457 557 q 379 536 400 557 q 358 486 358 515 q 379 435 358 456 q 428 414 400 414 z "},"∙":{"ha":856,"x_min":318,"x_max":538,"o":"m 426 378 q 349 409 381 378 q 318 485 318 440 q 349 561 318 529 q 426 593 381 593 q 505 561 472 593 q 538 485 538 529 q 506 409 538 440 q 426 378 474 378 z "},"√":{"ha":856,"x_min":54,"x_max":819,"o":"m 393 0 l 218 335 l 121 286 l 54 417 l 286 535 l 440 236 l 654 972 l 819 972 l 524 0 l 393 0 z "},"∛":{"ha":856,"x_min":54,"x_max":819,"o":"m 278 600 q 82 710 131 600 l 200 735 q 281 683 219 683 q 320 696 306 683 q 335 728 335 708 q 269 765 335 765 l 232 765 l 232 846 l 265 846 q 315 879 315 846 q 303 905 315 894 q 272 915 292 915 q 207 875 228 915 l 99 904 q 170 974 122 949 q 281 999 218 999 q 399 967 354 999 q 443 889 443 936 q 423 840 443 861 q 372 808 403 818 q 464 719 464 788 q 415 633 464 667 q 278 600 365 600 m 393 0 l 218 335 l 121 286 l 54 417 l 286 535 l 440 236 l 654 972 l 819 972 l 524 0 l 393 0 z "},"∜":{"ha":856,"x_min":42,"x_max":819,"o":"m 288 601 l 288 676 l 42 676 l 42 738 l 290 979 l 408 979 l 408 757 l 483 757 l 483 676 l 408 676 l 408 601 l 288 601 m 393 0 l 218 335 l 121 286 l 54 417 l 286 535 l 440 236 l 654 972 l 819 972 l 524 0 l 393 0 m 288 757 l 288 868 l 175 757 l 288 757 z "},"∝":{"ha":856,"x_min":57,"x_max":783,"o":"m 783 631 q 715 594 746 631 q 647 483 685 557 q 714 374 683 411 q 783 336 744 336 l 783 181 q 669 224 718 181 q 575 346 621 268 q 350 183 476 183 q 148 267 239 183 q 57 483 57 350 q 148 701 57 617 q 350 785 239 785 q 477 742 424 785 q 576 622 531 699 q 669 744 619 700 q 783 788 718 788 l 783 631 m 347 333 q 429 372 393 333 q 503 482 465 410 q 428 595 464 556 q 347 635 392 635 q 258 592 297 635 q 218 483 218 550 q 258 375 218 417 q 347 333 297 333 z "},"∞":{"ha":856,"x_min":11,"x_max":844,"o":"m 600 807 q 771 718 697 807 q 844 482 844 629 q 772 248 844 336 q 606 160 699 160 q 505 203 542 160 q 439 324 468 246 q 365 201 404 243 q 261 160 325 160 q 89 249 167 160 q 11 482 11 338 q 85 718 11 629 q 256 807 158 807 q 363 758 324 807 q 426 632 401 710 q 499 763 460 718 q 600 807 538 807 m 261 311 q 313 352 290 311 q 372 492 335 393 q 261 654 315 654 q 198 608 225 654 q 171 482 171 561 q 199 358 171 406 q 261 311 228 311 m 594 311 q 656 358 628 311 q 685 482 685 406 q 656 606 685 558 q 594 654 628 654 q 581 651 588 654 q 567 640 574 647 q 556 626 561 633 q 544 605 550 618 q 534 581 539 592 q 523 553 529 571 q 512 522 517 535 q 500 489 507 510 q 489 456 493 468 q 594 311 540 311 z "},"∟":{"ha":856,"x_min":79,"x_max":817,"o":"m 79 0 l 79 842 l 243 842 l 243 160 l 817 160 l 817 0 l 79 0 z "},"∠":{"ha":856,"x_min":22,"x_max":822,"o":"m 333 160 l 822 160 l 822 0 l 22 0 l 622 828 l 758 739 l 333 160 z "},"∡":{"ha":856,"x_min":22,"x_max":822,"o":"m 822 160 l 822 0 l 724 0 q 701 -117 718 -46 l 568 -81 q 583 0 579 -33 l 22 0 l 357 461 q 269 503 315 483 l 315 633 q 440 576 379 611 l 622 828 l 758 739 l 568 479 q 722 160 697 349 l 822 160 m 581 160 q 482 361 560 275 l 333 160 l 581 160 z "},"∢":{"ha":856,"x_min":38,"x_max":806,"o":"m 742 526 q 703 322 742 421 l 806 269 l 710 121 l 617 171 q 532 76 575 118 l 436 175 q 493 238 471 210 l 38 485 l 528 761 q 483 828 511 790 l 592 915 q 651 832 631 867 l 710 864 l 806 731 l 718 683 q 742 526 742 601 m 372 493 l 576 388 q 599 519 599 450 q 589 611 599 568 l 372 493 z "},"∣":{"ha":856,"x_min":346,"x_max":511,"o":"m 346 0 l 346 972 l 511 972 l 511 0 l 346 0 z "},"∤":{"ha":856,"x_min":164,"x_max":693,"o":"m 693 576 l 511 451 l 511 0 l 346 0 l 346 339 l 233 261 l 164 361 l 346 486 l 346 972 l 511 972 l 511 599 l 624 676 l 693 576 z "},"∥":{"ha":856,"x_min":215,"x_max":642,"o":"m 215 0 l 215 972 l 381 972 l 381 0 l 215 0 m 476 0 l 476 972 l 642 972 l 642 0 l 476 0 z "},"∦":{"ha":856,"x_min":19,"x_max":838,"o":"m 838 675 l 642 549 l 642 0 l 476 0 l 476 443 l 381 381 l 381 0 l 215 0 l 215 275 l 94 197 l 19 317 l 215 443 l 215 972 l 381 972 l 381 549 l 476 611 l 476 972 l 642 972 l 642 718 l 761 794 l 838 675 z "},"∧":{"ha":856,"x_min":67,"x_max":789,"o":"m 67 0 l 368 613 l 488 613 l 789 0 l 624 0 l 428 401 l 232 0 l 67 0 z "},"∨":{"ha":856,"x_min":67,"x_max":789,"o":"m 67 613 l 232 613 l 428 211 l 624 613 l 789 613 l 488 0 l 368 0 l 67 613 z "},"∩":{"ha":856,"x_min":50,"x_max":806,"o":"m 50 0 l 50 383 q 158 634 50 542 q 428 726 265 726 q 698 634 590 726 q 806 383 806 542 l 806 0 l 646 0 l 646 363 q 585 519 646 465 q 428 572 525 572 q 270 519 331 572 q 210 363 210 465 l 210 0 l 50 0 z "},"∪":{"ha":856,"x_min":47,"x_max":808,"o":"m 700 76 q 646 30 700 76 q 428 -17 592 -17 q 156 76 264 -17 q 47 329 47 169 l 47 710 l 207 710 l 207 350 q 268 192 207 247 q 428 138 329 138 q 588 192 526 138 q 649 350 649 246 l 649 710 l 808 710 l 808 329 q 700 76 808 169 z "},"∫":{"ha":856,"x_min":189,"x_max":667,"o":"m 340 -194 q 189 -161 263 -194 l 189 -32 q 290 -56 250 -56 q 347 3 347 -56 l 347 821 q 515 989 347 989 q 667 954 603 989 l 667 826 q 565 850 607 850 q 508 792 508 850 l 508 -26 q 340 -194 508 -194 z "},"∬":{"ha":856,"x_min":-8,"x_max":864,"o":"m 143 -194 q -8 -161 65 -194 l -8 -32 q 93 -56 53 -56 q 150 3 150 -56 l 150 821 q 318 989 150 989 q 469 954 406 989 l 469 826 q 368 850 410 850 q 311 792 311 850 l 311 -26 q 143 -194 311 -194 m 538 -194 q 386 -161 460 -194 l 386 -32 q 488 -56 447 -56 q 544 3 544 -56 l 544 821 q 713 989 544 989 q 864 954 800 989 l 864 826 q 763 850 804 850 q 706 792 706 850 l 706 -26 q 538 -194 706 -194 z "},"∭":{"ha":1711,"x_min":213,"x_max":1499,"o":"m 364 -194 q 213 -161 286 -194 l 213 -32 q 314 -56 274 -56 q 371 3 371 -56 l 371 821 q 539 989 371 989 q 690 954 626 989 l 690 826 q 589 850 631 850 q 532 792 532 850 l 532 -26 q 364 -194 532 -194 m 768 -194 q 617 -161 690 -194 l 617 -32 q 718 -56 678 -56 q 775 3 775 -56 l 775 821 q 943 989 775 989 q 1094 954 1031 989 l 1094 826 q 993 850 1035 850 q 936 792 936 850 l 936 -26 q 768 -194 936 -194 m 1172 -194 q 1021 -161 1094 -194 l 1021 -32 q 1122 -56 1082 -56 q 1179 3 1179 -56 l 1179 821 q 1347 989 1179 989 q 1499 954 1435 989 l 1499 826 q 1397 850 1439 850 q 1340 792 1340 850 l 1340 -26 q 1172 -194 1340 -194 z "},"∮":{"ha":856,"x_min":78,"x_max":778,"o":"m 778 394 q 701 176 778 271 q 508 53 625 81 l 508 -26 q 340 -194 508 -194 q 189 -161 263 -194 l 189 -32 q 290 -56 250 -56 q 347 3 347 -56 l 347 53 q 154 176 231 81 q 78 394 78 271 q 154 612 78 517 q 347 735 231 707 l 347 821 q 515 989 347 989 q 667 954 603 989 l 667 826 q 565 850 607 850 q 508 792 508 850 l 508 735 q 701 612 625 707 q 778 394 778 517 m 268 498 q 253 475 268 498 q 238 394 238 451 q 268 291 238 338 q 347 221 299 244 l 347 568 q 268 498 299 544 m 508 221 q 588 291 557 244 q 618 394 618 338 q 588 498 618 451 q 508 568 557 544 l 508 221 z "},"∯":{"ha":1711,"x_min":292,"x_max":1421,"o":"m 1352 568 q 1386 537 1352 568 q 1421 396 1421 506 q 1352 224 1421 286 q 1133 136 1283 161 l 1133 -26 q 965 -194 1133 -194 q 814 -161 888 -194 l 814 -32 q 915 -56 875 -56 q 972 3 972 -56 l 972 121 q 857 118 900 118 q 739 121 814 118 l 739 -26 q 571 -194 739 -194 q 419 -161 493 -194 l 419 -32 q 521 -56 481 -56 q 578 3 578 -56 l 578 136 q 360 224 428 161 q 292 396 292 286 q 360 567 292 506 q 578 654 428 629 l 578 821 q 746 989 578 989 q 897 954 833 989 l 897 826 q 796 850 838 850 q 739 792 739 850 l 739 669 q 857 672 814 672 q 972 669 900 672 l 972 821 q 1140 989 972 989 q 1292 954 1228 989 l 1292 826 q 1190 850 1232 850 q 1133 792 1133 850 l 1133 654 q 1352 568 1283 631 m 857 276 q 972 278 938 276 l 972 513 q 857 514 938 514 q 739 511 808 514 l 739 279 q 857 276 808 276 m 1133 294 q 1232 332 1203 307 q 1261 396 1261 357 q 1133 496 1261 472 l 1133 294 m 451 396 q 480 333 451 357 q 578 294 508 308 l 578 496 q 451 396 451 472 z "},"∰":{"ha":1711,"x_min":21,"x_max":1694,"o":"m 1694 397 q 1611 216 1694 281 q 1340 124 1528 151 l 1340 -26 q 1172 -194 1340 -194 q 1021 -161 1094 -194 l 1021 -32 q 1122 -56 1082 -56 q 1179 3 1179 -56 l 1179 107 q 936 97 1082 100 l 936 -26 q 768 -194 936 -194 q 617 -161 690 -194 l 617 -32 q 718 -56 678 -56 q 775 3 775 -56 l 775 97 q 532 107 629 100 l 532 -26 q 364 -194 532 -194 q 213 -161 286 -194 l 213 -32 q 314 -56 274 -56 q 371 3 371 -56 l 371 124 q 103 217 185 153 q 21 397 21 282 q 103 576 21 511 q 371 669 186 642 l 371 821 q 539 989 371 989 q 690 954 626 989 l 690 826 q 589 850 631 850 q 532 792 532 850 l 532 686 q 775 696 629 693 l 775 821 q 943 989 775 989 q 1094 954 1031 989 l 1094 826 q 993 850 1035 850 q 936 792 936 850 l 936 696 q 1179 686 1082 693 l 1179 821 q 1347 989 1179 989 q 1499 954 1435 989 l 1499 826 q 1397 850 1439 850 q 1340 792 1340 850 l 1340 669 q 1611 577 1528 642 q 1694 397 1694 513 m 936 257 q 1179 265 1075 258 l 1179 528 q 936 538 1086 535 l 936 257 m 532 267 q 775 257 625 260 l 775 538 q 532 528 625 535 l 532 267 m 1340 283 q 1535 397 1535 314 q 1340 511 1535 478 l 1340 283 m 181 397 q 371 283 181 317 l 371 510 q 181 397 181 476 z "},"∱":{"ha":856,"x_min":78,"x_max":867,"o":"m 778 311 l 867 311 l 696 140 l 524 311 l 617 311 q 582 402 611 361 q 508 464 553 443 l 508 -26 q 340 -194 508 -194 q 189 -161 263 -194 l 189 -32 q 290 -56 250 -56 q 347 3 347 -56 l 347 464 q 268 393 299 440 q 238 289 238 346 l 78 289 q 154 508 78 413 q 347 631 231 603 l 347 821 q 515 989 347 989 q 667 954 603 989 l 667 826 q 565 850 607 850 q 508 792 508 850 l 508 631 q 695 516 619 604 q 778 311 771 428 z "}}}
